<?xml version="1.0" encoding="UTF-8"?>
<svg width="500px" height="500px" viewBox="0 0 500 500" version="1.1" xmlns="http://www.w3.org/2000/svg" xmlns:xlink="http://www.w3.org/1999/xlink">
    <!-- Generator: Sketch 46.1 (44463) - http://www.bohemiancoding.com/sketch -->
    <title>algorithms</title>
    <desc>Created with Sketch.</desc>
    <defs></defs>
    <g id="Page-1" stroke="none" stroke-width="1" fill="none" fill-rule="evenodd">
        <g id="algorithms" fill-rule="nonzero" fill="#000000">
            <g transform="translate(78.000000, 79.000000)" id="Shape">
                <path d="M10.073268,119.91062 L56.6479435,119.91062 L56.6479435,135.188121 C56.6479435,138.867277 59.6268282,141.849822 63.3014686,141.849822 C66.9761091,141.849822 69.9549937,138.867277 69.9549937,135.188121 L69.9549937,119.91062 L116.529669,119.91062 C120.20431,119.91062 123.183194,116.928075 123.183194,113.248919 L123.183194,66.6170111 L138.708086,66.6170111 C142.382727,66.6170111 145.361611,63.6344659 145.361611,59.95531 C145.361611,56.2761541 142.382727,53.2936089 138.708086,53.2936089 L123.183194,53.2936089 L123.183194,6.66170111 C123.183194,2.98254518 120.20431,0 116.529669,0 L10.073268,0 C6.39862752,0 3.41974287,2.98254518 3.41974287,6.66170111 L3.41974287,113.248919 C3.41974287,116.928075 6.39862752,119.91062 10.073268,119.91062 Z M16.726793,13.3234022 L109.876144,13.3234022 L109.876144,106.587218 L65.0313851,106.587218 C63.8894525,106.237376 62.6691279,106.237376 61.5271953,106.587218 L16.726793,106.587218 L16.726793,13.3234022 Z M316.135422,7.88903889e-15 L254.035854,7.88903889e-15 C238.122541,0.0244557119 225.228338,12.9345033 225.203912,28.8673715 L225.203912,53.2936089 L205.243337,53.2936089 C201.568697,53.2936091 198.589812,56.2761542 198.589812,59.95531 C198.589812,63.6344658 201.568697,66.617011 205.243337,66.6170111 L225.203912,66.6170111 L225.203912,91.0432485 C225.228338,106.976117 238.122541,119.886164 254.035854,119.91062 L278.432113,119.91062 L278.432113,139.895723 C278.432113,143.574879 281.410998,146.557424 285.085638,146.557424 C288.760279,146.557424 291.739163,143.574879 291.739163,139.895723 L291.739163,119.91062 L316.135422,119.91062 C332.048735,119.886164 344.942938,106.976117 344.967364,91.0432485 L344.967364,28.8673715 C344.942938,12.9345033 332.048735,0.0244557119 316.135422,7.88903889e-15 Z M331.660314,91.0432485 C331.660314,99.6279457 324.709583,106.587218 316.135422,106.587218 L254.035854,106.587218 C245.461693,106.587218 238.510963,99.6279457 238.510963,91.0432485 L238.510963,28.8673715 C238.510963,20.2826743 245.461693,13.3234022 254.035854,13.3234022 L316.135422,13.3234022 C324.709583,13.3234022 331.660314,20.2826743 331.660314,28.8673715 L331.660314,91.0432485 Z M291.739163,222.456406 L291.739163,206.512734 C291.739163,202.833579 288.760279,199.851033 285.085638,199.851033 C281.410998,199.851033 278.432113,202.833579 278.432113,206.512734 L278.432113,222.456406 C250.647188,225.590776 228.712608,247.533885 225.558767,275.350313 L208.215245,275.350313 C204.540605,275.350313 201.56172,278.332858 201.56172,282.012014 C201.56172,285.69117 204.540605,288.673715 208.215245,288.673715 L225.603124,288.673715 C229.070509,319.876954 255.992975,343.117788 287.328827,341.958465 C318.66468,340.799142 343.800616,315.632318 344.958516,284.25796 C346.116416,252.883601 322.904106,225.928052 291.739163,222.456406 L291.739163,222.456406 Z M285.085638,328.643922 C259.363155,328.643922 238.510963,307.766105 238.510963,282.012014 C238.510963,256.257922 259.363155,235.380106 285.085638,235.380106 C310.808121,235.380106 331.660314,256.257922 331.660314,282.012014 C331.635861,307.755957 310.797986,328.619438 285.085638,328.643922 L285.085638,328.643922 Z M183.06492,66.6170111 C186.73956,66.617011 189.718445,63.6344658 189.718445,59.95531 C189.718445,56.2761542 186.73956,53.2936091 183.06492,53.2936089 L160.886503,53.2936089 C157.211863,53.2936089 154.232978,56.2761541 154.232978,59.95531 C154.232978,63.6344659 157.211863,66.6170111 160.886503,66.6170111 L183.06492,66.6170111 Z M63.3014686,150.73209 C59.6268282,150.73209 56.6479435,153.714636 56.6479435,157.393792 L56.6479435,179.599462 C56.6479435,183.278618 59.6268282,186.261163 63.3014686,186.261163 C66.9761091,186.261163 69.9549937,183.278618 69.9549937,179.599462 L69.9549937,157.393792 C69.9549937,153.714636 66.9761091,150.73209 63.3014686,150.73209 L63.3014686,150.73209 Z M186.036828,275.350313 L163.858411,275.350313 C160.183771,275.350313 157.204886,278.332858 157.204886,282.012014 C157.204886,285.69117 160.183771,288.673715 163.858411,288.673715 L186.036828,288.673715 C189.711468,288.673715 192.690353,285.69117 192.690353,282.012014 C192.690353,278.332858 189.711468,275.350313 186.036828,275.350313 Z M141.679994,275.350313 L123.316265,275.350313 L97.1457329,229.961922 C95.9564333,227.899463 93.7579442,226.629545 91.3793445,226.631072 L69.2009275,226.631072 C69.5475815,225.816407 69.7285358,224.94072 69.7332095,224.055214 L69.7332095,201.849544 C69.7332095,198.170388 66.7543249,195.187843 63.0796845,195.187843 C59.405044,195.187843 56.4261594,198.170388 56.4261594,201.849544 L56.4261594,224.055214 C56.4308331,224.94072 56.6117874,225.816407 56.9584414,226.631072 L34.7800244,226.631072 C32.4014247,226.629545 30.2029357,227.899463 29.013636,229.961922 L0.891403337,278.814397 C-0.297134446,280.875535 -0.297134446,283.414961 0.891403337,285.476098 L29.013636,334.328573 C30.2029357,336.391033 32.4014247,337.660951 34.7800244,337.659424 L91.2906308,337.659424 C93.6692306,337.660951 95.8677196,336.391033 97.0570192,334.328573 L123.227551,288.940183 L141.546924,288.940183 C145.221564,288.940183 148.200449,285.957638 148.200449,282.278482 C148.200449,278.599326 145.221564,275.616781 141.546924,275.616781 L141.679994,275.350313 Z M87.5646568,324.202787 L39.0382805,324.202787 L14.7750923,282.145248 L39.0382805,240.087708 L87.5646568,240.087708 L111.827845,282.145248 L87.5646568,324.202787 Z M285.085638,190.968765 C288.760279,190.968765 291.739163,187.98622 291.739163,184.307064 L291.739163,162.101394 C291.739163,158.422238 288.760279,155.439693 285.085638,155.439693 C281.410998,155.439693 278.432113,158.422238 278.432113,162.101394 L278.432113,184.307064 C278.432113,187.98622 281.410998,190.968765 285.085638,190.968765 L285.085638,190.968765 Z"></path>
            </g>
        </g>
    </g>
</svg>