<?xml version="1.0" encoding="UTF-8"?>
<svg width="500px" height="500px" viewBox="0 0 500 500" version="1.1" xmlns="http://www.w3.org/2000/svg" xmlns:xlink="http://www.w3.org/1999/xlink">
    <!-- Generator: Sketch 46.1 (44463) - http://www.bohemiancoding.com/sketch -->
    <title>arrays</title>
    <desc>Created with Sketch.</desc>
    <defs></defs>
    <g id="Page-1" stroke="none" stroke-width="1" fill="none" fill-rule="evenodd">
        <g id="arrays" fill-rule="nonzero" fill="#000000">
            <g transform="translate(103.000000, 103.000000)" id="Shape">
                <path d="M119.847982,0 L9.20913151,0 C4.12728312,0.0101603404 0.0101603404,4.12728312 0,9.20913151 L0,119.847982 C0.0101603404,124.929831 4.12728312,129.046953 9.20913151,129.057114 L119.847982,129.057114 C124.924939,129.035197 129.035197,124.924939 129.057114,119.847982 L129.057114,9.20913151 C129.038545,4.1307797 124.926334,0.0185681999 119.847982,0 Z M285.790868,8.1157924e-16 L175.152018,8.1157924e-16 C170.070169,0.0101603404 165.953047,4.12728312 165.942886,9.20913151 L165.942886,119.847982 C165.953047,124.929831 170.070169,129.046953 175.152018,129.057114 L285.790868,129.057114 C290.866433,129.031857 294.974744,124.923547 295,119.847982 L295,9.20913151 C294.98647,4.12868343 290.871317,0.0135298937 285.790868,8.1157924e-16 Z M119.847982,165.942886 L9.20913151,165.942886 C4.12728312,165.953047 0.0101603404,170.070169 0,175.152018 L0,285.790868 C0.0101603404,290.872717 4.12728312,294.98984 9.20913151,295 L119.847982,295 C124.924939,294.978084 129.035197,290.867826 129.057114,285.790868 L129.057114,175.152018 C129.035197,170.075061 124.924939,165.964803 119.847982,165.942886 Z M285.790868,165.942886 L175.152018,165.942886 C170.070169,165.953047 165.953047,170.070169 165.942886,175.152018 L165.942886,285.790868 C165.953047,290.872717 170.070169,294.98984 175.152018,295 L285.790868,295 C290.866433,294.974744 294.974744,290.866433 295,285.790868 L295,175.152018 C294.981432,170.073666 290.86922,165.961455 285.790868,165.942886 Z"></path>
            </g>
        </g>
    </g>
</svg>