<?xml version="1.0" encoding="UTF-8"?>
<svg width="500px" height="500px" viewBox="0 0 500 500" version="1.1" xmlns="http://www.w3.org/2000/svg" xmlns:xlink="http://www.w3.org/1999/xlink">
    <!-- Generator: Sketch 46.1 (44463) - http://www.bohemiancoding.com/sketch -->
    <title>c</title>
    <desc>Created with Sketch.</desc>
    <defs></defs>
    <g id="Page-1" stroke="none" stroke-width="1" fill="none" fill-rule="evenodd">
        <g id="c" fill-rule="nonzero" fill="#000000">
            <g transform="translate(116.000000, 104.000000)" id="Shape">
                <path d="M182.727273,0 L0,0 L0,292 L243.636364,292 L243.636364,243.333333 L268,243.333333 L268,109.5 L243.636364,109.5 L243.636364,60.8333333 L182.727273,0 Z M231.454545,279.833333 L12.1818182,279.833333 L12.1818182,12.1666667 L182.727273,12.1666667 L182.727273,60.8333333 L231.454545,60.8333333 L231.454545,109.5 L36.5454545,109.5 L36.5454545,243.333333 L231.454545,243.333333 L231.454545,279.833333 Z M255.818182,121.666667 L255.818182,231.166667 L48.7272727,231.166667 L48.7272727,121.666667 L255.818182,121.666667 Z"></path>
                <path d="M73,195.8 L85.1666667,195.8 L85.1666667,208 L73,208 L73,195.8 Z M97.3333333,208 L146,208 L146,195.8 L109.5,195.8 L109.5,159.2 L146,159.2 L146,147 L97.3333333,147 L97.3333333,208 Z"></path>
            </g>
        </g>
    </g>
</svg>