<?xml version="1.0" encoding="UTF-8"?>
<svg width="500px" height="500px" viewBox="0 0 500 500" version="1.1" xmlns="http://www.w3.org/2000/svg" xmlns:xlink="http://www.w3.org/1999/xlink">
    <!-- Generator: Sketch 46.1 (44463) - http://www.bohemiancoding.com/sketch -->
    <title>celebration</title>
    <desc>Created with Sketch.</desc>
    <defs></defs>
    <g id="Page-1" stroke="none" stroke-width="1" fill="none" fill-rule="evenodd">
        <g id="celebration" fill-rule="nonzero" fill="#000000">
            <g transform="translate(89.000000, 89.000000)" id="Shape">
                <path d="M153.745098,89.3176471 C157.823529,85.2392157 160.270588,79.5294118 160.270588,73.4117647 C160.270588,67.2941176 157.823529,61.5843137 153.745098,57.5058824 C149.666667,53.427451 143.956863,50.9803922 137.839216,50.9803922 C131.721569,50.9803922 126.011765,53.427451 121.933333,57.5058824 C117.854902,61.5843137 115.407843,67.2941176 115.407843,73.4117647 C115.407843,79.5294118 117.854902,85.2392157 121.933333,89.3176471 C126.011765,93.3960784 131.721569,95.8431373 137.839216,95.8431373 C143.956863,95.8431373 149.666667,93.8039216 153.745098,89.3176471 Z M127.643137,73.4117647 C127.643137,70.5568627 128.866667,68.1098039 130.498039,66.0705882 C132.537255,64.0313725 134.984314,63.2156863 137.839216,63.2156863 C140.694118,63.2156863 143.141176,64.4392157 145.180392,66.0705882 C147.219608,67.7019608 148.035294,70.5568627 148.035294,73.4117647 C148.035294,76.2666667 146.811765,78.7137255 145.180392,80.7529412 C141.509804,84.4235294 134.576471,84.4235294 130.905882,80.7529412 C128.866667,78.7137255 127.643137,76.2666667 127.643137,73.4117647 Z M96.2392157,104.407843 C92.9764706,103.184314 89.7137255,104.815686 88.4901961,108.078431 L11.4078431,303.843137 C10.5921569,306.290196 11,308.737255 12.6313725,310.368627 C13.854902,311.592157 15.4862745,312 17.1176471,312 C17.9333333,312 18.7490196,312 19.1568627,311.592157 L215.329412,234.509804 C218.592157,233.286275 219.815686,230.023529 219,226.760784 C198.607843,169.254902 154.152941,124.392157 96.2392157,104.407843 Z M28.1294118,295.278431 L97.8705882,117.866667 C147.627451,137.035294 186.372549,175.780392 205.541176,225.537255 L28.1294118,295.278431 Z M161.086275,5.70980392 C179.847059,42.4156863 180.254902,86.054902 161.901961,122.760784 L172.913725,128.062745 C192.898039,87.6862745 192.490196,39.9686275 172.098039,0 L161.086275,5.70980392 Z M98.6862745,88.0941176 C104.803922,65.6627451 99.9098039,41.6 85.6352941,23.2470588 L75.8470588,30.9960784 C87.6745098,46.0862745 91.7529412,66.4784314 86.8588235,84.8313725 L98.6862745,88.0941176 Z M194.937255,150.494118 L200.239216,161.505882 C236.945098,143.152941 280.992157,143.560784 317.290196,162.321569 L323,151.309804 C283.031373,130.917647 235.313725,130.509804 194.937255,150.494118 L194.937255,150.494118 Z M235.313725,224.721569 L238.576471,236.54902 C257.337255,231.247059 277.321569,235.32549 292.411765,247.560784 L300.160784,237.772549 C282.215686,223.498039 257.745098,218.603922 235.313725,224.721569 Z M303.015686,34.2588235 C302.2,32.2196078 299.752941,30.5882353 297.713725,30.5882353 L281.4,30.5882353 L272.427451,17.1294118 C271.203922,15.0901961 268.756863,14.2745098 266.717647,14.2745098 C264.270588,14.6823529 262.639216,15.9058824 261.823529,18.3529412 L256.113725,33.8509804 L240.207843,38.3372549 C238.168627,39.1529412 236.129412,40.7843137 235.721569,43.2313725 C235.313725,45.6784314 236.129412,47.7176471 238.168627,49.3490196 L250.811765,59.1372549 L249.588235,75.4509804 C249.588235,77.8980392 250.811765,79.9372549 252.85098,81.1607843 C253.666667,81.5686275 254.890196,81.9764706 255.705882,81.9764706 C256.929412,81.9764706 258.152941,81.5686275 259.376471,80.7529412 L273.243137,71.372549 L288.333333,77.0823529 C290.372549,77.8980392 292.819608,77.4901961 294.45098,75.8588235 C296.082353,74.227451 296.898039,71.7803922 296.082353,69.7411765 L291.596078,53.8352941 L302.2,40.7843137 C303.423529,38.745098 303.831373,36.2980392 303.015686,34.2588235 Z M278.952941,53.8352941 L280.992157,61.1764706 L274.058824,58.7294118 C272.019608,57.9137255 269.980392,58.3215686 268.34902,59.545098 L262.639216,63.6235294 L263.047059,56.6901961 C263.047059,54.6509804 262.231373,52.6117647 260.6,51.3882353 L254.890196,47.3098039 L262.231373,45.2705882 C264.270588,44.8627451 265.494118,43.2313725 266.309804,41.6 L268.756863,34.6666667 L272.427451,40.3764706 C273.65098,42.0078431 275.282353,43.2313725 277.729412,43.2313725 L284.662745,43.2313725 L280.176471,48.9411765 C278.545098,49.7568627 278.137255,51.7960784 278.952941,53.8352941 L278.952941,53.8352941 Z M222.670588,123.168627 C228.788235,123.168627 234.498039,120.721569 238.576471,116.643137 C242.654902,112.564706 245.101961,106.854902 245.101961,100.737255 C245.101961,94.6196078 242.654902,88.9098039 238.576471,84.8313725 C234.498039,80.7529412 228.788235,78.3058824 222.670588,78.3058824 C216.552941,78.3058824 210.843137,80.7529412 206.764706,84.8313725 C202.686275,88.9098039 200.239216,94.6196078 200.239216,100.737255 C200.239216,106.854902 202.686275,112.564706 206.764706,116.643137 C211.25098,120.721569 216.552941,123.168627 222.670588,123.168627 Z M215.737255,93.3960784 C217.776471,91.3568627 220.223529,90.5411765 223.078431,90.5411765 C225.933333,90.5411765 228.380392,91.7647059 230.419608,93.3960784 C232.458824,95.027451 233.27451,97.8823529 233.27451,100.737255 C233.27451,103.592157 232.05098,106.039216 230.419608,108.078431 C226.74902,111.74902 219.815686,111.74902 216.145098,108.078431 C214.105882,106.039216 213.290196,103.592157 213.290196,100.737255 C213.290196,97.8823529 213.698039,95.4352941 215.737255,93.3960784 L215.737255,93.3960784 Z"></path>
                <path d="M230.800514,167.767654 C226.73221,171.841994 224.291227,177.54607 224.291227,183.65758 C224.291227,189.769089 226.73221,195.473165 230.800514,199.547505 C234.868819,203.621844 240.564446,206.066448 246.666904,206.066448 C252.769361,206.066448 258.464988,203.621844 262.533293,199.547505 C266.601598,195.473165 269.042581,189.769089 269.042581,183.65758 C269.042581,177.54607 266.601598,171.841994 262.533293,167.767654 C253.583022,159.211541 239.750785,159.211541 230.800514,167.767654 L230.800514,167.767654 Z M253.989852,190.991391 C250.328378,194.658297 243.41226,194.658297 239.750785,190.991391 C237.716633,188.954221 236.902972,186.509617 236.902972,183.65758 C236.902972,180.805542 238.123463,178.360938 239.750785,176.323768 C241.784938,174.286598 244.225921,173.47173 247.073734,173.47173 C249.514717,173.47173 252.36253,174.286598 254.396683,176.323768 C256.430835,178.360938 257.244496,180.805542 257.244496,183.65758 C257.244496,186.509617 255.617174,188.954221 253.989852,190.991391 Z M30.2330825,116.430973 C31.453574,118.060709 33.4877264,119.283011 35.5218789,119.283011 L36.3355399,119.283011 C38.7765228,118.875577 40.8106753,117.653275 41.6243362,115.208671 L47.3199631,99.7261801 L63.1863522,95.2444063 C65.2205047,94.4295384 67.2546571,92.7998025 67.6614876,90.3551986 C68.0683181,87.9105947 67.2546571,85.8734248 65.2205047,84.2436889 L52.6087595,74.8727074 L53.829251,58.5753483 C53.829251,56.1307444 53.01559,54.0935745 50.9814375,52.8712726 C48.9472851,51.6489707 46.5063021,51.6489707 44.4721497,53.2787066 L30.639913,62.6496881 L15.5871848,56.9456124 C13.5530324,56.1307444 11.1120494,56.5381784 9.48472747,58.1679143 C7.85740551,59.7976502 7.04374452,62.2422541 7.85740551,64.279424 L11.9257104,79.7619152 L1.34811765,92.7998025 C-0.279204308,94.4295384 -0.279204308,97.2815762 0.534456673,99.3187461 C1.34811765,101.355916 3.7891006,102.985652 5.82325305,102.985652 L22.0964727,102.985652 L30.2330825,116.430973 L30.2330825,116.430973 Z M24.1306251,79.7619152 L22.0964727,72.4281036 L29.012591,74.8727074 C31.0467435,75.6875754 33.0808959,75.2801414 34.7082179,74.0578395 L40.4038448,69.9834997 L39.9970143,76.9098773 C39.9970143,78.9470472 40.8106753,80.9842171 42.4379972,82.206519 L48.1336241,86.2808588 L40.8106753,88.3180287 C38.7765228,88.7254627 37.5560313,90.3551986 36.7423703,91.9849345 L33.8945569,98.9113121 L30.2330825,93.2072364 C29.012591,91.5775005 27.3852691,90.3551986 25.3511166,90.3551986 L18.4349983,90.3551986 L22.9101337,84.6511229 C24.1306251,83.8362549 24.9442861,81.799085 24.1306251,79.7619152 L24.1306251,79.7619152 Z M207.204346,281.849168 C205.170193,282.664036 203.542872,284.701206 203.136041,287.14581 C202.729211,289.590414 203.949702,291.627584 205.983854,292.849886 L219.816091,301.405999 L220.222922,317.295924 C220.222922,319.740528 221.850244,321.777698 223.884396,322.592566 C224.698057,323 225.511718,323 226.325379,323 C227.54587,323 229.173192,322.592566 229.986853,321.777698 L243.005429,311.184415 L259.278649,315.258754 C261.312801,315.666188 263.753784,315.258754 265.381106,313.221585 C267.008428,311.591849 267.415259,309.147245 266.601598,306.702641 L260.49914,292.035018 L269.856242,278.589696 C271.076733,276.552527 271.483563,274.107923 270.263072,272.070753 C269.042581,270.033583 267.008428,268.811281 264.567445,268.811281 L247.887395,270.848451 L237.716633,258.217998 C236.089311,256.588262 234.055158,255.773394 231.614175,256.180828 C229.173192,256.588262 227.54587,258.217998 227.13904,260.662601 L223.070735,276.145093 L207.204346,281.849168 L207.204346,281.849168 Z M229.986853,286.738376 C232.021006,285.923508 233.241497,284.701206 233.648328,282.664036 L235.68248,275.330225 L240.157616,281.0343 C241.378107,282.664036 243.41226,283.478904 245.446412,283.07147 L252.36253,282.664036 L248.294226,288.368112 C247.073734,289.997848 247.073734,292.442452 247.480565,294.072188 L249.921547,300.591131 L242.598599,298.553961 C240.564446,298.146527 238.530294,298.553961 237.309802,299.776263 L231.614175,304.665471 L231.207345,297.739093 C231.207345,295.701923 229.986853,293.664754 228.359531,292.849886 L222.663905,289.18298 L229.986853,286.738376 Z"></path>
            </g>
        </g>
    </g>
</svg>