<?xml version="1.0" encoding="UTF-8"?>
<svg width="500px" height="500px" viewBox="0 0 500 500" version="1.1" xmlns="http://www.w3.org/2000/svg" xmlns:xlink="http://www.w3.org/1999/xlink">
    <!-- Generator: Sketch 46.1 (44463) - http://www.bohemiancoding.com/sketch -->
    <title>dataStructures</title>
    <desc>Created with Sketch.</desc>
    <defs></defs>
    <g id="Page-1" stroke="none" stroke-width="1" fill="none" fill-rule="evenodd">
        <g id="dataStructures" fill-rule="nonzero" fill="#000000">
            <g transform="translate(99.000000, 87.000000)" id="Shape">
                <path d="M262.766605,168.903798 C255.499117,168.903798 248.709995,170.923228 242.870246,174.380904 L219.062324,150.581793 C226.332648,143.258883 230.41077,133.358917 230.406965,123.041771 C230.406965,101.42026 212.810445,83.830253 191.180929,83.830253 C183.596983,83.830253 176.535561,86.0262451 170.530224,89.7671564 L146.73702,65.982759 C153.571041,58.7426676 157.37924,49.1658231 157.38251,39.2115181 C157.38251,17.5900074 139.78599,0 118.156474,0 C96.5269584,0 78.9304383,17.5900074 78.9304383,39.2115181 C78.9304383,49.2571706 82.7610484,58.4016203 88.9945291,65.3463995 L65.0210184,89.3110374 C59.0027457,85.7289411 52.1289815,83.8367187 45.1246604,83.8339314 C23.4951444,83.8339314 5.89862436,101.423939 5.89862436,123.045449 C5.89862436,144.66696 23.4951444,162.256967 45.1246604,162.256967 C66.7541763,162.256967 84.3506963,144.66696 84.3506963,123.045449 C84.3506963,112.683456 80.2772234,103.270485 73.6868078,96.2521382 L97.4763315,72.4714192 C103.673403,76.3586045 110.840391,78.4224938 118.156474,78.4267145 C125.17084,78.4235666 132.05406,76.5261074 138.07859,72.934895 L162.041062,96.8884977 C155.552594,104.05681 151.958209,113.378302 151.954893,123.045449 C151.954893,133.407443 156.024686,142.813057 162.615102,149.831404 L138.052832,174.384582 C132.03456,170.802486 125.160795,168.910264 118.156474,168.907476 C96.5269584,168.907476 78.9304383,186.497484 78.9304383,208.118994 C78.9304383,215.32126 80.9174983,222.056372 84.3212584,227.864532 L59.122394,253.05407 C53.1041214,249.471974 46.2303572,247.579751 39.226036,247.576964 C17.5965201,247.576964 0,265.166971 0,286.788482 C0,308.409993 17.5965201,326 39.226036,326 C60.8555519,326 78.452072,308.409993 78.452072,286.788482 C78.452072,276.42281 74.378599,267.013517 67.7881834,259.995171 L91.2318115,236.560219 C105.891566,250.535967 128.814364,250.9659 143.988254,237.549703 L166.438352,259.991492 C159.592387,267.234272 155.777075,276.820346 155.774464,286.784804 C155.774464,308.406314 173.370984,325.996322 195.0005,325.996322 C216.630015,325.996322 234.226536,308.406314 234.226536,286.784804 C234.226536,265.163293 216.630015,247.573285 195.0005,247.573285 C187.733012,247.573285 180.94757,249.592715 175.104142,253.050392 L151.200546,229.155643 C155.23559,222.879282 157.381396,215.576029 157.38251,208.115316 C157.38251,197.749645 153.309037,188.340352 146.718622,181.322005 L171.280891,156.772505 C183.226199,163.880883 198.055798,164.086948 210.194149,157.313226 L234.211817,181.322005 C227.366492,188.565194 223.551287,198.151002 223.547928,208.115316 C223.547928,229.736827 241.144448,247.326834 262.773964,247.326834 C284.40348,247.326834 302,229.736827 302,208.115316 C302,186.493805 284.39612,168.903798 262.766605,168.903798 L262.766605,168.903798 Z M45.1209806,147.543452 C31.605293,147.543452 20.6139075,136.556135 20.6139075,123.045449 C20.6139075,109.534764 31.605293,98.5474466 45.1209806,98.5474466 C58.6366683,98.5474466 69.6280538,109.534764 69.6280538,123.045449 C69.6280538,136.556135 58.6329885,147.543452 45.1209806,147.543452 L45.1209806,147.543452 Z M93.6420416,39.2151964 C93.6420416,25.7045111 104.633427,14.7171936 118.149115,14.7171936 C131.664802,14.7171936 142.656188,25.7045111 142.656188,39.2151964 C142.656188,52.7258818 131.664802,63.7131993 118.149115,63.7131993 C104.633427,63.7131993 93.6420416,52.7258818 93.6420416,39.2151964 Z M39.2223563,311.286485 C25.7066686,311.286485 14.7152831,300.299167 14.7152831,286.788482 C14.7152831,273.277797 25.7066686,262.290479 39.2223563,262.290479 C52.7380439,262.290479 63.7294294,273.277797 63.7294294,286.788482 C63.7294294,300.299167 52.7380439,311.286485 39.2223563,311.286485 Z M118.149115,232.616997 C104.633427,232.616997 93.6420416,221.62968 93.6420416,208.118994 C93.6420416,194.608309 104.633427,183.620992 118.149115,183.620992 C131.664802,183.620992 142.656188,194.608309 142.656188,208.118994 C142.656188,221.62968 131.664802,232.616997 118.149115,232.616997 Z M219.500213,286.784804 C219.500213,300.295489 208.508828,311.282806 194.99314,311.282806 C181.477452,311.282806 170.486067,300.295489 170.486067,286.784804 C170.486067,273.274118 181.477452,262.286801 194.99314,262.286801 C208.508828,262.286801 219.500213,273.274118 219.500213,286.784804 Z M166.670176,123.045449 C166.670176,109.534764 177.661561,98.5474466 191.177249,98.5474466 C204.692937,98.5474466 215.684322,109.534764 215.684322,123.045449 C215.684322,136.556135 204.692937,147.543452 191.177249,147.543452 C177.661561,147.543452 166.670176,136.556135 166.670176,123.045449 L166.670176,123.045449 Z M262.766605,232.616997 C249.250917,232.616997 238.259531,221.62968 238.259531,208.118994 C238.259531,194.608309 249.250917,183.620992 262.766605,183.620992 C276.282292,183.620992 287.273678,194.608309 287.273678,208.118994 C287.273678,221.62968 276.282292,232.616997 262.766605,232.616997 Z"></path>
            </g>
        </g>
    </g>
</svg>