<?xml version="1.0" encoding="UTF-8"?>
<svg width="500px" height="500px" viewBox="0 0 500 500" version="1.1" xmlns="http://www.w3.org/2000/svg" xmlns:xlink="http://www.w3.org/1999/xlink">
    <!-- Generator: Sketch 46.1 (44463) - http://www.bohemiancoding.com/sketch -->
    <title>http</title>
    <desc>Created with Sketch.</desc>
    <defs></defs>
    <g id="Page-1" stroke="none" stroke-width="1" fill="none" fill-rule="evenodd">
        <g id="http" fill-rule="nonzero" fill="#000000">
            <g transform="translate(67.000000, 94.000000)" id="Shape">
                <path d="M172,229.447059 L165.8125,208.435294 C168.0625,205.670588 169.75,201.8 169.75,198.482353 C169.75,189.635294 162.4375,183 154,183 C145,183 138.25,190.188235 138.25,198.482353 C138.25,202.352941 139.375,205.670588 142.1875,208.435294 L136,230 L172,230 L172,229.447059 Z M153.4375,190.741176 C157.375,190.741176 160.75,194.058824 160.75,197.929412 C160.75,200.141176 159.625,202.352941 157.9375,203.458824 L155.6875,205.117647 L160.1875,220.6 L146.125,220.6 L150.625,205.117647 L148.375,203.458824 C146.6875,201.8 145.5625,200.141176 145.5625,197.929412 C146.125,194.058824 149.5,190.741176 153.4375,190.741176 L153.4375,190.741176 Z"></path>
                <path d="M340.105344,0 L26.3343511,0 C11.7664122,0 0,11.7630162 0,26.8868941 L0,285.113106 C0,299.67684 11.7664122,312 26.3343511,312 L340.105344,312 C354.673282,312 367,300.236984 367,285.113106 L367,26.3267504 C367,11.7630162 354.673282,0 340.105344,0 Z M26.3343511,8.4021544 L340.105344,8.4021544 C350.19084,8.4021544 358.59542,16.8043088 358.59542,26.8868941 L358.59542,43.6912029 L8.40458015,43.6912029 L8.40458015,26.8868941 C8.40458015,16.2441652 16.248855,8.4021544 26.3343511,8.4021544 Z M340.105344,303.037702 L26.3343511,303.037702 C16.248855,303.037702 8.40458015,294.635548 8.40458015,284.552962 L8.40458015,51.5332136 L358.59542,51.5332136 L358.59542,285.113106 C358.59542,295.195691 350.19084,303.037702 340.105344,303.037702 Z"></path>
                <path d="M298.710018,22 L307.119508,22 L307.119508,30.3910891 L298.710018,30.3910891 L298.710018,22 Z M320.01406,22 L328.42355,22 L328.42355,30.3910891 L320.01406,30.3910891 L320.01406,22 Z M277.405975,22 L285.815466,22 L285.815466,30.3910891 L277.405975,30.3910891 L277.405975,22 Z M35.2126538,22 L251.056239,22 L251.056239,30.3910891 L35.2126538,30.3910891 L35.2126538,22 Z M24,141.153465 L123.792619,141.153465 C123.792619,142.272277 123.231986,142.831683 123.231986,143.950495 L123.231986,166.886139 L99.685413,166.886139 L99.685413,248 L205.644991,248 L205.644991,167.445545 L182.098418,167.445545 L182.098418,144.509901 C182.098418,143.391089 182.098418,142.831683 181.537786,141.712871 L209.56942,141.712871 L209.56942,69.549505 L24,69.549505 L24,141.153465 L24,141.153465 Z M197.796134,239.608911 L108.655536,239.608911 L108.655536,175.836634 L197.796134,175.836634 L197.796134,239.608911 Z M131.641476,167.445545 L131.641476,144.509901 C131.641476,132.762376 141.172232,123.252475 152.945518,123.252475 C164.718805,123.252475 174.249561,132.762376 174.249561,144.509901 L174.249561,167.445545 L131.641476,167.445545 Z M32.4094903,77.9405941 L202.281195,77.9405941 L202.281195,132.762376 L180.41652,132.762376 C175.931459,122.133663 165.279438,114.30198 152.945518,114.30198 C140.611599,114.30198 129.959578,122.133663 125.474517,132.762376 L32.4094903,132.762376 L32.4094903,77.9405941 Z M223.024605,141.153465 L343,141.153465 L343,69.549505 L223.024605,69.549505 L223.024605,141.153465 L223.024605,141.153465 Z M231.434095,77.9405941 L334.59051,77.9405941 L334.59051,132.762376 L231.434095,132.762376 L231.434095,77.9405941 Z"></path>
                <path d="M294.808853,99.9164345 C294.808853,90.3983287 286.949698,82 276.84507,82 C267.301811,82 258.881288,89.8384401 258.881288,99.9164345 C258.881288,109.994429 266.740443,117.832869 276.84507,117.832869 C280.21328,117.832869 283.581489,116.713092 285.826962,115.033426 L299.299799,128.470752 L305.474849,122.311978 L292.002012,108.874652 C293.686117,106.635097 294.808853,103.275766 294.808853,99.9164345 L294.808853,99.9164345 Z M276.84507,109.43454 C271.792757,109.43454 267.301811,105.51532 267.301811,99.9164345 C267.301811,94.8774373 271.231388,90.3983287 276.84507,90.3983287 C281.897384,90.3983287 286.38833,94.3175487 286.38833,99.9164345 C286.38833,104.955432 281.897384,109.43454 276.84507,109.43454 Z M257.197183,216.373259 L278.529175,283 L289.195171,253.885794 L308.28169,272.922006 L314.45674,266.763231 L294.808853,248.286908 L324,237.649025 L257.197183,216.373259 Z M279.090543,257.245125 L270.108652,229.250696 L297.615694,238.208914 L283.581489,243.247911 L279.090543,257.245125 Z M63.1714889,120.934652 L80.2426962,86.8822284 L87.7762575,90.6334819 L70.7050503,124.691504 L63.1714889,120.934652 Z M83.9028169,120.873064 L100.974024,86.8206407 L108.507586,90.5718942 L91.4363783,124.624318 L83.9028169,120.873064 Z M45,92.0779944 L53.4205231,92.0779944 L53.4205231,100.476323 L45,100.476323 L45,92.0779944 Z M45,109.994429 L53.4205231,109.994429 L53.4205231,118.392758 L45,118.392758 L45,109.994429 Z"></path>
            </g>
        </g>
    </g>
</svg>