<?xml version="1.0" encoding="UTF-8"?>
<svg width="500px" height="500px" viewBox="0 0 500 500" version="1.1" xmlns="http://www.w3.org/2000/svg" xmlns:xlink="http://www.w3.org/1999/xlink">
    <!-- Generator: Sketch 46.1 (44463) - http://www.bohemiancoding.com/sketch -->
    <title>javascript</title>
    <desc>Created with Sketch.</desc>
    <defs></defs>
    <g id="Page-1" stroke="none" stroke-width="1" fill="none" fill-rule="evenodd">
        <g id="javascript" fill="#000000">
            <g transform="translate(88.000000, 88.000000)" id="Shape">
                <path d="M10.8333333,314.166667 L314.166667,314.166667 L314.166667,10.8333333 L10.8333333,10.8333333 L10.8333333,314.166667 Z M319.583333,325 L5.41666667,325 C2.42512427,325 3.66358282e-16,322.574876 0,319.583333 L0,5.41666667 C-3.66358282e-16,2.42512427 2.42512427,5.49537423e-16 5.41666667,0 L319.583333,0 C322.574876,1.83179141e-16 325,2.42512427 325,5.41666667 L325,319.583333 C325,322.574876 322.574876,325 319.583333,325 Z"></path>
                <path d="M249.307692,298 C222.45659,298 200.615385,276.147294 200.615385,249.294118 C200.615385,246.305283 203.037639,243.882353 206.025641,243.882353 C209.013643,243.882353 211.435897,246.305283 211.435897,249.294118 C211.435897,270.183529 228.429513,287.176471 249.307692,287.176471 C270.185872,287.176471 287.179487,270.183529 287.179487,249.294118 C287.179487,228.404706 270.185872,211.411765 249.307692,211.411765 C222.45659,211.411765 200.615385,189.559059 200.615385,162.705882 C200.615385,135.852706 222.45659,114 249.307692,114 C276.158795,114 298,135.852706 298,162.705882 C298,165.694717 295.577746,168.117647 292.589744,168.117647 C289.601741,168.117647 287.179487,165.694717 287.179487,162.705882 C287.179487,141.816471 270.185872,124.823529 249.307692,124.823529 C228.429513,124.823529 211.435897,141.816471 211.435897,162.705882 C211.435897,183.595294 228.429513,200.588235 249.307692,200.588235 C276.158795,200.588235 298,222.440941 298,249.294118 C298,276.147294 276.158795,298 249.307692,298 M135.692308,298 C108.841205,298 87,276.147294 87,249.294118 C87,246.305283 89.4222543,243.882353 92.4102564,243.882353 C95.3982585,243.882353 97.8205128,246.305283 97.8205128,249.294118 C97.8205128,270.183529 114.814128,287.176471 135.692308,287.176471 C156.570487,287.176471 173.564103,270.183529 173.564103,249.294118 L173.564103,119.411765 C173.564103,116.42293 175.986357,114 178.974359,114 C181.962361,114 184.384615,116.42293 184.384615,119.411765 L184.384615,249.294118 C184.384615,276.147294 162.54341,298 135.692308,298"></path>
            </g>
        </g>
    </g>
</svg>