<?xml version="1.0" encoding="UTF-8"?>
<svg width="500px" height="500px" viewBox="0 0 500 500" version="1.1" xmlns="http://www.w3.org/2000/svg" xmlns:xlink="http://www.w3.org/1999/xlink">
    <!-- Generator: Sketch 46.1 (44463) - http://www.bohemiancoding.com/sketch -->
    <title>machineLearning</title>
    <desc>Created with Sketch.</desc>
    <defs></defs>
    <g id="Page-1" stroke="none" stroke-width="1" fill="none" fill-rule="evenodd">
        <g id="machineLearning" fill-rule="nonzero" fill="#000000">
            <g transform="translate(133.000000, 72.000000)" id="Shape">
                <path d="M172.261531,45.9450008 C164.220767,45.9576584 157.395357,51.8415586 156.19946,59.7914393 L80.0939645,59.7914393 L80.0939645,19.8354166 L112.090239,19.8354166 C113.854805,27.9865671 121.493302,33.4875843 129.785045,32.5786858 C138.076788,31.6697873 144.341738,24.6447454 144.297987,16.3049682 C144.297987,11.9806217 142.579831,7.83338929 139.521493,4.77561461 C136.463156,1.71783993 132.31516,-1.74689033e-14 127.990018,0 C119.541088,0.0150061913 112.512526,6.49941451 111.819751,14.9183575 L77.6349824,14.9183575 C76.2780465,14.9210627 75.1787061,16.0202008 75.1760003,17.3768871 L75.1760003,96.9791577 C75.1760003,97.1266695 75.2350159,97.2545131 75.2596057,97.3921907 C71.4924452,99.0541567 67.9564289,100.93739 64.6712289,103.027141 C64.1253348,103.381169 63.6237025,103.774534 63.0974803,104.133479 L63.7614055,103.759782 L64.2532019,103.568017 C63.7697125,103.791783 63.2985529,104.041272 62.8417462,104.31541 L63.1023983,104.133479 L62.8122384,104.295742 L62.5614222,104.458005 L62.5024067,104.487507 L62.320442,104.610434 L61.8778252,104.974296 L62.0794617,104.831701 C62.0118054,104.880262 61.9445905,104.929435 61.8778252,104.979213 C61.0122635,105.584011 60.1122761,106.159307 59.2762222,106.793608 C53.0703266,111.529709 47.5492634,117.101052 42.8698937,123.349346 C29.0651683,141.635889 23.468525,162.877585 21.6980579,175.720943 L21.688222,175.853704 C21.545601,177.59926 21.4669136,179.310396 21.3734723,181.041201 L21.2849489,181.483736 L21.3341286,181.724672 C21.1239129,185.462962 21.0124002,189.206147 20.999707,192.950318 C20.999707,196.982307 21.1521639,200.911037 21.3833082,204.790597 C21.4029801,205.242966 21.4324879,205.685502 21.4619956,206.132954 C21.7671475,210.813662 22.2313435,215.482647 22.8537795,220.131821 C24.3781126,231.311397 26.8828075,242.335292 30.338921,253.076118 C33.8268009,263.885094 38.2739387,274.360767 43.6272602,284.378116 L16.3079692,284.378116 C15.6550046,284.375489 15.028025,284.633668 14.5663056,285.095303 C14.1045862,285.556937 13.8463595,286.183801 13.8489871,286.836646 L13.8489871,323.640834 C5.89840737,324.834279 0.0130001744,331.656836 0,339.695032 C-1.74721186e-14,348.700017 7.30132651,356 16.3079692,356 C25.3146119,356 32.6159384,348.700017 32.6159384,339.695032 C32.6025708,331.65523 26.7145663,324.832086 18.7620333,323.640834 L18.7620333,289.295175 L44.2518416,289.295175 C44.9051565,289.295037 45.5315607,289.034968 45.9928009,288.572368 C46.941968,290.244168 47.8763812,291.970056 48.8403022,293.553349 L49.002595,293.833621 C50.241922,295.869284 51.4910849,297.855775 52.7402478,299.748843 C68.6105182,323.783428 84.4758706,336.076076 84.6184915,336.189169 L84.6676712,336.228505 C91.6908457,341.400354 100.684187,343.100911 109.111344,340.850576 C117.538501,338.600241 124.486171,332.642896 127.994936,324.658665 C131.500812,332.645609 138.448567,338.605607 146.877003,340.856283 C155.305438,343.10696 164.300176,341.404145 171.3222,336.228505 L171.37138,336.189169 C171.518918,336.076076 187.379353,323.783428 203.254541,299.748843 C204.503704,297.855775 205.743031,295.869284 206.987276,293.833621 L207.149569,293.553349 C223.239756,267.069524 232.638196,237.06688 234.532793,206.137871 L234.616399,204.795514 C234.85971,200.853338 234.987632,196.90489 235,192.955235 C235,189.287109 234.862297,185.530476 234.665578,181.729589 L234.714758,181.488653 L234.621317,181.046118 C234.522957,179.315313 234.449188,177.609094 234.311485,175.858621 L234.296731,175.72586 C232.531182,162.882502 226.934539,141.640806 213.124895,123.354263 C208.452668,117.101446 202.932551,111.529388 196.723485,106.798525 C195.892349,106.164224 194.982526,105.588928 194.121882,104.98413 C194.052605,104.935558 193.983751,104.886386 193.915327,104.836618 L194.121882,104.979213 L193.674347,104.615351 L193.492382,104.492424 L193.443203,104.462922 L193.182551,104.300659 L192.902227,104.138396 L193.157961,104.320327 C192.70059,104.030221 192.223548,103.804036 191.746505,103.572934 L192.243219,103.764699 L192.907145,104.138396 C192.371087,103.784368 191.874372,103.391003 191.32356,103.032058 C178.812259,95.0811729 162.922317,89.9035096 142.979972,89.9231779 C137.988239,89.9231779 133.576825,91.8654162 130.478507,95.0418364 C129.499833,96.0399994 128.70804,97.1856742 128.004771,98.3952708 C127.323121,97.1788017 126.492104,96.0522628 125.531035,95.0418364 C122.432718,91.8654162 118.026222,89.9231779 113.029571,89.9231779 C100.513352,89.9133437 89.5954713,91.9490062 80.1038004,95.4302841 L80.1038004,64.7134156 L156.209296,64.7134156 C157.399443,72.5462908 164.097711,78.5598541 172.271367,78.5598541 C180.445023,78.5598541 187.138373,72.5462908 188.333438,64.7134156 L201.779152,64.7134156 L201.852921,64.6986644 C203.04056,72.6573225 209.871683,78.5506173 217.91991,78.5598541 C223.746187,78.5598543 229.129888,75.452145 232.043026,70.4073702 C234.956165,65.3625954 234.956165,59.1471765 232.043026,54.1024018 C229.129888,49.057627 223.746187,45.9499176 217.91991,45.9499178 C209.873242,45.963338 203.044471,51.8546039 201.852921,59.8111076 L201.779152,59.7963564 L188.333438,59.7963564 C187.12943,51.8462198 180.303747,45.9635968 172.261531,45.9450008 L172.261531,45.9450008 Z M127.994936,4.91705916 C134.280971,4.92788584 139.374112,10.0200897 139.384941,16.3049682 C139.379517,22.5920893 134.283214,27.6874549 127.994936,27.6928772 C121.707779,27.6847505 116.613059,22.5909674 116.604931,16.3049682 C116.615759,10.0200897 121.7089,4.92788584 127.994936,4.91705916 Z M27.6979742,339.699949 C27.689846,345.985948 22.5951254,351.079731 16.3079692,351.087858 C10.020813,351.079731 4.92609237,345.985948 4.91796417,339.699949 C4.92607806,333.420497 10.0126167,328.330497 16.2932153,328.316957 L16.3079692,328.321874 L16.3227231,328.316957 C22.6044438,328.327797 27.6925613,333.419377 27.6979742,339.699949 L27.6979742,339.699949 Z M78.0972711,101.52252 C77.7038339,102.260079 77.3792483,103.041892 77.1185962,103.848289 C76.4420393,103.485974 75.7382808,103.176904 75.0137075,102.923882 C76.0268081,102.446928 77.0546626,101.97489 78.0972711,101.52252 L78.0972711,101.52252 Z M26.5865143,176.330658 C26.7979868,174.757199 27.1029006,172.996892 27.4619119,171.162829 C27.7422359,169.741799 28.0668215,168.25193 28.4307509,166.693222 C28.8733677,165.817986 29.4192617,164.972252 30.1520383,164.244527 C31.9168764,162.473279 34.3152557,161.47871 36.8158798,161.48114 C38.9453583,161.490974 41.0256571,162.238367 42.7666164,163.664314 L41.9649883,164.318283 C39.2729262,167.005956 37.7602137,170.653561 37.7602137,174.457259 C37.7602137,178.260957 39.2729262,181.908562 41.9649883,184.596235 C42.9421115,185.45743 44.4203208,185.411465 45.3420297,184.491225 C46.2637387,183.570986 46.3117986,182.093115 45.4518249,181.114957 C43.6783955,179.352148 42.6812232,176.955079 42.6812232,174.4548 C42.6812232,171.954522 43.6783955,169.557453 45.4518249,167.794644 C47.2152692,166.023721 49.6113371,165.027607 52.1107484,165.026339 C54.4812071,165.036174 56.8172401,165.921244 58.6516407,167.691385 L58.754918,167.814312 C59.7151501,168.774077 61.2716865,168.774077 62.2319186,167.814312 L62.2417546,167.804478 L62.2515905,167.794644 C63.2093963,166.831786 63.2093963,165.276223 62.2515905,164.313366 L62.1286414,164.210108 C60.4283496,162.456846 59.4745757,160.11251 59.4680228,157.670419 C59.4812974,155.955987 59.9588614,154.277174 60.8499707,152.812364 C62.0942053,150.683998 64.1556965,149.157709 66.5548091,148.588611 L67.7646283,148.367343 L68.8908421,148.254251 C70.9170434,148.264085 72.894065,148.937722 74.5760087,150.21124 L75.5546836,151.017638 C76.5195362,151.949352 78.0532178,151.936027 79.0017303,150.987689 C79.9502428,150.039352 79.9635701,148.505952 79.0316842,147.541277 L77.7431776,146.484109 C81.0907628,140.885737 80.1854891,133.726055 75.5497656,129.136725 C74.584913,128.20501 73.0512313,128.218335 72.1027188,129.166673 C71.1542063,130.115011 71.1408791,131.64841 72.0727649,132.613085 C75.1441969,135.673397 75.7138267,140.441135 73.4497949,144.138672 C71.9822283,143.625717 70.4405174,143.356632 68.8859242,143.342109 C65.5265902,143.358485 62.2812506,144.561983 59.7237569,146.739796 L58.754918,147.53636 C57.8598485,148.421431 57.1713335,149.419594 56.556588,150.466927 C55.2620337,152.648286 54.569627,155.134044 54.5500586,157.670419 C54.5500586,158.575158 54.6484179,159.484814 54.8107107,160.379719 C52.242929,159.885097 49.5881231,160.114945 47.1436046,161.043521 L46.9616399,160.768166 C44.2739084,158.076534 40.624932,156.565549 36.8207978,156.568998 C34.7552528,156.559164 32.7290516,157.144294 30.8159635,158.058867 C31.5290683,155.821605 32.3159426,153.55484 33.2060941,151.219237 C38.8845319,155.372766 46.7459867,154.756418 51.7074753,149.768705 C54.5107149,146.975815 55.9123347,143.297855 55.9123347,139.629729 C55.9144769,135.827998 54.4033129,132.181703 51.7123933,129.49567 C50.7475406,128.563956 49.213859,128.57728 48.2653465,129.525618 C47.316834,130.473956 47.3035067,132.007356 48.2353926,132.972031 C50.0796292,134.815928 50.9943705,137.215453 50.9943705,139.629729 C50.9943705,142.048922 50.0796292,144.448447 48.2304746,146.292344 C46.4688215,148.064745 44.0707367,149.058155 41.5715511,149.050814 C39.2256822,149.050814 36.9339109,148.185412 35.1093462,146.469358 C38.0797966,139.698568 41.9010547,132.775348 46.7993471,126.309416 C49.6134513,122.596265 52.7324163,119.124259 56.1238071,115.929504 L56.0746275,116.455629 C56.0746275,119.425533 57.0434664,122.380685 58.8778671,124.888386 C57.2405078,127.268888 56.3595152,130.087889 56.3500335,132.976948 C56.3500335,136.63524 57.7614892,140.323034 60.5548929,143.115924 C61.5197455,144.047638 63.0534271,144.034313 64.0019396,143.085975 C64.9504521,142.137637 64.9637794,140.604238 64.0318935,139.639563 C62.2569517,137.87656 61.2588175,135.478435 61.2588175,132.976948 C61.2588175,130.475461 62.2569517,128.077335 64.0318935,126.314333 C65.7956812,124.542112 68.1951711,123.548853 70.695735,123.555862 L71.379332,123.624701 C73.9891046,125.98664 77.3803447,127.300153 80.9005106,127.312496 C82.5940544,127.303305 84.2725235,126.993644 85.8578185,126.397923 C85.4053658,127.809119 85.1201239,129.269485 85.1201239,130.739686 C85.1201239,133.70959 86.0889628,136.664742 87.9233635,139.172442 C86.2860042,141.552945 85.4050116,144.371945 85.3955299,147.261005 C85.3955299,150.314498 86.4332203,153.358158 88.3905701,155.924863 C87.3894033,157.692878 86.7774043,159.654268 86.5955131,161.677822 C84.1348197,159.796167 81.1262835,158.770483 78.0284196,158.757089 C75.5962392,158.770327 73.2083282,159.40868 71.0940901,160.61082 C70.1336178,159.861563 68.7666412,159.939361 67.8974134,160.792751 C67.1605592,161.537075 66.9787067,162.667515 67.4449607,163.605309 L67.8974134,164.269112 C68.7433032,165.114846 69.3678846,166.083507 69.8203374,167.11609 C70.3563954,168.325686 70.6563913,169.62379 70.6563913,170.936645 C70.6563913,173.355838 69.731814,175.750445 67.8924954,177.59926 C64.2681346,181.234275 58.3963006,181.286829 54.7074335,177.717269 L54.6041562,177.574674 C53.6439241,176.614909 52.0873877,176.614909 51.1271555,177.574674 L51.1173196,177.584509 L51.0976477,177.604177 C50.1377056,178.564232 50.1377056,180.120482 51.0976477,181.080538 L51.2304328,181.19363 C54.8078982,184.880021 54.7574926,190.756676 51.1173196,194.381183 C47.5145715,198.010731 41.6648136,198.076422 37.9814373,194.528694 L38.0945505,193.387937 C38.0812296,188.338769 35.4090546,183.669863 31.0618617,181.100206 L30.0340072,180.598666 C28.8942622,179.998532 27.6758013,179.561555 26.4143856,179.300562 C26.4684832,178.307316 26.497991,177.328821 26.5865143,176.330658 L26.5865143,176.330658 Z M104.393625,149.119653 C103.228538,148.797399 102.026991,148.625545 100.818266,148.608279 C97.4559213,148.625817 94.2083634,149.832975 91.6511803,152.015801 C90.7907521,150.574473 90.3306638,148.929664 90.318412,147.251171 C90.3265426,142.0495 94.5435182,137.8355 99.7461493,137.830085 C102.028085,137.830085 104.275594,138.675819 106.070651,140.318117 C104.873792,142.434218 104.235712,144.820232 104.216579,147.251171 C104.221497,147.880554 104.319856,148.495187 104.393625,149.119653 L104.393625,149.119653 Z M104.270676,133.704673 C102.800205,133.212967 101.275636,132.917943 99.7510673,132.917943 C96.7631015,132.924907 93.8532732,133.872879 91.4347899,135.627243 C89.1525936,131.926062 89.7210644,127.140786 92.8069019,124.077071 C94.5692995,122.305185 96.9664719,121.310383 99.4658254,121.313684 C101.757597,121.323518 104.005106,122.169252 105.800163,123.81155 C104.600273,125.926896 103.958822,128.312858 103.936255,130.744603 C103.931337,131.737849 104.059204,132.726178 104.270676,133.704673 L104.270676,133.704673 Z M91.970848,188.593804 C91.970848,189.951612 93.0717718,191.052334 94.4298301,191.052334 C95.7878884,191.052334 96.8888122,189.951612 96.8888122,188.593804 C96.8888122,184.684742 94.3167169,181.409981 90.7807007,180.27414 C90.8593881,179.802102 90.9725013,179.349733 91.1052863,178.90228 C91.3265947,178.385989 91.4790516,177.835279 91.6413444,177.299319 C93.5276813,173.047612 97.643,170.215882 102.288737,169.972901 C105.352628,172.873966 109.282082,174.373669 113.216453,174.363835 C117.439772,174.374625 121.492434,172.698275 124.473673,169.70738 L127.994936,166.712891 L131.516198,169.697546 C134.497437,172.688441 138.550099,174.364791 142.773418,174.354001 C146.707789,174.363835 150.642161,172.864132 153.701134,169.963067 C158.346491,170.207165 162.461281,173.038532 164.348527,177.289485 C164.51082,177.825444 164.658358,178.376155 164.889503,178.892446 C165.01737,179.344816 165.135401,179.797185 165.214088,180.264306 C161.583387,181.412935 159.111901,184.77656 159.101059,188.58397 C159.101059,189.941778 160.201983,191.042499 161.560041,191.042499 C162.918099,191.042499 164.019023,189.941778 164.019023,188.58397 C164.12279,186.530532 165.818272,184.918846 167.874707,184.918846 C169.931143,184.918846 171.626624,186.530532 171.730391,188.58397 C171.730391,189.941778 172.831315,191.042499 174.189373,191.042499 C175.547431,191.042499 176.648355,189.941778 176.648355,188.58397 C176.648355,185.196116 174.700841,182.295051 171.887766,180.819933 L171.29761,179.733263 C170.514647,178.944158 169.881441,178.019515 169.428784,177.004296 C169.241901,176.419165 169.07469,175.824201 168.823874,175.263657 C168.644018,174.544403 168.546671,173.80701 168.533714,173.065731 C168.538632,170.656372 169.453374,168.25193 171.29761,166.408033 C174.095078,163.586472 178.374808,162.849949 181.954838,164.57397 C180.95878,166.541334 180.430318,168.712004 180.410598,170.916976 C180.410598,174.575268 181.817135,178.263063 184.615457,181.055952 C185.589214,182.039364 186.705592,182.776923 187.861313,183.421058 C180.785977,184.38375 175.506019,190.418376 175.492634,197.557603 C175.487212,202.758478 171.271646,206.973268 166.069814,206.978688 C160.866062,206.975978 156.647502,202.760396 156.642077,197.557603 L156.597815,197.326501 L156.642077,197.095399 C156.643381,192.967118 155.004041,189.007474 152.084829,186.087877 C149.165617,183.16828 145.205762,181.52799 141.07672,181.52799 C136.965302,181.52799 133.257157,183.150619 130.473589,185.74191 L130.419492,185.74191 L128.108049,188.997003 L125.555625,185.74191 L125.501528,185.74191 C120.983293,181.491602 114.368637,180.33731 108.677466,182.806024 C102.986296,185.274738 99.3104477,190.89284 99.3281224,197.095399 L99.377302,197.326501 L99.3281224,197.557603 C99.3199984,202.757356 95.1060137,206.970566 89.905303,206.978688 C84.7018717,206.97328 80.4834854,202.760068 80.4726477,197.557603 C80.4595999,190.420007 75.1822702,184.385985 68.1088858,183.421058 C69.2977114,182.790846 70.3906493,181.994472 71.3547422,181.055952 C74.0463767,178.367986 75.5590379,174.720579 75.5596015,170.916976 C75.5596015,168.738719 75.0038716,166.575213 74.0153608,164.57397 C75.2841955,163.979006 76.6366357,163.649563 78.0185836,163.649563 C80.438222,163.649563 82.8332706,164.564136 84.6775071,166.408033 C86.5217437,168.25193 87.436485,170.656372 87.436485,173.065731 C87.436485,173.80329 87.3233718,174.545766 87.1463251,175.263657 C86.895509,175.819284 86.7332161,176.414248 86.5414155,177.004296 C86.0893802,178.018658 85.4579582,178.943129 84.6775071,179.733263 L84.0824335,180.819933 C81.1697248,182.315099 79.3350209,185.310409 79.3267621,188.58397 C79.3267621,189.941778 80.4276859,191.042499 81.7857442,191.042499 C83.1438025,191.042499 84.2447263,189.941778 84.2447263,188.58397 C84.2447263,186.4598 85.9758497,184.733913 88.0954922,184.733913 C90.2278208,184.739267 91.9573589,186.461904 91.970848,188.593804 L91.970848,188.593804 Z M149.909384,140.323034 C153.608224,136.904342 159.349312,137.023836 162.902645,140.593472 C164.746882,142.43737 165.666541,144.836895 165.666541,147.256088 C165.666541,148.918054 165.199335,150.550517 164.333773,152.020718 C161.775519,149.836431 158.525885,148.629148 155.16177,148.613196 C153.961786,148.613196 152.766721,148.814795 151.591328,149.12457 C151.670015,148.500104 151.768374,147.885471 151.768374,147.261005 C151.750529,144.827699 151.110592,142.439381 149.909384,140.323034 L149.909384,140.323034 Z M150.194626,123.801715 C151.918305,122.207869 154.176241,121.316789 156.524046,121.303849 C161.727472,121.311972 165.943659,125.527383 165.951783,130.729852 C165.942878,132.455529 165.461548,134.145828 164.559999,135.617409 C162.141502,133.866726 159.234444,132.919097 156.24864,132.908109 C154.714235,132.908109 153.199502,133.20805 151.724113,133.694838 C151.935585,132.716344 152.053616,131.728015 152.053616,130.724935 C152.030884,128.29696 151.391188,125.914615 150.194626,123.801715 L150.194626,123.801715 Z M186.641658,260.235356 C187.841642,261.430201 189.223589,262.320189 190.679307,263.008577 C184.793604,265.152165 180.887508,270.759382 180.917148,277.022196 L180.922066,277.100869 L179.790934,277.705667 C177.94178,279.554481 175.546731,280.469054 173.127093,280.469054 C170.707454,280.469054 168.312406,279.554481 166.468169,277.705667 C163.392641,274.636936 162.825058,269.859138 165.096057,266.155495 C167.516372,267.902605 170.42225,268.84985 173.407417,268.864795 C177.211551,268.868244 180.860527,267.357258 183.548259,264.665626 C184.509764,263.705656 184.510865,262.148135 183.550718,261.186807 C182.59057,260.225479 181.032763,260.224378 180.071258,261.184348 C178.306636,262.956533 175.908554,263.952802 173.407417,263.952802 C170.906279,263.952802 168.508198,262.956533 166.743575,261.184348 C163.071709,257.536792 163.047504,251.605349 166.689478,247.927957 L166.792755,247.859118 C168.115687,246.541346 169.09928,245.012141 169.797631,243.389511 L169.822221,243.419014 C173.193747,246.794104 178.02578,248.267419 182.707287,247.347744 C181.791462,252.030575 183.266424,256.862031 186.641658,260.235356 L186.641658,260.235356 Z M72.4416123,264.670543 C75.1293438,267.362175 78.7783201,268.873161 82.5824544,268.869712 C85.566577,268.857696 88.4717612,267.910116 90.8888959,266.160412 C93.1742307,269.860075 92.6076629,274.646488 89.5217018,277.710584 C87.6676293,279.559398 85.2774987,280.473971 82.8578604,280.473971 C80.438222,280.473971 78.0382555,279.559398 76.1940189,277.710584 L75.0628872,277.105786 L75.0727231,277.027113 C75.0719631,270.773802 71.1768114,265.182296 65.3105642,263.013494 C66.7613636,262.320189 68.1433116,261.435118 69.3432948,260.240273 C72.724881,256.872692 74.2026192,252.040031 73.2825841,247.357578 C77.9625072,248.275519 82.7922715,246.802334 86.1627323,243.428848 L86.1922401,243.399345 C86.885673,245.021975 87.8741838,246.556097 89.1971162,247.868952 L89.2954755,247.937791 C92.9374494,251.615184 92.9132439,257.546626 89.2413779,261.194182 C87.4782441,262.967285 85.0807338,263.964274 82.5799954,263.964274 C80.079257,263.964274 77.6817467,262.967285 75.9186129,261.194182 C74.9537603,260.262468 73.4200787,260.275793 72.4715662,261.224131 C71.5230537,262.172469 71.5097264,263.705868 72.4416123,264.670543 L72.4416123,264.670543 Z M59.2368785,185.078107 L58.5729533,185.432135 L58.5336096,185.009268 L59.2368785,185.078107 L59.2368785,185.078107 Z M25.9127532,192.955235 C25.9127532,190.113175 25.9816047,187.21211 26.1045538,184.291377 C30.2502885,185.363958 33.1513204,189.096633 33.1667504,193.378103 C33.1500209,197.638723 30.273905,201.357224 26.1537335,202.44516 C26.0008388,199.28411 25.9204909,196.11997 25.9127532,192.955235 L25.9127532,192.955235 Z M28.8832036,226.868192 C30.9979282,228.097457 33.4175665,228.849767 36.0388415,228.849767 C43.9587115,228.849771 50.3813185,222.434948 50.3894609,214.51654 C50.3894609,213.158731 49.2885371,212.05801 47.9304788,212.05801 C46.5724205,212.05801 45.4714967,213.158731 45.4714967,214.51654 C45.4579539,219.717084 41.240358,223.927308 36.0388415,223.932708 C32.436571,223.920342 29.1576146,221.852516 27.594697,218.607533 C27.1109687,214.895393 26.7354051,211.169963 26.4684832,207.435975 C30.8592121,206.575237 34.5927172,203.706919 36.5552277,199.686689 C38.2765152,200.817613 40.1945212,201.510918 42.1666248,201.830527 C40.765005,204.048121 39.9191152,206.649245 39.9191152,209.46672 C39.9191152,210.824528 41.020039,211.92525 42.3780973,211.92525 C43.7361556,211.92525 44.8370794,210.824528 44.8370794,209.46672 C44.847917,204.264255 49.0663034,200.051043 54.2697346,200.045635 C59.4704453,200.053757 63.68443,204.266966 63.692554,209.46672 C63.692554,210.824528 64.7934778,211.92525 66.1515361,211.92525 C67.5095944,211.92525 68.6105182,210.824528 68.6105182,209.46672 C68.6105182,202.484496 63.6040306,196.682366 56.9992048,195.408848 C58.0039467,191.169264 61.78395,188.17062 66.1417002,188.156186 C71.3435323,188.161606 75.5590981,192.376396 75.5645195,197.577271 C75.581793,201.907254 77.5646125,205.995162 80.9546082,208.689825 L81.2250963,209.093024 C83.0693328,210.936921 83.9840742,213.336446 83.9840742,215.755639 C83.9840742,218.169915 83.0693328,220.56944 81.2201783,222.413337 C77.7189044,225.937379 72.072355,226.107997 68.36462,222.801785 C67.8494479,219.93553 66.4677019,217.296108 64.4056588,215.239348 C63.4361995,214.345951 61.9345247,214.375989 61.0015822,215.307441 C60.0686396,216.238892 60.0364699,217.740247 60.9286581,218.710791 C62.7728947,220.554688 63.687636,222.944379 63.687636,225.368489 C63.687636,227.7926 62.7728947,230.187207 60.9286581,232.036022 C59.1625873,233.805429 56.7650086,234.799666 54.2648167,234.799409 C52.0918112,234.785223 49.9907923,234.018987 48.318998,232.630986 C47.7327438,231.610319 47.0188084,230.668494 46.1944375,229.828262 C45.2295848,228.896548 43.6959032,228.909872 42.7473907,229.85821 C41.7988782,230.806548 41.7855509,232.339948 42.7174368,233.304623 L43.4944751,234.253615 C43.5696667,234.728427 43.7874968,235.169152 44.1190566,235.517299 L44.4534782,235.792655 C45.1075674,237.110427 45.4714967,238.52654 45.4714967,239.972155 C45.4714967,242.391348 44.5469195,244.785956 42.7076009,246.63477 C40.5022167,248.843768 37.3432955,249.813013 34.2782103,249.221143 C32.0167053,241.889579 30.2148702,234.424096 28.8832036,226.868192 L28.8832036,226.868192 Z M58.9270467,300.014364 C59.6008078,300.112706 60.259815,300.20613 60.9335761,300.20613 C61.9515947,300.20613 62.9597773,300.009447 63.9581241,299.783263 C63.7321264,300.752362 63.6133819,301.743366 63.6040306,302.738415 C63.6040306,304.498722 63.9581241,306.165605 64.5433618,307.734147 C62.6139907,305.203024 60.7414185,302.629121 58.9270467,300.014364 L58.9270467,300.014364 Z M125.511364,313.11341 C125.516416,324.385277 117.605462,334.111989 106.567366,336.405519 L106.405073,336.366183 C101.205161,336.358054 96.9925873,332.144056 96.9871714,326.945097 C96.9979824,321.748378 101.207403,317.537534 106.405073,317.524012 C107.763131,317.524012 108.864055,316.423291 108.864055,315.065483 C108.864055,313.707674 107.763131,312.606953 106.405073,312.606953 C101.203243,312.598819 96.9898772,308.381829 96.9871714,303.180951 C96.9979824,297.984231 101.207403,293.773387 106.405073,293.759865 C107.763131,293.759865 108.864055,292.659144 108.864055,291.301336 C108.864055,289.943527 107.763131,288.842806 106.405073,288.842806 C103.188724,288.842806 100.2527,289.944227 97.8625691,291.724203 C97.3609191,289.683627 96.3196572,287.815475 94.847857,286.315438 C93.8830044,285.383723 92.3493228,285.397048 91.4008103,286.345386 C90.4522978,287.293724 90.4389705,288.827123 91.3708564,289.791798 C92.6888708,291.119404 93.347878,292.835458 93.347878,294.581014 C93.347878,296.32657 92.6937887,298.03279 91.3708564,299.360396 C90.047924,300.688002 88.3266365,301.337053 86.5758413,301.34197 C84.7818813,301.34279 83.0608952,300.631887 81.7906621,299.365313 C80.8258095,298.433598 79.2921279,298.446923 78.3436154,299.395261 C77.3951029,300.343599 77.3817756,301.876998 78.3136615,302.841673 C80.0152771,304.538059 82.1054119,305.600144 84.2988239,306.027928 L85.3070065,306.25903 C90.1670833,306.269846 94.1042621,310.2063 94.1150804,315.065483 C94.106958,319.925784 90.168203,323.863815 85.3070065,323.871935 C83.9489482,323.871935 82.8480244,324.972657 82.8480244,326.330465 C82.8480244,327.688273 83.9489482,328.788995 85.3070065,328.788995 C87.6833471,328.774581 90.0145794,328.138907 92.0692073,326.945097 C92.0692073,330.382122 93.3282061,333.504454 95.3544073,335.972818 C92.5660564,335.225504 89.938838,333.972138 87.6036958,332.27519 L87.4905826,332.176848 L86.9889503,331.77365 C86.3405777,331.234936 85.699544,330.687453 85.0660263,330.131352 C83.3939185,328.661151 80.984116,326.443557 78.0923531,323.493322 C75.3771945,320.689208 72.7624692,317.789594 70.2531182,314.799961 C72.5452021,316.28148 75.2154675,317.071829 77.9448142,317.07656 C79.2614774,317.017702 80.2986627,315.933308 80.2986627,314.615572 C80.2986627,313.297836 79.2614774,312.213441 77.9448142,312.154584 C72.7410636,312.149159 68.5247051,307.931376 68.5219948,302.728581 C68.5274162,297.527706 72.742982,293.312916 77.9448142,293.307496 C79.3028725,293.307496 80.4037962,292.206775 80.4037962,290.848966 C80.4037962,289.491158 79.3028725,288.390437 77.9448142,288.390437 C74.3547003,288.390437 71.1137619,289.762296 68.6006822,291.950387 L67.5924996,292.525683 C65.748263,294.369581 63.3581324,295.284154 60.9335761,295.284154 C57.8066321,295.287371 54.8828747,293.735447 53.1336849,291.14399 L52.9025406,290.755542 C50.621394,287.054906 51.1832406,282.271948 54.2598987,279.200453 C54.8818836,278.579461 55.125265,277.673877 54.8983635,276.824825 C54.6714621,275.975774 54.0087495,275.312246 53.1598632,275.084186 C52.3109769,274.856127 51.4048829,275.098183 50.782898,275.719175 C49.2792669,277.243125 48.1394316,279.087032 47.4485183,281.113189 C42.8976956,272.484505 39.0333524,263.511014 35.8913025,254.27588 L36.0339235,254.295548 C38.1781559,254.295548 40.2977984,253.759589 42.2699021,252.805679 C43.0007825,252.900798 43.7345058,252.652031 44.2567596,252.132042 C45.987883,250.411072 48.2255567,249.56042 50.4927382,249.56042 C52.7500837,249.56042 54.9975933,250.415989 56.7188808,252.132042 C57.6837335,253.063757 59.2174151,253.050432 60.1659276,252.102094 C61.1144401,251.153756 61.1277673,249.620357 60.1958815,248.655682 C57.6239761,246.081177 54.1321303,244.637273 50.4927382,244.643361 L49.5238992,244.736785 C50.0697932,243.187912 50.3894609,241.570199 50.3894609,239.957404 L50.3009376,239.082167 C51.5992801,239.455864 52.9222125,239.706634 54.2598987,239.706634 C57.9188641,239.706634 61.6073372,238.300355 64.4007408,235.507465 C66.3777624,233.525891 67.6269253,231.091946 68.2023271,228.539993 C70.2088565,229.528321 72.3727608,230.088866 74.5514189,230.083949 C77.6564315,230.067695 80.6713141,229.038749 83.1381843,227.153382 C84.6578353,228.918606 85.4447095,231.072278 85.4545455,233.270203 C85.4545455,233.801246 85.385694,234.327371 85.3020886,234.853496 L85.2332371,235.207525 C84.5383269,238.599441 82.0331803,241.333965 78.7145255,242.323106 C75.3958707,243.312247 71.8020584,242.395547 69.3629667,239.937736 C68.4027345,238.97797 66.8461982,238.97797 65.885966,239.937736 L65.8761301,239.94757 L65.8662942,239.952487 C64.906352,240.912542 64.906352,242.468792 65.8662942,243.428848 C67.7105307,245.272745 68.6252721,247.667353 68.6252721,250.086546 C68.6252721,252.505739 67.7105307,254.905264 65.8662942,256.754078 C64.0220576,258.597975 61.6220911,259.507631 59.2024527,259.507631 C56.7828143,259.507631 54.3877658,258.597975 52.5386113,256.754078 L51.8107526,256.262372 C51.4210753,255.694894 50.9834103,255.161896 50.5025741,254.669245 C49.5377214,253.737531 48.0040398,253.750855 47.0555273,254.699193 C46.1070148,255.647531 46.0936875,257.180931 47.0255734,258.145606 C48.5993219,259.709231 49.3812783,261.74981 49.3812783,263.814975 C49.3812783,265.88014 48.6042399,267.920719 47.0255734,269.494178 C46.0936875,270.458853 46.1070148,271.992253 47.0555273,272.940591 C48.0040398,273.888929 49.5377214,273.902253 50.5025741,272.970539 C51.3681358,272.110054 52.022225,271.136476 52.5976268,270.128479 L52.9517202,269.887543 C54.9189059,267.915802 57.4860832,266.937307 60.0778503,266.93239 C62.7499089,266.925588 65.3131758,267.990025 67.1941445,269.887543 C69.0952703,271.771221 70.1647609,274.336321 70.1647609,277.012362 C70.1647609,279.688402 69.0952703,282.253502 67.1941445,284.13718 C66.2622586,285.101856 66.2755859,286.635255 67.2240984,287.583593 C68.1726109,288.531931 69.7062925,288.545256 70.6711452,287.613541 C72.2350578,286.054833 73.3514356,284.230605 74.0792943,282.283449 C76.5797084,284.261786 79.669317,285.348574 82.8578604,285.371362 C86.6619946,285.374811 90.310971,283.863826 92.9987025,281.172194 C94.1620475,279.98615 95.1075969,278.604703 95.7921061,277.091035 C98.482632,280.114553 102.3328,281.850654 106.380483,281.865499 L106.390319,281.865499 C111.594069,281.870924 115.810428,286.088706 115.813138,291.291501 C115.807717,296.492376 111.592151,300.707166 106.390319,300.712587 C105.032261,300.712587 103.931337,301.813308 103.931337,303.171116 C103.931337,304.528925 105.032261,305.629646 106.390319,305.629646 C111.593742,305.640482 115.807729,309.858092 115.813138,315.060565 C115.802317,320.259199 111.589909,324.470832 106.390319,324.481651 C105.034977,324.481651 103.936255,325.580171 103.936255,326.935263 C103.936255,328.290356 105.034977,329.388876 106.390319,329.388876 C112.686568,329.379119 118.240578,325.265784 120.084678,319.246746 C121.928778,313.227709 119.631909,306.709924 114.421354,303.176033 C119.640292,299.646574 121.946177,293.126354 120.106169,287.101406 C118.26616,281.076459 112.710691,276.9562 106.409991,276.943523 L106.400155,276.943523 C101.201508,276.993762 96.9464373,272.820928 96.8961891,267.623237 C96.8459409,262.425547 101.019543,258.171259 106.21819,258.12102 L106.400155,258.140689 C107.752595,258.140689 108.859137,257.03435 108.859137,255.682159 L108.849301,255.652657 L108.849301,255.642823 C108.849301,254.285014 107.748377,253.184293 106.390319,253.184293 L106.21819,253.203961 C101.090236,253.104996 96.9821643,248.925584 96.9724175,243.797627 C96.9724175,238.595379 101.192031,234.376542 106.400155,234.371625 C107.75437,234.366209 108.849312,233.267072 108.849301,231.913095 L108.770614,231.509896 C108.587607,230.334461 107.580088,229.46449 106.390319,229.454566 L105.878851,229.51357 L104.821488,229.243132 C100.664561,229.237721 97.2952933,225.871273 97.2871673,221.715114 C97.2952997,217.559754 100.665356,214.194717 104.821488,214.192014 C106.179547,214.192014 107.28047,213.091293 107.28047,211.733484 C107.28047,210.375676 106.179547,209.274955 104.821488,209.274955 C101.519842,209.272345 98.3525286,210.581849 96.016989,212.915114 C93.6814493,215.24838 92.369202,218.414074 92.3692031,221.715114 C92.3692031,226.120799 94.6757283,229.975774 98.1330571,232.183533 C94.383467,234.801887 92.1274044,239.067843 92.0741252,243.640281 C90.6869177,241.975858 89.9203752,239.881723 89.905303,237.715225 C89.905303,237.1891 89.9741545,236.658057 90.0577599,236.131932 L90.1266114,235.777904 C90.2692324,234.942004 90.3675917,234.106104 90.3675917,233.260369 C90.3675917,231.327965 89.9544827,229.410312 89.1676084,227.600834 C88.5282947,226.125632 87.6418047,224.770367 86.5463335,223.593431 C88.072378,221.258283 88.8873343,218.530305 88.8922024,215.740888 C88.8922024,214.388696 88.6315503,213.046339 88.2479491,211.738401 C88.8036791,211.802323 89.3446551,211.900664 89.910221,211.900664 C97.8284964,211.897949 104.246087,205.479339 104.246087,197.56252 L104.206743,197.331418 L104.246087,197.100316 C104.254213,191.221659 109.018658,186.458091 114.898397,186.449966 C120.558635,186.463569 125.218874,190.902618 125.506446,196.554523 L125.506446,206.629577 C123.372325,201.517627 118.378172,198.185574 112.83777,198.177152 C111.479712,198.177152 110.378788,199.277873 110.378788,200.635682 C110.378788,201.99349 111.479712,203.094211 112.83777,203.094211 C117.697847,203.105028 121.635026,207.041482 121.645844,211.900664 C121.635026,216.759847 117.697847,220.696301 112.83777,220.707117 C111.479712,220.707117 110.378788,221.807838 110.378788,223.165647 C110.378788,224.523455 111.479712,225.624176 112.83777,225.624176 C118.379374,225.619712 123.375518,222.286331 125.506446,217.171752 L125.506446,244.776122 C122.576439,241.727626 118.531994,240.002219 114.303323,239.99674 L114.303323,239.991823 L114.283651,239.991823 L114.283651,240.001657 C112.928309,239.990795 111.82078,241.080509 111.809915,242.435602 C111.799051,243.790694 112.888966,244.89802 114.244308,244.908882 L114.283651,244.908882 C120.199962,244.918717 125.004813,249.7276 125.014649,255.64774 C125.006529,261.576077 120.20324,266.380682 114.273816,266.391514 L114.273816,266.396431 C113.355705,266.01614 112.298833,266.226998 111.597028,266.930482 C110.895223,267.633965 110.687046,268.691181 111.069767,269.608141 C111.452489,270.525101 112.350547,271.120766 113.34432,271.116808 L114.362339,271.382329 L114.43119,271.382329 C120.47853,271.39046 125.378078,276.291307 125.383497,282.337537 L125.383497,282.342454 L125.506446,282.962003 L125.506446,313.11341 L125.511364,313.11341 Z M96.6871756,257.063853 C96.8297966,256.223036 96.9281559,255.377301 96.9281559,254.52665 L96.9281559,254.492231 C97.3904445,254.905264 97.8428972,255.323214 98.3592834,255.677242 C97.76697,256.095624 97.2079314,256.559212 96.6871756,257.063853 Z M125.501528,270.998798 C124.64062,270.177468 123.690454,269.455079 122.66878,268.845126 C123.701553,268.186241 124.660556,267.419179 125.511364,266.539026 L125.511364,266.588196 L128.024443,264.070662 L130.522769,266.573445 C131.363741,267.438848 132.303072,268.196075 133.321091,268.845126 C132.386678,269.415505 131.521116,270.079308 130.724406,270.821784 L128.024443,273.526167 L125.501528,270.998798 L125.501528,270.998798 Z M191.441591,307.734147 C192.021911,306.170523 192.38584,304.503639 192.38584,302.738415 C192.38584,301.715667 192.243219,300.742089 192.026829,299.783263 C193.025176,300.009447 194.033358,300.20613 195.056295,300.20613 C195.725138,300.20613 196.389063,300.107789 197.052988,300.014364 C195.246714,302.633662 193.375672,305.207716 191.441591,307.734147 L191.441591,307.734147 Z M208.546271,281.118106 C207.851252,279.09162 206.708168,277.247896 205.202055,275.724092 C204.24055,274.764122 202.682743,274.765222 201.722595,275.726551 C200.762448,276.687879 200.763549,278.2454 201.725054,279.20537 C203.569291,281.054184 204.484032,283.448792 204.48895,285.867985 C204.477711,287.595552 203.994768,289.287242 203.092248,290.760459 L202.861104,291.148907 C201.116501,293.742931 198.192636,295.295891 195.066131,295.289071 C192.646493,295.289071 190.251444,294.374498 188.407207,292.5306 L187.399025,291.955304 C184.819944,289.676907 181.501379,288.411926 178.059811,288.395354 C176.701753,288.395354 175.600829,289.496075 175.600829,290.853883 C175.600829,292.211692 176.701753,293.312413 178.059811,293.312413 C183.260521,293.320535 187.474506,297.533745 187.48263,302.733498 C187.477214,307.935172 183.262438,312.151372 178.059811,312.159501 C176.700394,312.159501 175.59837,313.261322 175.59837,314.620489 C175.59837,315.979655 176.700394,317.081477 178.059811,317.081477 C180.897476,317.081477 183.523669,316.225908 185.751507,314.804878 C183.237819,317.793705 180.619846,320.693282 177.902436,323.498239 C175.010673,326.448474 172.610707,328.666068 170.938599,330.136269 C170.102545,330.863994 169.448456,331.424538 169.005839,331.778567 L168.509124,332.181765 L168.396011,332.280107 C166.061495,333.975076 163.436266,335.228288 160.650218,335.977735 C162.760293,333.441049 163.921771,330.249313 163.935418,326.950015 C165.987709,328.145127 168.317716,328.780929 170.6927,328.793912 C172.050759,328.793912 173.151683,327.693191 173.151683,326.335382 C173.151683,324.977574 172.050759,323.876853 170.6927,323.876853 C165.831504,323.868732 161.892749,319.930702 161.884627,315.0704 C161.895445,310.211217 165.832624,306.274763 170.6927,306.263947 L171.700883,306.032845 C173.966421,305.58776 176.048208,304.478591 177.681128,302.846591 C178.613013,301.881915 178.599686,300.348516 177.651174,299.400178 C176.702661,298.45184 175.16898,298.438515 174.204127,299.37023 C172.265282,301.295319 169.359765,301.867915 166.835287,300.822421 C164.310808,299.776927 162.66128,297.317893 162.651829,294.585931 C162.656747,292.845292 163.310836,291.124321 164.633769,289.796716 C165.507947,288.822042 165.466933,287.333984 164.540394,286.408923 C163.613855,285.483863 162.125466,285.44496 161.15185,286.320355 C159.673126,287.815965 158.629297,289.685673 158.13222,291.72912 C155.673086,289.870471 152.677336,288.859419 149.594634,288.847723 C148.236576,288.847723 147.135652,289.948444 147.135652,291.306253 C147.135652,292.664061 148.236576,293.764782 149.594634,293.764782 C154.794225,293.775602 159.006632,297.987234 159.017454,303.185868 C159.014743,308.388663 154.798385,312.606445 149.594634,312.61187 C148.236576,312.61187 147.135652,313.712591 147.135652,315.0704 C147.135652,316.428208 148.236576,317.528929 149.594634,317.528929 C154.794225,317.539748 159.006632,321.751381 159.017454,326.950015 C159.012032,332.150889 154.796466,336.365679 149.594634,336.3711 L149.437259,336.410436 C138.404521,334.106914 130.497032,324.386985 130.488343,313.118327 L130.488343,282.971837 L130.611292,282.352288 L130.611292,282.347371 C130.622111,276.303381 135.518502,271.405693 141.563599,271.392163 L141.63245,271.392163 L142.650469,271.126642 C143.730368,270.679336 144.344835,269.532579 144.119041,268.385901 C143.893248,267.239223 142.889869,266.410921 141.720974,266.406265 L141.720974,266.401348 C135.791549,266.390516 130.98826,261.585912 130.98014,255.657574 C130.993638,249.736101 135.78859,244.937637 141.711138,244.918717 L141.755399,244.918717 C143.110741,244.906496 144.199555,243.79807 144.187332,242.442977 C144.17511,241.087885 143.06648,239.999271 141.711138,240.011492 L141.711138,240.001657 L141.691466,240.001657 L141.691466,240.006574 C137.289888,240.011492 133.330927,241.850472 130.493261,244.785956 L130.493261,217.181586 C132.623499,222.294515 137.617205,225.627564 143.157019,225.634011 C144.515077,225.634011 145.616001,224.533289 145.616001,223.175481 C145.616001,221.817673 144.515077,220.716951 143.157019,220.716951 C138.296942,220.706135 134.359763,216.769681 134.348945,211.910498 C134.359763,207.051316 138.296942,203.114862 143.157019,203.104046 C144.515077,203.104046 145.616001,202.003324 145.616001,200.645516 C145.616001,199.287708 144.515077,198.186986 143.157019,198.186986 C137.618407,198.197387 132.626691,201.529108 130.493261,206.639411 L130.493261,196.564357 C130.778304,190.913232 135.437061,186.473537 141.096392,186.4598 C146.975332,186.467931 151.738367,191.232289 151.743785,197.11015 L151.792964,197.341252 L151.743785,197.572354 C151.7465,205.491888 158.168494,211.910499 166.089486,211.910498 C166.655052,211.910498 167.196028,211.80724 167.741922,211.748236 C167.363239,213.06109 167.102587,214.39853 167.102587,215.750722 C167.102587,218.474772 167.889461,221.218491 169.453374,223.603265 C166.403276,226.87207 165.076051,231.388907 165.873096,235.787738 L165.937029,236.141766 C166.025552,236.667891 166.084568,237.198934 166.084568,237.725059 C166.084568,239.849229 165.341955,241.924228 163.925582,243.650115 C163.867118,239.077812 161.61005,234.813416 157.861732,232.193367 C161.448799,229.920565 163.623473,225.970881 163.625586,221.724949 C163.622871,214.853643 158.05079,209.284788 151.178219,209.284789 C149.82016,209.284789 148.719237,210.38551 148.719237,211.743318 C148.719237,213.101127 149.82016,214.201848 151.178219,214.201848 C155.333898,214.206765 158.702704,217.570034 158.707622,221.724949 C158.702203,225.880312 155.334347,229.247548 151.178219,229.252966 L150.115938,229.523404 L149.60447,229.4644 C148.415468,229.476356 147.409081,230.345349 147.224175,231.51973 L147.14057,231.922929 C147.14057,233.280738 148.241494,234.381459 149.599552,234.381459 C154.804427,234.384173 159.022372,238.603543 159.022372,243.807461 C159.012625,248.935418 154.904553,253.11483 149.776599,253.213795 L149.599552,253.194127 C148.241494,253.194127 147.14057,254.294848 147.14057,255.652657 L147.145488,255.662491 L147.120898,255.701827 C147.120898,257.059636 148.221822,258.160357 149.57988,258.160357 L149.761845,258.140689 C154.960492,258.190928 159.134094,262.445215 159.083846,267.642905 C159.033597,272.840596 154.778527,277.01343 149.57988,276.963191 L149.574962,276.963191 C143.274262,276.975868 137.718793,281.096128 135.878785,287.121075 C134.038776,293.146022 136.344661,299.666242 141.563599,303.195702 C136.345998,306.725881 134.043776,313.247252 135.888974,319.269876 C137.734173,325.292499 143.294626,329.405807 149.594634,329.408544 C150.508466,329.466416 151.378772,329.011828 151.853221,328.228814 C152.32767,327.445799 152.32767,326.464064 151.853221,325.681049 C151.378772,324.898035 150.508466,324.443447 149.594634,324.501319 C144.395044,324.4905 140.182636,320.278867 140.171815,315.080234 C140.177224,309.87776 144.391211,305.66015 149.594634,305.649314 C150.952692,305.649314 152.053616,304.548593 152.053616,303.190785 C152.053616,301.832976 150.952692,300.732255 149.594634,300.732255 L149.589716,300.732255 C144.389006,300.724133 140.175021,296.510923 140.166897,291.31117 C140.172313,286.109496 144.387089,281.893296 149.589716,281.885167 L149.594634,281.885167 C153.643898,281.871094 157.495883,280.13498 160.187929,277.110703 C160.881362,278.585821 161.776431,279.982265 162.986251,281.191862 C165.673982,283.883494 169.322958,285.394479 173.127093,285.391031 C176.235246,285.391031 179.328646,284.314195 181.910577,282.303117 C182.633517,284.250273 183.749895,286.074502 185.30889,287.633209 C186.273743,288.564924 187.807424,288.551599 188.755937,287.603261 C189.704449,286.654923 189.717777,285.121524 188.785891,284.156849 C186.818705,282.185108 185.835112,279.618403 185.835112,277.03203 C185.835112,274.44074 186.813787,271.874035 188.785891,269.907211 C190.757994,267.930553 193.325172,266.956976 195.907103,266.952059 C198.58159,266.947566 201.147058,268.011446 203.033233,269.907211 L203.392244,270.148147 C203.95781,271.156144 204.621735,272.129722 205.477461,272.990207 C206.442314,273.921922 207.975995,273.908597 208.924508,272.960259 C209.87302,272.011921 209.886348,270.478522 208.954462,269.513846 C207.446853,268.010216 206.599575,265.968633 206.599575,263.83956 C206.599575,261.710487 207.446853,259.668904 208.954462,258.165274 C209.886348,257.200599 209.87302,255.667199 208.924508,254.718862 C207.975995,253.770524 206.442314,253.757199 205.477461,254.688913 C205.00206,255.186404 204.564766,255.71895 204.169283,256.28204 L203.441424,256.773746 C201.597187,258.617643 199.202139,259.527299 196.7825,259.527299 C194.362862,259.527299 191.967813,258.617643 190.118659,256.773746 C188.348571,255.008159 187.353794,252.611002 187.353794,250.111131 C187.353794,247.61126 188.348571,245.214103 190.118659,243.448516 C191.078601,242.48846 191.078601,240.932211 190.118659,239.972155 L190.108823,239.967238 L190.103905,239.957404 C189.143673,238.997638 187.587137,238.997638 186.626904,239.957404 C184.185354,242.411131 180.59279,243.325121 177.275168,242.336594 C173.957545,241.348067 171.451496,238.616919 170.751716,235.227193 L170.687783,234.873165 C170.59457,234.350432 170.545218,233.820824 170.540244,233.289872 C170.540244,231.091946 171.332036,228.938274 172.856605,227.17305 C175.399192,229.090703 178.413904,230.108534 181.44337,230.103617 C183.648836,230.084609 185.820065,229.556206 187.787544,228.559661 C189.224359,235.102591 195.034941,239.754708 201.73489,239.726302 C203.067659,239.726302 204.385673,239.475532 205.684016,239.101836 L205.60041,239.977072 C205.60041,241.589868 205.920078,243.202663 206.47089,244.756454 L205.502051,244.66303 C201.860003,244.658125 198.365536,246.10165 195.789072,248.67535 C194.857186,249.640025 194.870513,251.173424 195.819026,252.121762 C196.767538,253.0701 198.30122,253.083425 199.266072,252.151711 C200.997196,250.43074 203.234869,249.580089 205.502051,249.580089 C207.759396,249.580089 210.001988,250.435657 211.728194,252.151711 C212.256647,252.668189 212.99149,252.916108 213.724887,252.825348 C215.692073,253.77434 217.811715,254.315217 219.95103,254.315217 L220.093651,254.295548 C216.946991,263.522631 213.086185,272.490613 208.546271,281.118106 L208.546271,281.118106 Z M159.307613,257.063853 C158.786352,256.559312 158.225554,256.097273 157.630588,255.682159 C158.142056,255.328131 158.599427,254.910181 159.066633,254.497148 L159.061715,254.531567 C159.061715,255.377301 159.160075,256.223036 159.307613,257.063853 L159.307613,257.063853 Z M228.390256,218.61245 C226.828254,221.85825 223.548725,223.926437 219.946112,223.937625 C214.745396,223.932217 210.529212,219.721207 210.518374,214.521457 C210.518374,213.163648 209.417451,212.062927 208.059392,212.062927 C206.701334,212.062927 205.60041,213.163648 205.60041,214.521457 C205.60855,222.437946 212.028162,228.851976 219.946112,228.854684 C222.567387,228.854684 224.991943,228.102374 227.106668,226.873109 C225.773828,234.42392 223.972005,241.884423 221.711661,249.211309 C218.646671,249.801394 215.488577,248.832402 213.28227,246.624936 C211.511618,244.859806 210.517032,242.462269 210.518374,239.962321 C210.523292,238.516706 210.887222,237.100593 211.541311,235.782821 L211.870814,235.507465 C212.200178,235.157159 212.419112,234.717663 212.500314,234.243781 L213.277352,233.294789 C214.209238,232.330114 214.195911,230.796714 213.247398,229.848376 C212.298886,228.900038 210.765204,228.886714 209.800352,229.818428 C208.977384,230.662279 208.260609,231.603493 207.665955,232.621152 C205.934832,234.042182 203.854533,234.784658 201.729972,234.789575 C199.229348,234.792004 196.830969,233.797435 195.066131,232.026187 C193.216976,230.177373 192.302235,227.777848 192.302235,225.358655 C192.302235,222.939462 193.216976,220.544854 195.061213,218.700957 C195.725057,218.089197 196.000218,217.162919 195.777996,216.288041 C195.555774,215.413162 194.871909,214.73039 193.996556,214.509448 C193.121203,214.288505 192.195145,214.564926 191.584212,215.229513 C189.523712,217.286734 188.143672,219.926175 187.630169,222.79195 C183.918083,226.091294 178.275806,225.92087 174.769693,222.403503 C172.996263,220.640693 171.999091,218.243624 171.999091,215.743346 C171.999091,213.243068 172.996263,210.845999 174.769693,209.083189 L175.040181,208.679991 C178.43109,205.987054 180.411289,201.897086 180.420434,197.567437 C180.425859,192.364644 184.644418,188.149061 189.848171,188.146352 C194.205921,188.160786 197.985924,191.15943 198.990666,195.399014 C192.254072,196.702838 187.386113,202.596499 187.379353,209.456886 C187.379353,210.814694 188.480277,211.915416 189.838335,211.915416 C191.196393,211.915416 192.297317,210.814694 192.297317,209.456886 C192.302743,204.254093 196.521302,200.03851 201.725054,200.035801 C206.926887,200.041221 211.142452,204.256011 211.147874,209.456886 C211.147874,210.814694 212.248798,211.915416 213.606856,211.915416 C214.964914,211.915416 216.065838,210.814694 216.065838,209.456886 C216.065838,206.644328 215.224866,204.038287 213.823246,201.820693 C215.785514,201.506001 217.708438,200.812696 219.434643,199.676855 C221.395933,203.698081 225.13001,206.566839 229.521388,207.426141 C229.25334,211.165125 228.876135,214.895484 228.390256,218.61245 L228.390256,218.61245 Z M196.752993,185.078107 L197.456262,185.009268 L197.416918,185.432135 L196.752993,185.078107 L196.752993,185.078107 Z M230.077118,192.955235 C230.077118,196.170992 229.978759,199.332661 229.83122,202.44516 C225.712003,201.356859 222.837551,197.637902 222.823121,193.378103 C222.833373,189.094849 225.736575,185.359383 229.885317,184.291377 C230.008266,187.21211 230.077118,190.113175 230.077118,192.955235 L230.077118,192.955235 Z M199.630002,132.976948 C199.625649,130.087842 198.746053,127.267824 197.107086,124.888386 C198.912958,122.44616 199.894734,119.492765 199.910326,116.455629 L199.856228,115.929504 C203.249428,119.125415 206.371569,122.597295 209.190524,126.309416 C213.858028,132.550258 217.778139,139.316362 220.870689,146.469358 C219.051042,148.190329 216.749435,149.050814 214.413402,149.050814 C211.993764,149.050814 209.598715,148.136241 207.754478,146.292344 C205.910242,144.448447 204.990583,142.048922 204.990583,139.629729 C204.990583,137.22037 205.905324,134.815928 207.749561,132.972031 C208.681446,132.007356 208.668119,130.473956 207.719607,129.525618 C206.771094,128.57728 205.237413,128.563956 204.27256,129.49567 C201.58164,132.181703 200.070476,135.827998 200.072618,139.629729 C200.067538,143.433486 201.579051,147.082392 204.27256,149.768705 C206.959367,152.461718 210.608944,153.972953 214.413402,153.967873 C217.421472,153.962543 220.34973,152.99984 222.773941,151.219237 C223.673929,153.55484 224.460803,155.821605 225.164072,158.058867 C223.250984,157.144294 221.2297,156.559164 219.164155,156.568998 C215.358942,156.560099 211.707954,158.071917 209.023313,160.768166 L208.846267,161.043521 C207.25511,160.443163 205.56994,160.130165 203.869287,160.119114 C202.964381,160.119114 202.064394,160.207621 201.169324,160.379719 C201.341453,159.484814 201.429977,158.575158 201.429977,157.670419 C201.415141,155.133381 200.722396,152.646408 199.423447,150.466927 C198.826033,149.398091 198.090185,148.412733 197.234953,147.53636 L196.256278,146.739796 C193.700533,144.559003 190.454063,143.355086 187.094111,143.342109 C185.54146,143.360308 184.001957,143.629298 182.535158,144.138672 C181.636007,142.673518 181.156296,140.989733 181.148292,139.270784 C181.15321,136.861425 182.067952,134.456983 183.912188,132.613085 C184.844074,131.64841 184.830747,130.115011 183.882234,129.166673 C182.933722,128.218335 181.40004,128.20501 180.435188,129.136725 C177.744268,131.822758 176.233104,135.469053 176.235246,139.270784 C176.235246,141.76865 176.943433,144.256682 178.246693,146.484109 L176.958187,147.541277 C176.026301,148.505952 176.039628,150.039352 176.988141,150.987689 C177.936653,151.936027 179.470335,151.949352 180.435188,151.017638 L181.413862,150.21124 C183.043675,148.957989 185.038088,148.270863 187.094111,148.254251 L188.225243,148.367343 L189.435062,148.588611 C191.068531,148.994254 192.56209,149.833483 193.757952,151.017638 C194.308764,151.563431 194.746463,152.178064 195.130064,152.812364 C197.368946,156.453536 196.846093,161.150247 193.86123,164.210108 L193.733363,164.313366 C192.775557,165.276223 192.775557,166.831786 193.733363,167.794644 L193.748117,167.804478 L193.757952,167.814312 C194.718185,168.774077 196.274721,168.774077 197.234953,167.814312 L197.33823,167.691385 C199.086287,165.988452 201.428649,165.032634 203.869287,165.026339 C207.680851,165.028421 211.11618,167.324967 212.57452,170.845862 C214.032861,174.366757 213.227271,178.41923 210.533128,181.114957 C209.911143,181.735949 209.667762,182.641533 209.894663,183.490585 C210.121565,184.339637 210.784277,185.003164 211.633164,185.231224 C212.48205,185.459284 213.388144,185.217227 214.010129,184.596235 C216.703399,181.909204 218.216947,178.261358 218.216947,174.457259 C218.216947,170.653159 216.703399,167.005314 214.010129,164.318283 L213.208501,163.664314 C214.944542,162.238367 217.029759,161.490974 219.164155,161.48114 C221.583794,161.490974 223.978842,162.405547 225.823079,164.244527 C226.52648,164.962605 227.109374,165.789465 227.549284,166.693222 C228.304814,169.877165 228.920152,173.092741 229.393521,176.330658 C229.477126,177.328821 229.506634,178.307316 229.570568,179.300562 C228.30876,179.560162 227.090108,179.997207 225.950946,180.598666 L224.928009,181.100206 C220.577177,183.666273 217.903702,188.337451 217.895321,193.387937 L218.008434,194.528694 C214.325057,198.076422 208.4753,198.010731 204.872551,194.381183 C201.244173,190.752494 201.191673,184.886658 204.75452,181.19363 L204.892223,181.080538 C205.852166,180.120482 205.852166,178.564232 204.892223,177.604177 L204.872551,177.584509 L204.867634,177.574674 C203.907401,176.614909 202.350865,176.614909 201.390633,177.574674 L201.27752,177.717269 C197.588202,181.280942 191.722268,181.22842 188.097376,177.59926 C186.323953,175.835986 185.328866,173.437242 185.33348,170.936645 C185.338398,169.618873 185.633476,168.325686 186.169534,167.11609 C186.626904,166.088424 187.251486,165.114846 188.097376,164.269112 L188.539992,163.605309 C189.011901,162.670042 188.833741,161.537941 188.097376,160.792751 C187.229086,159.937244 185.86048,159.859353 184.900699,160.61082 C182.785956,159.409911 180.398373,158.771647 177.966369,158.757089 C174.865256,158.769061 171.853157,159.794782 169.38944,161.677822 C169.211616,159.654135 168.601136,157.692239 167.599301,155.924863 C169.51948,153.442986 170.570146,150.39869 170.589423,147.261005 C170.585071,144.371899 169.705474,141.55188 168.066508,139.172442 C169.87238,136.730217 170.854155,133.776822 170.869747,130.739686 C170.869747,129.269485 170.579587,127.809119 170.132053,126.397923 C171.730391,126.983053 173.407417,127.312496 175.084442,127.312496 C178.605955,127.299507 181.998514,125.986161 184.610539,123.624701 L185.299054,123.555862 C187.718692,123.555862 190.113741,124.470435 191.957978,126.314333 C193.802214,128.15823 194.721873,130.557755 194.721873,132.976948 C194.721873,135.396141 193.802214,137.795666 191.957978,139.639563 C191.026092,140.604238 191.039419,142.137637 191.987931,143.085975 C192.936444,144.034313 194.470126,144.047638 195.434978,143.115924 C198.125762,140.428188 199.635298,136.779782 199.630002,132.976948 L199.630002,132.976948 Z M180.971246,102.923882 C180.24657,103.176643 179.542791,103.485722 178.866357,103.848289 C178.608602,103.045978 178.281129,102.267754 177.887682,101.52252 C178.940126,101.97489 179.963063,102.446928 180.971246,102.923882 L180.971246,102.923882 Z M165.28294,98.8033867 C170.488284,98.8115157 174.705261,103.029917 174.710677,108.234306 C174.710677,109.592115 175.811601,110.692836 177.169659,110.692836 C178.025385,110.692836 178.743408,110.220798 179.181107,109.561912 C180.990917,107.890112 183.263017,107.034544 185.569542,107.02471 C187.332693,107.036198 189.057792,107.538479 190.55144,108.475242 L190.880943,108.686676 C193.455538,110.434667 194.997088,113.344106 194.997279,116.455629 C194.988375,118.181306 194.507044,119.871605 193.605496,121.343186 C191.186998,119.592504 188.27994,118.644874 185.294136,118.633886 C181.772536,118.646411 178.379817,119.959819 175.76804,122.321681 L175.079525,122.390519 C172.659886,122.390519 170.264838,121.475946 168.420601,119.632049 C166.64532,117.870021 165.649897,115.470466 165.656705,112.969434 C165.661623,110.550241 166.576364,108.155633 168.420601,106.311736 C169.352487,105.347061 169.33916,103.813662 168.390647,102.865324 C167.442135,101.916986 165.908453,101.903661 164.9436,102.835375 C162.2513,105.520485 160.739888,109.16738 160.743659,112.969434 C160.743659,114.439635 161.033819,115.900001 161.481354,117.311197 C159.89697,116.718341 158.220629,116.408766 156.528964,116.396624 C153.062434,116.410789 149.719729,117.686796 147.125816,119.986078 C144.965699,118.092177 142.282226,116.897265 139.429202,116.558887 C139.212362,115.780394 139.096658,114.97723 139.084945,114.169197 C139.084945,111.750003 139.999686,109.350479 141.843923,107.506581 C143.608642,105.735751 146.007525,104.742744 148.507764,104.748111 C149.447095,104.748111 150.381508,104.930042 151.281496,105.210315 C151.065636,106.203927 150.955191,107.21753 150.951992,108.234306 C150.951992,109.592115 152.052916,110.692836 153.410974,110.692836 C154.769033,110.692836 155.869956,109.592115 155.869956,108.234306 L155.894546,107.983536 C156.024896,102.888085 160.184913,98.8203423 165.28294,98.8033867 L165.28294,98.8033867 Z M130.483425,124.44585 L130.483425,107.319733 C130.483425,103.81387 131.796522,100.711206 133.985016,98.4739437 C136.183346,96.2366818 139.24232,94.8451541 142.970136,94.83532 C148.286456,94.8451541 153.2536,95.258187 157.945337,95.9662436 C155.997824,97.1365036 154.355224,98.7296308 153.150322,100.652201 C151.655391,100.123378 150.083565,99.8442889 148.497928,99.826135 C144.230024,99.8233999 140.183135,101.723338 137.459411,105.008512 C134.735686,108.293685 133.618781,112.621968 134.412879,116.814574 C134.717793,118.437204 135.337456,119.990995 136.203018,121.441527 C136.70179,121.354626 137.206608,121.306949 137.712833,121.298932 C139.394776,121.308766 141.057048,121.780804 142.537356,122.660958 C143.186527,123.054322 143.811108,123.496858 144.371756,124.06232 C147.459321,127.125193 148.027941,131.911725 145.743868,135.612492 C143.325675,133.861211 140.41842,132.913517 137.432509,132.903192 C134.996384,132.919726 132.605314,133.561404 130.488343,134.766757 L130.488343,124.44585 L130.483425,124.44585 Z M127.994936,144.374691 L130.645718,140.667228 L130.758831,140.588555 C132.607986,138.744658 135.003034,137.830085 137.422673,137.830085 C139.842311,137.830085 142.23736,138.744658 144.086514,140.588555 C145.861456,142.351558 146.85959,144.749683 146.85959,147.251171 C146.85959,149.752658 145.861456,152.150783 144.086514,153.913786 C143.154628,154.878461 143.167956,156.41186 144.116468,157.360198 C145.064981,158.308536 146.598662,158.321861 147.563515,157.390147 L148.448749,156.303476 L148.49301,156.273974 C150.342165,154.430077 152.737213,153.515504 155.156852,153.515504 C157.57649,153.515504 159.971539,154.430077 161.820693,156.273974 C165.013561,159.446452 165.506581,164.437617 162.996087,168.173257 C160.093029,166.094782 156.612754,164.975591 153.042127,164.972252 C152.381254,164.973451 151.74927,165.243238 151.291332,165.719645 L150.553637,166.211351 C148.399569,168.365023 145.596329,169.432024 142.773418,169.432024 C139.950506,169.432024 137.147267,168.365023 134.993199,166.211351 C132.926461,164.150604 131.767064,161.350864 131.771932,158.432563 C131.771932,155.610171 132.844048,152.80253 134.993199,150.653776 C135.951796,149.693956 135.953995,148.139942 134.998117,147.177415 C134.035082,146.219785 132.479233,146.219785 131.516198,147.177415 L130.483425,148.446016 L130.429328,148.446016 L127.994936,152.020718 L125.560543,148.45585 L125.506446,148.45585 L124.473673,147.187249 C123.510638,146.229619 121.954789,146.229619 120.991755,147.187249 C120.035876,148.149776 120.038075,149.70379 120.996673,150.66361 C123.150741,152.817282 124.217939,155.620005 124.217939,158.442397 C124.217939,161.264789 123.150741,164.07243 120.996673,166.221185 C118.842604,168.374857 116.039365,169.441859 113.216453,169.441859 C110.393542,169.441859 107.590302,168.374857 105.431316,166.221185 L104.703457,165.729479 C104.244006,165.25232 103.610209,164.982518 102.947744,164.982086 C99.2346811,164.982086 95.816696,166.181848 92.9937845,168.183091 C90.4912838,164.445443 90.9837563,159.459819 94.169178,156.283808 C95.9320755,154.513264 98.3293493,153.520189 100.828101,153.525338 C103.24774,153.525338 105.647706,154.439911 107.491943,156.283808 L107.541123,156.313311 L108.426356,157.399981 C109.391209,158.331695 110.92489,158.31837 111.873403,157.370032 C112.821915,156.421694 112.835243,154.888295 111.903357,153.92362 C110.05912,152.079723 109.144379,149.680198 109.144379,147.261005 C109.144379,144.841812 110.05912,142.442287 111.903357,140.59839 C113.752511,138.754492 116.14756,137.839919 118.567198,137.839919 C120.986837,137.839919 123.381885,138.754492 125.23104,140.59839 L125.344153,140.677062 L127.994936,144.374691 L127.994936,144.374691 Z M113.019735,94.840237 C116.747551,94.8500711 119.811443,96.2415989 122.004855,98.4788608 C124.193349,100.716123 125.506446,103.818787 125.506446,107.32465 L125.506446,134.786426 C123.38794,133.580464 120.995126,132.938773 118.557362,132.92286 C115.57081,132.929186 112.662356,133.87727 110.246003,135.63216 C109.342959,134.160978 108.859937,132.470711 108.849301,130.744603 C108.859137,128.32541 109.773878,125.925885 111.613197,124.081988 C112.173845,123.516526 112.803344,123.073991 113.447598,122.680626 C114.937741,121.795555 116.595095,121.328435 118.277038,121.318601 C118.783589,121.318601 119.285221,121.387439 119.786853,121.461195 C121.122662,119.268612 121.83037,116.75127 121.832726,114.183948 C121.832726,110.515822 120.426189,106.837861 117.632785,104.044972 C114.839381,101.252082 111.155826,99.8408862 107.491943,99.8458032 C105.918194,99.8458032 104.339528,100.150661 102.834631,100.671869 C101.629912,98.7540332 99.9885215,97.1483276 98.0445337,95.9859118 C103.000126,95.2261073 108.006212,94.8431177 113.019735,94.840237 L113.019735,94.840237 Z M81.2791939,108.234306 C81.2846028,103.031832 85.4985904,98.8142224 90.7020132,98.8033867 C93.8649063,98.8118607 96.8141791,100.400632 98.56092,103.036975 C99.5002511,104.458005 100.060899,106.159307 100.105161,107.983536 L100.134669,108.234306 C100.193476,109.548054 101.275886,110.582914 102.591192,110.582914 C103.906497,110.582914 104.988907,109.548054 105.047715,108.234306 C105.047715,107.186973 104.924766,106.178975 104.713293,105.210315 C105.628034,104.930042 106.547694,104.748111 107.496861,104.748111 C109.916499,104.748111 112.311548,105.662684 114.155784,107.506581 C116.000021,109.350479 116.914762,111.750003 116.91968,114.169197 C116.91968,114.975594 116.777059,115.772158 116.575423,116.558887 C113.72067,116.896304 111.03535,118.091275 108.873891,119.986078 C106.279183,117.684894 102.934219,116.408692 99.4658254,116.396624 C97.7937176,116.396624 96.1216097,116.72115 94.5183534,117.311197 C94.9708061,115.900001 95.256048,114.439635 95.256048,112.969434 C95.256048,109.311142 93.8544283,105.623348 91.0561066,102.835375 C90.091254,101.903661 88.5575724,101.916986 87.6090599,102.865324 C86.6605474,103.813662 86.6472201,105.347061 87.579106,106.311736 C89.4233425,108.155633 90.3380839,110.545324 90.3380839,112.969434 C90.3380839,115.393544 89.4135066,117.788152 87.574188,119.632049 C85.7348694,121.475946 83.3398209,122.390519 80.9103466,122.390519 L80.2267495,122.321681 C77.6169769,119.959742 74.2257369,118.646229 70.7055709,118.633886 C67.7176051,118.64085 64.8077768,119.588822 62.3892935,121.343186 C59.7588526,117.078123 60.9556818,111.498284 65.1040097,108.686676 L65.4384313,108.475242 C66.9303377,107.538638 68.6538209,107.036332 70.415411,107.02471 C72.7317721,107.034544 74.9989536,107.890112 76.8038465,109.561912 C77.2464633,110.225715 77.964486,110.692836 78.8202118,110.692836 C80.1782701,110.692836 81.2791939,109.592115 81.2791939,108.234306 L81.2791939,108.234306 Z M172.261531,73.642795 C165.974375,73.6346683 160.879654,68.5408852 160.871526,62.254886 C160.882355,55.9700075 165.975496,50.8778037 172.261531,50.866977 C178.547566,50.8778037 183.640707,55.9700075 183.651536,62.254886 C183.640707,68.5397644 178.547566,73.6319683 172.261531,73.642795 L172.261531,73.642795 Z M217.905157,50.8620599 C224.191192,50.8728866 229.284333,55.9650905 229.295162,62.2499689 C229.289738,68.5370901 224.193435,73.6324557 217.905157,73.6378779 C211.618,73.6297512 206.52328,68.5359681 206.515152,62.2499689 C206.52598,55.9650905 211.619121,50.8728866 217.905157,50.8620599 Z"></path>
            </g>
        </g>
    </g>
</svg>