<?xml version="1.0" encoding="UTF-8"?>
<svg width="500px" height="500px" viewBox="0 0 500 500" version="1.1" xmlns="http://www.w3.org/2000/svg" xmlns:xlink="http://www.w3.org/1999/xlink">
    <!-- Generator: Sketch 46.1 (44463) - http://www.bohemiancoding.com/sketch -->
    <title>memory</title>
    <desc>Created with Sketch.</desc>
    <defs></defs>
    <g id="Page-1" stroke="none" stroke-width="1" fill="none" fill-rule="evenodd">
        <g id="memory" fill-rule="nonzero" fill="#000000">
            <g transform="translate(134.000000, 97.000000)" id="Shape">
                <path d="M227.487552,91.7401575 C230.255187,90.2391732 232,87.4173228 232,84.2952756 L232,8.46555118 C232,3.78248031 228.209544,0 223.516598,0 L50.9605809,0 C48.7344398,0 46.5684647,0.900590551 44.9439834,2.46161417 L2.52697095,44.8494094 C0.962655602,46.4104331 0.0601659751,48.5718504 0.0601659751,50.8533465 L0.0601659751,128.604331 C0.0601659751,131.48622 1.50414938,134.187992 3.97095436,135.749016 L13.2966805,141.692913 L13.2966805,203.593504 L3.91078838,209.537402 C1.50414938,211.098425 0,213.800197 0,216.682087 L0,296.534449 C0,301.21752 3.79045643,305 8.48340249,305 L223.456432,305 C228.149378,305 231.939834,301.21752 231.939834,296.534449 L231.939834,135.32874 C231.939834,132.206693 230.195021,129.324803 227.427386,127.883858 L216.056017,121.819882 L216.056017,97.8641732 L227.487552,91.7401575 L227.487552,91.7401575 Z M214.973029,79.1919291 L203.60166,85.2559055 C200.834025,86.7568898 199.089212,89.5787402 199.089212,92.7007874 L199.089212,126.80315 C199.089212,129.925197 200.834025,132.807087 203.60166,134.248031 L214.973029,140.312008 L214.973029,288.008858 L17.026971,288.008858 L17.026971,221.305118 L26.3526971,215.36122 C28.7593361,213.800197 30.2634855,211.098425 30.2634855,208.216535 L30.2634855,137.069882 C30.2634855,134.187992 28.8195021,131.48622 26.3526971,129.925197 L17.026971,123.981299 L17.026971,54.3356299 L54.5103734,16.9311024 L215.033195,16.9311024 L215.033195,79.1919291 L214.973029,79.1919291 Z"></path>
                <path d="M47.6253799,156.543084 L47.6253799,256.527742 C47.6253799,261.214523 51.4072948,265 56.0896657,265 L175.910334,265 C180.592705,265 184.37462,261.214523 184.37462,256.527742 L184.37462,156.543084 C184.37462,151.856303 180.592705,148.070826 175.910334,148.070826 L56.0896657,148.070826 C51.4072948,148.070826 47.6253799,151.856303 47.6253799,156.543084 Z M64.5539514,165.015341 L167.386018,165.015341 L167.386018,248.055485 L64.5539514,248.055485 L64.5539514,165.015341 Z M186.535714,75.1252877 C191.218085,75.1252877 195,71.3398108 195,66.6530299 L195,38.4722577 C195,33.7854769 191.218085,30 186.535714,30 C181.853343,30 178.071429,33.7854769 178.071429,38.4722577 L178.071429,66.6530299 C178.071429,71.3398108 181.853343,75.1252877 186.535714,75.1252877 Z M151.297872,75.1252877 C155.980243,75.1252877 159.762158,71.3398108 159.762158,66.6530299 L159.762158,38.4722577 C159.762158,33.7854769 155.980243,30 151.297872,30 C146.615502,30 142.833587,33.7854769 142.833587,38.4722577 L142.833587,66.6530299 C142.773556,71.3398108 146.615502,75.1252877 151.297872,75.1252877 Z M116,75.1252877 C120.682371,75.1252877 124.464286,71.3398108 124.464286,66.6530299 L124.464286,38.4722577 C124.464286,33.7854769 120.682371,30 116,30 C111.317629,30 107.535714,33.7854769 107.535714,38.4722577 L107.535714,66.6530299 C107.535714,71.3398108 111.317629,75.1252877 116,75.1252877 Z M80.7021277,75.1252877 C85.3844985,75.1252877 89.1664134,71.3398108 89.1664134,66.6530299 L89.1664134,38.4722577 C89.1664134,33.7854769 85.3844985,30 80.7021277,30 C76.0197568,30 72.2378419,33.7854769 72.2378419,38.4722577 L72.2378419,66.6530299 C72.2378419,71.3398108 76.0797872,75.1252877 80.7021277,75.1252877 Z M53.9285714,83.5975454 L53.9285714,55.4167732 C53.9285714,50.7299923 50.1466565,46.9445155 45.4642857,46.9445155 C40.7819149,46.9445155 37,50.7299923 37,55.4167732 L37,83.5975454 C37,88.2843263 40.7819149,92.0698031 45.4642857,92.0698031 C50.1466565,92.0698031 53.9285714,88.2843263 53.9285714,83.5975454 Z"></path>
            </g>
        </g>
    </g>
</svg>