<?xml version="1.0" encoding="UTF-8"?>
<svg width="500px" height="500px" viewBox="0 0 500 500" version="1.1" xmlns="http://www.w3.org/2000/svg" xmlns:xlink="http://www.w3.org/1999/xlink">
    <!-- Generator: Sketch 46.1 (44463) - http://www.bohemiancoding.com/sketch -->
    <title>python</title>
    <desc>Created with Sketch.</desc>
    <defs></defs>
    <g id="Page-1" stroke="none" stroke-width="1" fill="none" fill-rule="evenodd">
        <g id="python" fill-rule="nonzero" fill="#000000">
            <g transform="translate(84.000000, 122.000000)" id="Shape">
                <path d="M326.766843,66.9595378 C314.37832,32.8915412 264.750484,36.7587192 254.684808,37.4953245 C244.619133,38.2319298 217.482367,39.8156313 203.508407,34.4015821 C194.322155,31.1360568 184.49541,30.0762322 174.823075,31.3078397 C186.437316,26.6672261 210.476951,28.2140973 227.548042,31.3078397 C244.619133,34.4015821 266.299049,28.9875329 279.498726,29.7609685 C288.666793,30.4800996 297.750043,32.0334111 306.635492,34.4015821 C306.635492,34.4015821 305.086927,15.9864488 297.344099,8.84137709 C289.601272,1.69630537 269.211827,1.91728697 257.745068,0.370415771 C249.264829,-0.771322493 228.248584,0.996530304 217.70359,2.02777777 C230.940138,2.02777777 249.9285,8.69405602 253.873655,11.9719498 C258.519351,15.8391277 277.91329,11.1985142 281.010421,14.2922565 C284.107552,17.3859989 265.487896,24.3469193 243.807979,14.2922565 C222.128063,4.23759376 194.954426,8.87820736 179.468772,11.1985142 C163.983117,13.5188209 145.363461,23.5734837 145.363461,33.6649768 C145.557931,40.0992718 147.719526,46.3199118 151.557723,51.4908258 C200.411276,48.3602532 229.87089,63.8657954 236.839435,65.3390061 C243.807979,66.8122167 264.750484,55.2843433 266.33592,66.1124417 C267.921356,76.94054 223.713499,70.7530553 203.655889,63.0186993 C183.59828,55.2843433 140.975859,57.6046501 140.975859,57.6046501 C140.975859,57.6046501 98.3534381,63.7921349 93.0440708,85.4851619 C87.7347035,107.178189 96.1412017,121.10003 96.1412017,121.10003 C104.207511,121.666571 112.234176,122.699549 120.180837,124.193772 C161.254692,137.342177 161.254692,166.76956 161.254692,171.447004 C161.254692,176.124448 170.546085,179.954796 170.546085,179.954796 C180.274588,182.710792 189.643168,186.604946 198.457134,191.55633 C175.597358,197.044039 152.332006,184.66907 153.106288,168.463753 C153.880571,152.258435 138.358046,140.583241 119.000978,132.075449 C99.6439093,123.567658 79.4756878,132.001789 70.1105538,137.415838 C60.7454198,142.829887 32.9081122,147.470501 32.9081122,147.470501 C28.743703,148.150911 24.7792405,149.734961 21.2938713,152.111114 C18.1967403,155.204857 10.4539131,158.298599 3.44849789,160.618906 C-3.55691728,162.939213 1.89993243,172.22044 4.22278062,174.540747 C8.24318086,179.146221 13.7455784,182.207 19.7821764,183.195859 C27.5250037,183.969295 63.1788798,186.289602 71.7328605,182.422424 C80.2868411,178.555246 86.4811029,173.914632 93.4496475,177.78181 C97.3789294,179.678428 100.02412,183.495079 100.418192,187.836473 C100.418192,187.836473 107.386737,166.916881 123.683545,161.502832 C123.683545,161.502832 97.3210611,183.969295 104.289606,212.623242 C104.289606,212.623242 105.063888,225.771647 125.23211,240.503754 C145.400332,255.235861 189.571318,262.196781 227.548042,249.011546 C265.524766,235.82631 278.724443,190.930215 263.201918,160.618906 C248.896123,132.701564 200.153182,106.146941 157.346408,100.43825 C153.626411,99.9522 150.304017,97.8686418 148.249191,94.7331535 C146.194366,91.5976652 145.611762,87.7225275 146.653932,84.122442 C146.984025,82.9116845 147.604079,81.7993369 148.460592,80.8813786 C153.106288,76.240765 152.332006,91.7094769 156.977702,93.2563481 C156.977702,93.2563481 239.936566,107.178189 260.842199,146.697065 C273.465346,147.68737 286.157936,147.3417 298.708312,145.665818 C315.08962,143.051429 327.946222,130.238588 330.601386,113.881297 C333.351635,98.1700693 332.031589,82.0171965 326.766843,66.9595378 Z M37.6275498,164.228272 C35.5912424,164.228272 33.9404892,162.579325 33.9404892,160.545245 C33.9404892,158.511166 35.5912424,156.862219 37.6275498,156.862219 C39.6638571,156.862219 41.3146104,158.511166 41.3146104,160.545245 C41.3146104,162.579325 39.6638571,164.228272 37.6275498,164.228272 Z"></path>
            </g>
        </g>
    </g>
</svg>