<?xml version="1.0" encoding="UTF-8"?>
<svg width="500px" height="500px" viewBox="0 0 500 500" version="1.1" xmlns="http://www.w3.org/2000/svg" xmlns:xlink="http://www.w3.org/1999/xlink">
    <!-- Generator: Sketch 46.1 (44463) - http://www.bohemiancoding.com/sketch -->
    <title>scratch</title>
    <desc>Created with Sketch.</desc>
    <defs></defs>
    <g id="Page-1" stroke="none" stroke-width="1" fill="none" fill-rule="evenodd">
        <g id="scratch" fill-rule="nonzero">
            <g transform="translate(90.000000, 84.000000)">
                <path d="M317.366163,143.230782 C314.401651,138.896504 309.726844,136.159066 304.709977,135.930946 C300.719288,135.702826 296.728599,137.071545 293.079969,139.808984 C290.229477,129.885768 283.046237,129.087349 279.739666,129.315469 C274.60878,129.657648 269.591914,132.509147 266.171324,136.957485 C263.206812,140.835523 260.2423,147.79318 262.522694,158.400756 C262.408674,159.541355 261.952595,160.567895 261.496516,161.252255 L247.244056,172.31607 C245.989839,170.377051 244.735623,168.552091 243.367386,166.841192 C239.376697,161.594434 231.851398,153.153998 222.843843,145.169802 C227.290611,138.554324 230.483162,131.824787 231.737378,126.12179 C233.333654,118.479773 233.675713,110.837757 232.649536,103.19574 C237.210323,102.62544 242.227189,102.51138 246.787977,103.08168 C247.928174,103.19574 248.954351,102.39732 249.068371,101.256721 C249.18239,100.116121 248.384252,99.0895817 247.244056,98.9755218 C242.341209,98.405222 236.868264,98.519282 231.965418,99.0895817 C231.623359,97.4927424 231.2813,95.8959031 230.939241,94.4131238 C235.500028,93.0444044 240.402874,92.1319248 244.735623,92.1319248 C245.875819,92.1319248 246.787977,91.2194452 246.673957,90.0788457 C246.673957,88.9382462 245.7618,88.0257666 244.621603,88.1398265 C239.946796,88.2538865 234.58787,89.1663661 229.799044,90.6491454 C228.772866,87.4554668 227.51865,84.2617882 226.036394,81.1821695 C227.746689,76.8478914 228.088748,71.9433136 226.492473,67.3809156 C224.782177,62.7044576 221.361587,58.9404793 216.914819,56.8874002 C214.178347,55.6327407 211.099815,55.062441 208.135303,55.2905609 C199.583827,34.6457099 180.3145,4.19170317 163.325567,0.0855449626 C162.869488,-0.0285149875 162.413409,-0.0285149875 161.95733,0.0855449626 C152.493697,2.13862407 152.265657,17.9929571 151.809578,38.1815683 L151.809578,40.5768273 C142.916043,43.428326 131.742114,48.2188439 126.269169,50.7281628 L123.532696,51.9828223 C119.199948,53.8077815 115.779358,55.2905609 112.814846,56.7733402 C102.439054,45.4814051 81.5734518,28.9427124 74.2761919,30.9957915 C72.4518769,31.3379713 70.8556013,32.2504509 69.6013847,33.8472902 C63.6723611,41.4893069 66.1807942,64.187237 70.5135422,95.4396633 C71.7677588,104.222279 72.9079556,112.548656 73.4780541,119.050073 L67.2069713,123.498411 C60.3657902,128.288929 53.8666681,132.851327 51.0161759,134.904406 C14.0737976,162.392854 -13.4049467,222.274328 6.8905574,270.863867 C18.5205654,299.378854 52.3844121,326.981362 90.923066,328.692261 C100.842779,330.8594 112.928865,332 125.81309,332 C162.983508,332 207.679225,322.418964 232.193457,299.606974 C247.358075,285.5776 257.163768,269.951387 261.382497,253.298634 C265.145146,238.584901 264.803087,221.704028 261.154457,205.849695 C267.197501,199.006098 273.468583,192.162501 279.853686,186.003264 C280.423784,186.117324 280.993883,186.345444 281.563981,186.573564 C292.053792,189.653182 309.612824,194.89994 316.225966,180.756506 C318.1643,176.764408 317.708222,171.85983 314.971749,168.095852 C314.74371,167.753672 314.401651,167.411492 314.173611,167.069312 C316.910084,165.586533 318.620379,163.533454 319.532537,161.708494 C322.497048,155.549257 320.558714,148.0213 317.366163,143.230782 Z M209.16148,61.3357382 C210.985795,61.3357382 212.696091,61.6779181 214.292366,62.4763377 C217.256878,63.8450571 219.537272,66.354376 220.677469,69.4339947 C223.071882,76.1635317 219.423252,83.9196083 212.468051,86.7711071 C209.047461,88.1398265 205.512851,88.0257666 202.320299,86.6570472 C199.355787,85.2883278 197.075394,82.7790088 195.935197,79.6993902 C193.540783,72.9698531 197.189413,65.2137765 204.144614,62.3622778 C205.85491,61.6779181 207.565205,61.3357382 209.16148,61.3357382 Z M255.225434,251.701795 C251.348764,267.213948 242.11317,281.813622 227.860709,295.044576 C198.44363,322.418964 138.355255,329.718801 100.158661,324.129863 C92.6333613,324.472043 83.8538455,323.331444 73.9341328,320.023705 C73.7060934,319.909645 73.4780541,319.909645 73.2500147,319.795585 C69.8294241,318.883106 66.5228532,317.856566 63.330302,316.487847 C61.8480461,315.917547 60.3657902,315.347247 59.1115736,314.662888 C37.2197939,304.739672 19.8888016,286.83226 12.3635023,268.468608 C-6.79180493,222.616508 19.4327229,165.928713 54.5507862,139.694924 C57.2872586,137.641845 63.7863808,133.079447 70.6275619,128.402989 L79.0650187,122.471872 C80.4332549,121.559392 80.775314,119.620373 79.8631565,118.251653 C79.7491368,118.023533 79.6351171,117.909474 79.4070777,117.681354 C78.8369793,111.179936 77.6967825,103.08168 76.5565856,94.5271837 C73.5920738,73.0839131 69.4873651,43.6564459 74.3902116,37.4972086 C74.8462903,36.9269089 75.0743297,36.9269089 75.302369,36.9269089 C75.5304084,36.9269089 75.8724675,36.8128489 76.1005068,36.698789 C79.8631565,37.0409688 97.3081685,47.990724 109.736314,62.3622778 C110.648472,63.3888173 112.130728,63.7309972 113.384944,63.1606974 C116.919554,61.4497982 120.796224,59.7388989 125.92711,57.5717599 L128.777602,56.3171004 C134.364566,53.9218414 145.538496,49.0172636 154.203992,46.2798248 L154.546051,46.2798248 C156.142326,46.0517049 158.308701,45.4814051 160.817134,44.7970454 C163.553606,44.1126857 166.632138,43.3142661 168.912531,42.9720862 C170.622827,42.7439663 171.763023,41.261187 171.534984,39.5502877 C171.306945,37.8393885 169.824689,36.698789 168.114394,36.9269089 C165.377921,37.2690887 162.07135,38.0675084 159.220858,38.865928 C158.764779,38.979988 158.308701,39.0940479 157.966641,39.2081079 L157.966641,38.2956283 C158.194681,24.9506141 158.53674,8.41192133 162.755468,6.24478227 C176.55185,10.4650004 193.996862,37.3831487 202.20628,56.6592803 L202.09226,56.6592803 C192.172547,60.6513785 186.927642,71.8292536 190.462252,81.6384093 C192.172547,86.3148673 195.593138,90.0788457 200.039906,92.1319248 C202.434319,93.2725243 205.056772,93.842824 207.679225,93.842824 C210.073638,93.842824 212.582071,93.3865842 214.862465,92.4741046 C217.712957,91.3335051 220.22139,89.6226059 222.159725,87.4554668 C222.957863,89.280426 223.527961,91.1053852 224.098059,92.9303444 C223.87002,93.0444044 223.756,93.0444044 223.527961,93.1584643 C222.501784,93.6147041 222.045705,94.8693636 222.501784,95.8959031 C222.843843,96.5802628 223.527961,97.0365026 224.326099,97.0365026 C224.554138,97.0365026 224.896197,96.9224427 225.124237,96.8083827 C225.466296,98.0630422 225.694335,99.3177016 225.922374,100.458301 C225.580315,100.572361 225.238256,100.572361 225.010217,100.686421 C223.98404,101.028601 223.299922,102.1692 223.641981,103.19574 C223.87002,104.10822 224.668158,104.678519 225.580315,104.678519 C225.808355,104.678519 225.922374,104.678519 226.150414,104.564459 C226.264433,104.564459 226.492473,104.450399 226.606492,104.450399 C227.40463,111.179936 227.176591,118.023533 225.808355,124.86713 C224.782177,129.657648 221.931685,135.474706 218.169036,141.291763 C216.002662,139.580864 213.836288,137.869965 211.555894,136.273125 C198.55765,127.148329 184.191169,121.103152 172.561161,126.12179 C172.105083,126.34991 171.649004,126.57803 171.078905,126.80615 C165.035862,129.885768 163.097527,134.220046 162.527429,137.413725 C161.729291,141.976123 163.211547,146.994761 166.632138,150.644679 C170.736846,155.207077 177.235968,157.602336 183.621071,159.997595 C185.901465,160.796015 188.181858,161.708494 190.234213,162.620974 C191.944508,163.419394 193.654803,164.217813 195.137059,165.130293 C198.899709,167.525552 202.434319,170.377051 205.74089,173.570729 C203.004417,186.687623 199.127748,201.743537 195.821177,205.621575 C195.365098,205.849695 194.795,206.077815 194.338921,206.305935 C179.516362,213.035472 165.149882,220.563429 151.3535,229.003865 C152.949775,230.372584 154.432031,231.855364 155.800267,233.452203 C167.544295,226.380486 179.744401,219.765009 192.286567,213.947952 L192.286567,214.062012 C196.733335,211.894872 201.180102,209.955853 205.74089,208.016834 C206.767067,207.560594 207.679225,207.218414 208.705402,206.762175 C211.327855,205.735635 213.950307,204.595036 216.57276,203.568496 C216.800799,203.454436 216.914819,203.340376 217.142859,203.226316 C217.256878,203.226316 217.256878,203.112256 217.370898,203.112256 L223.413941,198.435798 C227.746689,208.130894 230.369142,218.738469 230.597181,229.460105 L228.886886,231.171004 C221.703646,238.014601 214.406386,244.516018 207.109126,251.017435 C205.284811,252.614275 203.460496,254.211114 201.750201,255.807953 C200.838043,256.606373 200.039906,257.404793 199.127748,258.089152 C197.417453,259.571932 195.707158,261.054711 194.110882,262.53749 C193.540783,262.99373 193.084705,263.44997 192.514606,263.90621 C191.716469,264.704629 190.804311,265.388989 190.006173,266.187409 C188.181858,267.784248 186.471563,269.381087 184.647248,270.977927 C184.305189,271.320107 183.96313,271.548226 183.621071,271.890406 L176.77989,278.049644 C176.55185,278.277763 176.323811,278.391823 176.095772,278.619943 C173.701358,280.787082 171.306945,283.068281 168.912531,285.34948 L157.966641,296.527355 C147.818889,298.124195 135.618783,299.036674 124.216814,298.808554 C125.81309,300.747574 126.725247,302.800653 126.953287,304.967792 C145.880555,304.967792 166.062039,302.116293 176.209791,298.466375 C214.976484,284.551061 236.526205,261.054711 236.640225,232.197544 C236.868264,203.454436 221.817666,175.053509 198.32961,159.997595 C194.566961,157.602336 190.006173,155.891437 185.673425,154.180538 C183.73509,153.496178 181.910776,152.697758 179.972441,151.899339 C179.858421,151.785279 179.630382,151.785279 179.516362,151.671219 C179.402342,151.671219 179.402342,151.557159 179.288323,151.557159 C176.66587,150.416559 174.271457,149.1619 172.447142,147.565061 L172.333122,147.451001 C171.877043,147.108821 171.534984,146.766641 171.078905,146.310401 L170.964886,146.196341 C169.36861,144.371382 168.342433,142.090183 168.342433,139.694924 L168.342433,139.352744 L168.342433,138.782444 C168.570472,136.615305 169.824689,134.448166 172.333122,132.851327 C172.333122,132.851327 172.447142,132.851327 172.447142,132.737267 C172.789201,132.509147 173.245279,132.281027 173.701358,132.052907 C174.271457,131.824787 174.841555,131.482608 175.411653,131.368548 C175.639693,131.254488 175.981752,131.140428 176.209791,131.140428 C176.55185,131.026368 176.77989,130.912308 177.121949,130.912308 C177.578027,130.798248 177.920087,130.684188 178.376165,130.684188 C178.490185,130.684188 178.604205,130.684188 178.832244,130.570128 C198.101571,127.718629 227.176591,155.891437 238.46454,170.60517 C254.997394,192.048441 261.838575,225.353947 255.225434,251.701795 L255.225434,251.701795 Z M214.064327,197.979559 C210.415697,199.348278 206.767067,200.831057 203.232457,202.427897 C206.425008,193.53122 209.047461,184.976724 209.845599,177.562827 C214.064327,182.239285 217.712957,187.371983 220.677469,192.846861 L214.064327,197.979559 Z M230.255122,238.356781 C228.544827,251.245555 221.931685,262.76561 210.643736,272.574766 C209.959618,270.635747 209.38952,268.924848 209.2755,267.328008 C209.047461,264.24839 208.705402,261.168771 208.249323,258.203212 C215.546583,251.701795 222.957863,245.200378 230.255122,238.356781 L230.255122,238.356781 Z M205.62687,276.566864 C201.294122,279.760543 196.505295,282.726102 191.14637,285.46354 L188.751957,281.699562 C187.839799,280.330843 187.041661,278.962123 186.243524,277.593404 C191.602449,272.688826 197.075394,267.898308 202.776378,262.99373 C203.004417,264.590569 203.118437,266.187409 203.232457,267.784248 C203.346476,270.749807 204.486673,273.715365 205.62687,276.566864 L205.62687,276.566864 Z M185.559405,288.200979 C181.910776,289.797818 178.148126,291.394658 174.157437,292.763377 C172.447142,293.333677 170.394787,293.903977 168.228413,294.474276 C172.561161,290.139998 177.007929,285.91978 181.568716,281.813622 C182.252835,282.840161 182.936953,283.980761 183.621071,285.007301 C184.305189,286.1479 184.989307,287.17444 185.559405,288.200979 Z M312.919395,160.111655 C311.779198,161.138195 310.182922,162.050674 308.130568,162.392854 C307.902529,162.392854 307.674489,162.506914 307.44645,162.506914 L307.104391,162.506914 C306.306253,162.620974 305.508115,162.735034 304.709977,162.735034 L304.367918,162.735034 L304.253899,162.735034 C302.999682,162.963154 302.201544,163.761573 301.859485,164.674053 L301.859485,164.902173 C301.745466,165.586533 301.745466,166.270892 301.973505,166.841192 L301.973505,167.069312 C302.429584,167.981792 303.227721,168.666151 304.595958,168.780211 L305.736155,168.780211 C307.33243,168.894271 308.928706,169.920811 309.954883,171.40359 C310.068903,171.51765 310.068903,171.51765 310.068903,171.63171 C310.182922,171.74577 310.296942,171.85983 310.296942,172.08795 C310.86704,173.000429 311.09508,174.141029 311.09508,175.281628 L311.09508,175.395688 C311.09508,175.623808 311.09508,175.851928 310.98106,176.080048 C310.98106,176.308168 310.86704,176.422228 310.86704,176.650348 C310.86704,176.764408 310.86704,176.878468 310.753021,176.878468 C310.639001,177.106588 310.524981,177.448767 310.410962,177.676887 C310.296942,178.019067 310.068903,178.361247 309.840863,178.703427 C309.840863,178.817487 309.726844,178.817487 309.726844,178.931547 C309.612824,179.159667 309.498804,179.273727 309.384785,179.501847 C308.130568,181.212746 306.648312,182.239285 304.709977,182.923645 C301.745466,183.950185 297.868796,183.722065 293.308009,182.809585 C289.431339,182.011166 284.870552,180.870566 279.967706,179.501847 C279.739666,179.501847 279.625646,179.387787 279.397607,179.387787 C278.37143,179.159667 277.345253,179.387787 276.547115,180.072146 L276.433095,180.186206 C275.406918,181.212746 274.380741,182.125225 273.354564,183.151765 L272.670446,183.836125 L270.276032,186.231384 L268.451717,188.056343 L267.197501,189.311002 C266.513383,189.995362 265.943284,190.679722 265.259166,191.364081 C264.917107,191.706261 264.575048,192.162501 264.118969,192.504681 C263.66289,192.960921 263.206812,193.417161 262.864753,193.8734 C261.496516,195.35618 260.12828,196.838959 258.760044,198.435798 C256.59367,191.021902 253.629158,183.950185 250.094548,177.448767 L265.259166,165.700593 C265.487205,165.586533 265.601225,165.358413 265.715245,165.244353 C266.057304,164.788113 266.399363,164.445933 266.627402,163.989693 L266.741422,163.875633 C266.969461,163.419394 267.197501,162.849094 267.42554,162.392854 C267.42554,162.278794 267.42554,162.278794 267.53956,162.164734 C267.767599,161.594434 267.881619,161.024135 267.995639,160.453835 L267.995639,160.339775 C268.109658,159.655415 268.223678,159.085116 268.337698,158.400756 C268.337698,158.058576 268.337698,157.716396 268.223678,157.488276 C268.109658,157.146096 268.109658,156.917976 267.995639,156.689857 C267.995639,156.575797 267.881619,156.347677 267.881619,156.233617 C267.767599,155.891437 267.767599,155.435197 267.653579,155.093017 L267.653579,154.978957 C267.42554,153.153998 267.31152,151.443099 267.42554,149.96032 L267.42554,149.84626 C267.42554,149.1619 267.53956,148.5916 267.653579,148.0213 L267.995639,146.310401 L267.995639,146.082281 C268.109658,145.626041 268.223678,145.055742 268.451717,144.599502 C268.451717,144.485442 268.451717,144.485442 268.565737,144.371382 C268.679757,143.915142 268.907796,143.458902 269.135835,143.002663 C269.363875,142.546423 269.591914,142.090183 269.819953,141.748003 C270.504072,140.607404 271.302209,139.580864 272.214367,138.782444 L272.556426,138.440265 C272.784465,138.326205 272.898485,138.098085 273.126524,137.984025 C273.354564,137.869965 273.468583,137.641845 273.696623,137.527785 C273.810642,137.413725 274.038682,137.299665 274.266721,137.185605 C274.494761,137.071545 274.60878,136.957485 274.83682,136.843425 C275.064859,136.729365 275.178879,136.615305 275.406918,136.501245 C275.634957,136.387185 275.748977,136.273125 275.977017,136.273125 C276.205056,136.159066 276.433095,136.045006 276.547115,136.045006 C276.775154,135.930946 276.889174,135.930946 277.117213,135.816886 C277.345253,135.702826 277.459272,135.702826 277.687312,135.588766 C277.915351,135.474706 278.143391,135.474706 278.37143,135.474706 C278.48545,135.474706 278.713489,135.360646 278.827509,135.360646 C279.169568,135.246586 279.625646,135.246586 279.967706,135.246586 L280.081725,135.246586 C280.765843,135.246586 281.335942,135.246586 282.02006,135.360646 C282.248099,135.360646 282.362119,135.474706 282.590158,135.474706 C282.704178,135.474706 282.704178,135.474706 282.818198,135.588766 C282.932217,135.588766 283.046237,135.702826 283.160257,135.702826 C283.274276,135.816886 283.502316,135.816886 283.616335,135.930946 C283.616335,135.930946 283.730355,135.930946 283.730355,136.045006 C285.212611,137.071545 286.580847,138.896504 287.264965,142.090183 C287.264965,142.204243 287.264965,142.318303 287.378985,142.432363 C287.378985,142.660483 287.493005,142.888603 287.493005,143.230782 C287.607025,143.572962 287.607025,143.915142 287.721044,144.257322 L287.721044,144.371382 C287.835064,144.827622 287.835064,145.397921 287.949084,145.968221 C288.063103,146.994761 288.519182,147.679121 289.2033,148.24942 C289.31732,148.24942 289.31732,148.36348 289.431339,148.36348 C289.773399,148.5916 290.229477,148.70566 290.685556,148.70566 L291.027615,148.70566 C291.825753,148.70566 292.73791,148.36348 293.308009,147.565061 L293.422028,147.451001 C293.764088,147.108821 294.106147,146.652581 294.448206,146.310401 L294.790265,145.968221 C295.132324,145.626041 295.360363,145.397921 295.702422,145.169802 C295.930462,144.941682 296.272521,144.713562 296.50056,144.485442 C296.61458,144.371382 296.842619,144.257322 296.956639,144.143262 C298.780954,142.774543 300.491249,142.090183 302.201544,141.748003 L302.543603,141.748003 C302.771643,141.748003 302.999682,141.633943 303.341741,141.633943 L304.595958,141.633943 C304.938017,141.633943 305.166056,141.633943 305.508115,141.748003 L305.736155,141.748003 C305.964194,141.748003 306.192233,141.862063 306.420273,141.976123 C306.534292,141.976123 306.762332,142.090183 306.876351,142.090183 C307.104391,142.204243 307.218411,142.204243 307.33243,142.318303 L308.016548,142.660483 C308.130568,142.660483 308.244588,142.774543 308.358607,142.774543 C308.586647,142.888603 308.928706,143.116722 309.156745,143.230782 C309.270765,143.230782 309.270765,143.344842 309.384785,143.344842 C309.612824,143.458902 309.840863,143.687022 310.068903,143.915142 C310.182922,144.029202 310.296942,144.029202 310.410962,144.143262 C310.524981,144.257322 310.753021,144.371382 310.86704,144.599502 C311.09508,144.713562 311.2091,144.941682 311.323119,145.169802 L311.551159,145.397921 C311.779198,145.626041 312.007237,145.968221 312.235277,146.310401 C315.427828,151.329039 316.225966,156.917976 312.919395,160.111655 L312.919395,160.111655 Z" id="Shape" fill="#000000"></path>
                <path d="M140.51037,125.771103 C146.350757,124.855517 151.618557,121.99431 155.283114,117.530827 C158.947671,113.067345 160.550914,107.573827 159.749293,102.08031 C158.031532,90.8643789 146.694309,83.3107926 134.440948,85.141965 C128.600561,86.0575512 123.33276,88.9187582 119.668204,93.382241 C116.003647,97.8457238 114.400403,103.339241 115.202025,108.832758 C116.690751,118.904207 126.081178,126 136.845813,126 C137.990987,126 139.250678,125.885552 140.51037,125.771103 Z M121.271447,107.917172 C120.69886,104.140379 121.844034,100.363586 124.363417,97.2734824 C126.997317,94.0689306 130.890908,91.8944134 135.24257,91.2077237 C144.174927,89.8343444 152.420179,95.0989651 153.565353,102.995896 C154.13794,106.772689 152.992766,110.549483 150.473383,113.639586 C147.839483,116.844138 143.945892,119.018655 139.594231,119.705345 C130.661874,121.078724 122.416621,115.814103 121.271447,107.917172 L121.271447,107.917172 Z M177.04142,39.9348955 C179.102733,38.904861 188.951229,40.96493 189.867368,39.1337576 C190.21092,38.5615162 189.981885,37.5314817 189.409299,36.5014472 C185.859259,28.7189643 180.362424,22.4243091 173.605898,17.3885849 C172.231689,16.3585504 170.85748,17.5030331 170.971998,19.3342056 C171.773619,27.0022402 173.834932,31.8090678 176.354315,38.2181713 C176.697867,38.7904127 176.812385,39.3626541 177.04142,39.9348955 L177.04142,39.9348955 Z M173.147828,105.055965 C173.605898,105.284862 174.063967,105.39931 174.522037,105.39931 C175.667211,105.39931 176.697867,104.827069 177.270454,103.682586 C178.301111,101.622517 180.591459,99.6768962 182.881807,98.9902066 C184.599568,98.5324135 186.088294,98.6468617 187.462503,99.3335514 C188.951229,100.134689 190.783507,99.6768962 191.585129,98.1890686 C192.272233,97.0445859 192.043199,95.7856548 191.356094,94.7556203 C191.127059,94.4122755 190.783507,94.1833789 190.439955,93.9544824 C187.57702,92.3522065 184.370533,92.0088617 181.049529,93.0388961 C177.04142,94.2978272 173.49138,97.2734824 171.773619,100.821379 C171.430067,101.508069 171.430067,102.194758 171.544585,102.767 C171.659102,103.797034 172.231689,104.598172 173.147828,105.055965 L173.147828,105.055965 Z M185.630224,108.489414 C185.172155,108.489414 184.714085,108.489414 184.256016,108.71831 C181.164046,110.206138 178.301111,117.187483 180.591459,120.506483 C182.538255,123.36769 187.118951,123.138793 189.065746,120.277586 C191.356094,117.187483 189.867368,108.947207 185.630224,108.489414 L185.630224,108.489414 Z" id="Shape" fill="#000000"></path>
                <circle id="Oval" fill="#A41034" cx="135" cy="102" r="7"></circle>
                <circle id="Oval" fill="#A41034" cx="204" cy="76" r="7"></circle>
                <path d="M85.6522147,94.8059295 C86.2230842,95.0345562 86.6797798,95.2631829 87.2506493,95.4918096 C88.1640406,90.9192759 101.636561,83.9461621 102.207431,78.5734351 C102.7783,73.0863947 91.5892577,61.4264338 86.6797798,58.3399736 C74.9198676,50.7952931 81.5419541,77.544615 81.9986497,80.5167619 C82.797867,85.5465489 84.6246495,90.2333959 85.6522147,94.8059295 L85.6522147,94.8059295 Z M47.0614347,218.835905 C27.0810013,215.520818 13.8368283,213.005925 13.037611,217.692772 C12.2383936,222.379619 24.2266537,232.439193 44.2070871,235.868593 C64.1875205,239.18368 84.5104756,234.611146 85.3096929,229.924299 C86.1089103,225.123139 67.0418681,222.150992 47.0614347,218.835905 Z M56.309521,185.913663 C37.4708267,182.712889 24.9116971,184.313276 24.2266537,188.771496 C23.4274363,193.229717 34.8448268,198.716757 53.6835212,201.917531 C72.5222156,205.118304 91.8176055,204.661051 92.502649,200.20283 C93.1876924,195.858923 75.1482154,189.114436 56.309521,185.913663 L56.309521,185.913663 Z M74.0064763,156.649447 C57.3370862,153.791614 42.7228263,158.821401 42.1519568,162.708054 C41.4669133,166.594708 55.0536081,168.080781 71.6088243,170.824302 C88.2782145,173.682135 101.750735,176.768595 102.435779,172.881942 C103.120822,168.995288 90.6758665,159.507281 74.0064763,156.649447 L74.0064763,156.649447 Z M120.931951,80.9740152 C121.274473,81.5455819 121.959516,81.888522 122.64456,81.888522 C123.101256,81.888522 123.443777,81.7742086 123.786299,81.5455819 C124.69969,80.8597019 124.928038,79.6022551 124.242995,78.6877484 C122.872908,76.7444216 121.388647,74.4581548 120.58943,71.9432612 C120.246908,70.9144412 119.105169,70.3428745 117.96343,70.6858145 C116.935865,71.0287545 116.364995,72.1718879 116.707517,73.3150213 C117.735082,76.1728549 119.447691,78.8020617 120.931951,80.9740152 L120.931951,80.9740152 Z M125.384734,73.543648 C125.955603,75.3726615 126.526473,77.3159883 127.439864,78.8020617 C127.782386,79.3736284 128.467429,79.7165685 129.152473,79.7165685 C129.494994,79.7165685 129.95169,79.6022551 130.294212,79.3736284 C131.207603,78.6877484 131.435951,77.4303016 130.865081,76.5157949 C130.294212,75.6012882 129.837516,74.0009014 129.266646,72.4005146 C128.809951,70.9144412 128.353255,69.3140544 127.668212,68.0566076 C127.097342,67.0277876 125.955603,66.6848475 124.928038,67.1421009 C123.900473,67.5993543 123.557951,68.856801 124.014647,69.8856211 C124.585516,70.9144412 124.928038,72.2862013 125.384734,73.543648 L125.384734,73.543648 Z M186.353599,48.2803996 C185.782729,47.3658928 184.412643,47.1372661 183.499251,47.7088329 C182.58586,48.3947129 182.357512,49.6521597 182.928382,50.5666664 C184.298469,52.5099932 185.440208,54.45332 186.696121,56.3966468 C187.038642,57.0825269 187.723686,57.4254669 188.408729,57.4254669 C188.751251,57.4254669 189.093773,57.3111535 189.436294,57.1968402 C190.46386,56.6252735 190.692207,55.3678267 190.121338,54.45332 C189.093773,52.2813665 187.83786,50.3380397 186.353599,48.2803996 Z M189.093773,47.1372661 C189.664642,48.0517729 190.007164,49.080593 190.349686,50.109413 C190.806381,51.5954865 191.377251,53.0815599 192.404816,54.45332 C192.747338,55.0248867 193.432381,55.2535134 194.003251,55.2535134 C194.459946,55.2535134 194.802468,55.1392001 195.14499,54.9105734 C196.058381,54.2246933 196.286729,52.9672466 195.601685,52.0527398 C194.916642,51.1382331 194.459946,49.9950997 194.117425,48.7376529 C193.660729,47.4802062 193.204033,46.2227594 192.51899,44.9653127 C191.94812,44.0508059 190.692207,43.7078659 189.778816,44.2794326 C188.865425,44.8509993 188.522903,46.1084461 189.093773,47.1372661 L189.093773,47.1372661 Z M144.109254,135.501479 C144.908471,134.701286 144.794298,133.329526 143.99508,132.643646 C143.195863,131.843452 141.825776,131.957766 141.140733,132.757959 L138.514733,135.730106 C135.660385,138.930879 132.57769,142.131653 129.95169,145.675366 C129.266646,146.589873 129.494994,147.84732 130.294212,148.5332 C130.636733,148.761827 131.093429,148.990453 131.550125,148.990453 C132.120994,148.990453 132.806037,148.761827 133.148559,148.19026 C135.774559,144.76086 138.514733,141.6744 141.483254,138.473626 L144.109254,135.501479 L144.109254,135.501479 Z M150.617167,136.987553 C149.703775,136.301672 148.447863,136.530299 147.762819,137.444806 C146.849428,138.702253 145.936037,139.845386 144.908471,140.988519 C142.054124,144.532233 139.085602,148.19026 137.372994,152.877107 C137.030472,153.905927 137.487168,155.04906 138.514733,155.506314 C138.743081,155.620627 138.971428,155.620627 139.199776,155.620627 C139.998994,155.620627 140.798211,155.163374 141.140733,154.248867 C142.624993,150.133587 145.250993,146.932813 147.991167,143.503413 C149.018732,142.36028 149.932123,141.102833 150.845515,139.845386 C151.644732,138.930879 151.530558,137.673433 150.617167,136.987553 L150.617167,136.987553 Z" id="Shape" fill="#000000"></path>
            </g>
        </g>
    </g>
</svg>