<?xml version="1.0" encoding="UTF-8"?>
<svg width="500px" height="500px" viewBox="0 0 500 500" version="1.1" xmlns="http://www.w3.org/2000/svg" xmlns:xlink="http://www.w3.org/1999/xlink">
    <!-- Generator: Sketch 46.1 (44463) - http://www.bohemiancoding.com/sketch -->
    <title>sql</title>
    <desc>Created with Sketch.</desc>
    <defs></defs>
    <g id="Page-1" stroke="none" stroke-width="1" fill="none" fill-rule="evenodd">
        <g id="sql" fill-rule="nonzero" fill="#000000">
            <g transform="translate(95.000000, 95.000000)" id="Shape">
                <path d="M184.421948,152.230289 C184.836935,151.232709 185.441858,150.3253 186.203065,149.55854 L186.245473,149.490686 L212.249782,123.502632 C215.563859,120.190806 220.935142,120.192705 224.246877,123.506873 C227.558613,126.821041 227.556714,132.19247 224.242637,135.504295 L212.733228,147.014018 L265.742664,147.014018 C270.426872,147.014018 274.224174,150.811423 274.224174,155.495759 C274.224174,160.180095 270.426872,163.9775 265.742664,163.9775 L212.733228,163.9775 L224.242637,175.487223 C226.447461,177.616771 227.331709,180.770312 226.55552,183.735778 C225.779331,186.701244 223.463498,189.017141 220.498112,189.793351 C217.532727,190.569562 214.379272,189.685289 212.249782,187.480405 L186.245473,161.500832 L186.203065,161.432978 C183.803828,159.007445 183.100965,155.375884 184.421948,152.230289 L184.421948,152.230289 Z M311,284.138326 C311,288.822662 307.202699,292.620067 302.51849,292.620067 L144.100851,292.620067 C140.521654,303.264652 130.572843,311 118.741137,311 C106.909431,311 96.9606196,303.264652 93.3814225,292.620067 L8.48150976,292.620067 C3.79730127,292.620067 0,288.822662 0,284.138326 C0,279.45399 3.79730127,275.656585 8.48150976,275.656585 L93.3814225,275.656585 C96.0510842,267.695846 102.299105,261.447655 110.259627,258.77792 L110.259627,200.593176 C72.4236119,199.312434 36.7588633,189.507541 36.7588633,169.278588 L36.7588633,31.4502959 C36.7588633,9.72007527 77.9281117,0 118.741137,0 C159.554162,0 200.72341,9.72007527 200.72341,31.4502959 L200.72341,78.6342215 C209.770483,75.260934 219.345322,73.5234007 229.000764,73.5027682 C274.207211,73.5027682 310.983037,110.279597 310.983037,155.495759 C310.983037,200.703439 274.207211,237.48875 229.000764,237.48875 C199.018627,237.48875 172.810761,221.254698 158.519417,197.166553 C148.935311,199.007091 138.358869,200.135162 127.222646,200.525322 L127.222646,258.786402 C135.181271,261.454382 141.428943,267.699085 144.100851,275.656585 L302.51849,275.656585 C307.202699,275.656585 311,279.45399 311,284.138326 Z M53.7218828,123.112472 C55.3588142,127.344861 76.901849,137.836774 118.741137,137.836774 C129.521136,137.836774 140.021245,137.031009 149.554462,135.580631 C152.438942,124.021856 157.814384,113.233047 165.304625,103.969182 C151.496727,107.251616 135.110451,108.846183 118.741137,108.846183 C94.1447584,108.846183 69.4890095,105.283852 53.7218828,97.7181389 L53.7218828,123.112472 L53.7218828,123.112472 Z M53.7218828,77.1668803 C55.3588142,81.3907874 76.901849,91.8827011 118.741137,91.8827011 C160.597387,91.8827011 182.148904,81.3907874 183.760391,77.1668803 L183.760391,51.7810293 C167.984782,59.3467423 143.329033,62.9090736 118.741137,62.9090736 C94.1532399,62.9090736 69.4890095,59.3467423 53.7218828,51.7810293 L53.7218828,77.1668803 L53.7218828,77.1668803 Z M229.000764,90.4662503 C193.14094,90.4662503 163.973028,119.64344 163.973028,155.495759 C163.973028,191.348079 193.149422,220.525268 229.000764,220.525268 C264.852105,220.525268 294.020017,191.348079 294.020017,155.495759 C294.020017,119.64344 264.860587,90.4662503 229.000764,90.4662503 Z M53.7218828,31.6877847 L53.7218828,31.7726021 C55.3588142,35.4536777 76.901849,45.9455914 118.741137,45.9455914 C160.707647,45.9455914 182.284608,35.377342 183.794317,31.1788802 C182.276126,27.5317315 160.699165,16.9634822 118.741137,16.9634822 C76.9103305,16.9634822 55.3588142,27.4553959 53.7218828,31.6793029 L53.7218828,31.6877847 Z M118.741137,183.773884 C129.623409,183.821278 140.491959,182.995903 151.242282,181.305697 C148.451596,172.98626 147.022448,164.270794 147.010009,155.495759 C147.010009,154.67303 147.111787,153.875747 147.137231,153.053018 C137.716911,154.220012 128.233461,154.803538 118.741137,154.800256 C94.1447584,154.800256 69.4890095,151.237925 53.7218828,143.672212 L53.7218828,169.066545 C55.3588142,173.290452 76.901849,183.773884 118.741137,183.773884 L118.741137,183.773884 Z M128.639059,284.138326 C128.419305,278.830995 124.052871,274.641506 118.741137,274.641506 C113.429403,274.641506 109.062969,278.830995 108.843215,284.138326 C109.062969,289.445657 113.429403,293.635146 118.741137,293.635146 C124.052871,293.635146 128.419305,289.445657 128.639059,284.138326 L128.639059,284.138326 Z"></path>
            </g>
        </g>
    </g>
</svg>