<svg xmlns="http://www.w3.org/2000/svg" data-name="Layer 1" viewBox="0 0 100 100" width="100" height="100"><path d="M12.69 38.91h10.5v3.44a1.5 1.5 0 0 0 3 0v-3.44h10.5a1.5 1.5 0 0 0 1.5-1.5v-10.5h3.5a1.5 1.5 0 0 0 0-3h-3.5v-10.5a1.5 1.5 0 0 0-1.5-1.5h-24a1.5 1.5 0 0 0-1.5 1.5v24a1.5 1.5 0 0 0 1.5 1.5zm1.5-24h21v21H25.08a1.35 1.35 0 0 0-.79 0h-10.1zM81.69 11.91h-14a6.51 6.51 0 0 0-6.5 6.5v5.5h-4.5a1.5 1.5 0 0 0 0 3h4.5v5.5a6.51 6.51 0 0 0 6.5 6.5h5.5v4.5a1.5 1.5 0 0 0 3 0v-4.5h5.5a6.51 6.51 0 0 0 6.5-6.5v-14a6.51 6.51 0 0 0-6.5-6.5zm3.5 20.5a3.5 3.5 0 0 1-3.5 3.5h-14a3.5 3.5 0 0 1-3.5-3.5v-14a3.5 3.5 0 0 1 3.5-3.5h14a3.5 3.5 0 0 1 3.5 3.5zM76.19 62v-3.59a1.5 1.5 0 0 0-3 0V62a13.52 13.52 0 0 0-11.92 11.91h-3.91a1.5 1.5 0 0 0 0 3h3.92A13.5 13.5 0 1 0 76.19 62zm-1.5 23.91a10.5 10.5 0 1 1 10.5-10.5 10.51 10.51 0 0 1-10.5 10.5zM51.69 26.91a1.5 1.5 0 0 0 0-3h-5a1.5 1.5 0 0 0 0 3zM24.69 45.85a1.5 1.5 0 0 0-1.5 1.5v5a1.5 1.5 0 0 0 3 0v-5a1.5 1.5 0 0 0-1.5-1.5zM52.36 73.91h-5a1.5 1.5 0 0 0 0 3h5a1.5 1.5 0 0 0 0-3zM42.36 73.91h-4.14l-5.9-10.22a1.5 1.5 0 0 0-1.3-.75h-5a1.5 1.5 0 0 0 .12-.58v-5a1.5 1.5 0 0 0-3 0v5a1.5 1.5 0 0 0 .12.58h-5a1.5 1.5 0 0 0-1.3.75l-6.34 11a1.5 1.5 0 0 0 0 1.5l6.34 11a1.5 1.5 0 0 0 1.3.75H31a1.5 1.5 0 0 0 1.3-.75l5.9-10.22h4.13a1.5 1.5 0 0 0 0-3zm-12.2 11H19.22l-5.47-9.47 5.47-9.47h10.94l5.47 9.47zM74.69 54.91a1.5 1.5 0 0 0 1.5-1.5v-5a1.5 1.5 0 0 0-3 0v5a1.5 1.5 0 0 0 1.5 1.5z"/></svg>