<svg xmlns="http://www.w3.org/2000/svg" viewBox="0 0 100 100" width="100" height="100"><path d="M39.016.078H3.07A2.998 2.998 0 0 0 .078 3.07v35.946a2.998 2.998 0 0 0 2.992 2.992h35.946a3.005 3.005 0 0 0 2.992-2.992V3.07A3.003 3.003 0 0 0 39.016.078zM92.93.078H56.984a2.998 2.998 0 0 0-2.992 2.992v35.946a2.998 2.998 0 0 0 2.992 2.992H92.93a3.007 3.007 0 0 0 2.992-2.992V3.07A3 3 0 0 0 92.93.078zM39.016 53.992H3.07a2.998 2.998 0 0 0-2.992 2.992V92.93a2.998 2.998 0 0 0 2.992 2.992h35.946a3.005 3.005 0 0 0 2.992-2.992V56.984a3.005 3.005 0 0 0-2.992-2.992zM92.93 53.992H56.984a2.998 2.998 0 0 0-2.992 2.992V92.93a2.998 2.998 0 0 0 2.992 2.992H92.93a3.007 3.007 0 0 0 2.992-2.992V56.984a3.003 3.003 0 0 0-2.992-2.992z"/></svg>