<svg xmlns="http://www.w3.org/2000/svg" viewBox="0 0 100 100" width="100" height="100"><path d="M47.7 32.7c1-1 1.6-2.4 1.6-3.9s-.6-2.9-1.6-3.9-2.4-1.6-3.9-1.6-2.9.6-3.9 1.6-1.6 2.4-1.6 3.9.6 2.9 1.6 3.9 2.4 1.6 3.9 1.6 2.9-.5 3.9-1.6zm-6.4-3.9c0-.7.3-1.3.7-1.8.5-.5 1.1-.7 1.8-.7s1.3.3 1.8.7.7 1.1.7 1.8-.3 1.3-.7 1.8c-.9.9-2.6.9-3.5 0-.5-.5-.8-1.1-.8-1.8zM33.6 36.4c-.8-.3-1.6.1-1.9.9l-18.9 48c-.2.6-.1 1.2.3 1.6.3.3.7.4 1.1.4.2 0 .4 0 .5-.1l48.1-18.9c.8-.3 1.1-1.1.9-1.9-5-14.1-15.9-25.1-30.1-30zM16.9 83.2L34 39.7c12.2 4.7 21.7 14.2 26.4 26.4L16.9 83.2zM49.5 12.2c4.6 9 4.7 19.7.2 28.7l2.7 1.3c4.9-9.9 4.8-21.6-.2-31.4l-2.7 1.4zM34.2 32.4c1.5-5.5.3-11.4-3.2-15.9l-2.4 1.9c2.9 3.7 3.9 8.7 2.7 13.2l2.9.8zM57.8 47.7l1.3 2.7c9-4.5 19.8-4.4 28.7.2l1.4-2.7c-9.8-5-21.5-5.1-31.4-.2zM67.7 65.9l.8 2.9c4.6-1.3 9.5-.3 13.2 2.7l1.9-2.4c-4.4-3.5-10.4-4.7-15.9-3.2zM84.3 19.2c-.2-.5-.8-.9-1.3-.9h-4L76.8 15c-.3-.5-.9-.7-1.4-.7-.6.1-1 .4-1.2 1l-1.4 3.8-3.9 1.1c-.5.2-1 .6-1.1 1.2-.1.6.1 1.1.6 1.5l3.1 2.4-.3 4c0 .6.3 1.1.8 1.4.2.1.5.2.7.2.3 0 .6-.1.9-.3l3.4-2.3 3.7 1.4c.5.2 1.1.1 1.5-.3.4-.4.6-1 .4-1.5L81.5 24l2.6-3.2c.3-.5.4-1.1.2-1.6zM78.4 24l.5 1.8-1.7-.6c-.5-.2-1-.1-1.4.2l-1.4 1 .1-1.7c0-.5-.2-1-.6-1.3l-1.4-1 1.8-.5c.5-.1.8-.5 1-.9l.6-1.7.9 1.4c.3.4.7.7 1.3.7h1.7l-1.1 1.4c-.4.2-.5.7-.3 1.2zM64.6 41c1.5 0 2.9-.6 3.9-1.6s1.6-2.4 1.6-3.9-.6-2.9-1.6-3.9-2.4-1.6-3.9-1.6-2.9.6-3.9 1.6-1.6 2.4-1.6 3.9.6 2.9 1.6 3.9c1.1 1 2.4 1.6 3.9 1.6zm-1.7-7.3c.5-.5 1.1-.7 1.8-.7s1.3.3 1.8.7.7 1.1.7 1.8-.3 1.3-.7 1.8c-.9.9-2.6.9-3.5 0-.5-.5-.7-1.1-.7-1.8s.1-1.3.6-1.8z"/><path d="M66.8 51.8c-1 1-1.6 2.4-1.6 3.9s.6 2.9 1.6 3.9 2.4 1.6 3.9 1.6 2.9-.6 3.9-1.6 1.6-2.4 1.6-3.9-.6-2.9-1.6-3.9c-2.2-2.1-5.6-2.1-7.8 0zm5.7 5.7c-.9.9-2.6.9-3.5 0-.5-.5-.7-1.1-.7-1.8s.3-1.3.7-1.8c.5-.5 1.1-.7 1.8-.7.6 0 1.3.2 1.8.7.5.5.7 1.1.7 1.8s-.4 1.3-.8 1.8zM17.5 39.2c.3.4.8.7 1.3.7h.2c.6-.1 1.1-.4 1.3-1l1.4-3.8 3.9-1.1c.5-.2 1-.6 1.1-1.2.1-.6-.1-1.1-.6-1.5L23 29l.3-4c0-.6-.2-1.1-.7-1.4-.5-.3-1.1-.3-1.6.1L17.6 26l-3.7-1.4c-.5-.2-1.1-.1-1.5.3-.4.4-.6 1-.4 1.5l1 3.8-2.6 3.2c-.4.4-.4 1.1-.2 1.6s.8.9 1.3.9h4l2 3.3zm-1.5-9l-.5-1.8 1.7.6c.5.2 1 .1 1.4-.2l1.4-1-.1 1.7c0 .5.2 1 .6 1.3l1.4 1-1.8.5c-.5.1-.8.5-1 .9l-.7 1.7-.9-1.4c-.3-.4-.7-.7-1.2-.7h-1.7l1.1-1.4c.3-.2.5-.7.3-1.2zM61 79.8c-.5.2-.9.7-1 1.3s.2 1.1.7 1.4l3.4 2.1.1 3.9c0 .6.4 1.1.9 1.3.2.1.4.1.6.1.3 0 .7-.1.9-.3l3.2-2.6 4 1c.5.1 1.1 0 1.5-.5.4-.4.5-1 .3-1.6l-1.5-3.6 2.3-3.3c.3-.5.4-1.1.1-1.6-.3-.5-.8-.8-1.4-.8l-4.1.5-2.5-3.1c-.4-.4-.9-.6-1.5-.5-.6.1-1 .5-1.1 1.1l-1 3.8-3.9 1.4zm5.6 1.2c.5-.2.8-.5.9-1l.5-1.8 1.1 1.4c.3.4.8.6 1.3.5l1.7-.1-1 1.4c-.3.4-.3 1-.2 1.4l.6 1.6-1.8-.5c-.5-.1-1 0-1.3.3L67 85.4l-.1-1.7c0-.5-.3-1-.7-1.2l-1.4-.9 1.8-.6z"/></svg>