<svg xmlns="http://www.w3.org/2000/svg" viewBox="0 0 100 100" width="100" height="100"><path d="M80.375 51.605c-1.975 0-3.82.549-5.407 1.489l-6.47-6.47a10.623 10.623 0 0 0 3.083-7.487c0-5.878-4.782-10.66-10.66-10.66-2.061 0-3.98.597-5.612 1.614l-6.466-6.466a10.61 10.61 0 0 0 2.893-7.278c0-5.878-4.782-10.66-10.66-10.66s-10.66 4.782-10.66 10.66c0 2.731 1.041 5.217 2.735 7.105l-6.515 6.515a10.577 10.577 0 0 0-5.407-1.489c-5.878 0-10.66 4.782-10.66 10.66s4.782 10.66 10.66 10.66 10.66-4.782 10.66-10.66c0-2.817-1.107-5.376-2.898-7.284l6.465-6.465a10.585 10.585 0 0 0 5.62 1.619 10.58 10.58 0 0 0 5.414-1.493l6.512 6.512a10.604 10.604 0 0 0-2.741 7.111c0 2.817 1.106 5.374 2.897 7.282l-6.675 6.675a10.577 10.577 0 0 0-5.407-1.489c-5.878 0-10.66 4.782-10.66 10.66 0 1.958.54 3.789 1.465 5.368l-6.848 6.848a10.577 10.577 0 0 0-5.407-1.489c-5.878 0-10.66 4.782-10.66 10.66s4.782 10.66 10.66 10.66 10.66-4.782 10.66-10.66c0-2.818-1.107-5.376-2.898-7.284l6.371-6.371a10.599 10.599 0 0 0 14.337.269l6.101 6.101a10.61 10.61 0 0 0-2.898 7.284c0 5.878 4.782 10.66 10.66 10.66s10.66-4.782 10.66-10.66-4.782-10.66-10.66-10.66c-1.975 0-3.819.549-5.407 1.489l-6.496-6.496a10.583 10.583 0 0 0 1.68-5.72c0-2.818-1.107-5.376-2.898-7.284l6.675-6.674a10.586 10.586 0 0 0 10.575.147l6.527 6.527a10.612 10.612 0 0 0-2.898 7.284c0 5.878 4.782 10.66 10.66 10.66s10.66-4.782 10.66-10.66-4.784-10.66-10.662-10.66zm-59.147-5.807c-3.673 0-6.66-2.987-6.66-6.66s2.987-6.66 6.66-6.66 6.66 2.987 6.66 6.66-2.988 6.66-6.66 6.66zm13.186-29.45c0-3.673 2.987-6.66 6.66-6.66s6.66 2.987 6.66 6.66-2.987 6.66-6.66 6.66-6.66-2.987-6.66-6.66zM19.625 90.313c-3.673 0-6.66-2.987-6.66-6.66s2.987-6.66 6.66-6.66 6.66 2.987 6.66 6.66-2.987 6.66-6.66 6.66zm21.449-21.387c-3.673 0-6.66-2.987-6.66-6.66s2.987-6.66 6.66-6.66 6.66 2.987 6.66 6.66-2.987 6.66-6.66 6.66zm27.543 14.726c0 3.673-2.987 6.66-6.66 6.66s-6.66-2.987-6.66-6.66 2.987-6.66 6.66-6.66 6.66 2.987 6.66 6.66zM54.26 39.138c0-3.673 2.987-6.66 6.66-6.66s6.66 2.987 6.66 6.66-2.987 6.66-6.66 6.66-6.66-2.987-6.66-6.66zm26.115 29.788c-3.673 0-6.66-2.987-6.66-6.66s2.987-6.66 6.66-6.66 6.66 2.987 6.66 6.66-2.987 6.66-6.66 6.66z"/></svg>