<svg xmlns="http://www.w3.org/2000/svg" viewBox="0 0 100 100" width="100" height="100"><g fill="#000" fill-rule="evenodd"><path d="M2 58h56V2H2v56zm57 2H1a1 1 0 0 1-1-1V1a1 1 0 0 1 1-1h58a1 1 0 0 1 1 1v58a1 1 0 0 1-1 1z"/><path d="M46 55c-4.963 0-9-4.038-9-9a1 1 0 1 1 2 0c0 3.86 3.141 7 7 7s7-3.14 7-7-3.141-7-7-7c-4.963 0-9-4.038-9-9s4.037-9 9-9 9 4.038 9 9a1 1 0 1 1-2 0c0-3.86-3.141-7-7-7s-7 3.14-7 7 3.141 7 7 7c4.963 0 9 4.038 9 9s-4.037 9-9 9M25 55c-4.963 0-9-4.038-9-9a1 1 0 1 1 2 0c0 3.86 3.141 7 7 7s7-3.14 7-7V22a1 1 0 1 1 2 0v24c0 4.962-4.037 9-9 9"/></g></svg>