<svg xmlns="http://www.w3.org/2000/svg" viewBox="0 0 100 100" width="100" height="100"><path d="M59.001 23.441a3.308 3.308 0 0 0-3.266 2.816H40.26v-8.126h6.506a3.312 3.312 0 0 0 6.549-.718 3.316 3.316 0 0 0-3.316-3.316 3.305 3.305 0 0 0-3.288 3.034H39.76a.501.501 0 0 0-.5.5V33.82c0 .03.012.056.017.084-.766.338-1.485.721-2.153 1.146-.111.072-.213.152-.32.225l.135-.076.1-.039a3.035 3.035 0 0 0-.287.152l.053-.037-.059.033-.051.033-.012.006-.037.025-.09.074.041-.029a2.804 2.804 0 0 0-.041.03c-.176.123-.359.24-.529.369a17.22 17.22 0 0 0-3.336 3.367c-2.807 3.719-3.945 8.039-4.305 10.651l-.002.027c-.029.355-.045.703-.064 1.055l-.018.09.01.049a43.284 43.284 0 0 0-.068 2.283c0 .82.031 1.619.078 2.408.004.092.01.182.016.273a42.097 42.097 0 0 0 .283 2.847 39.14 39.14 0 0 0 1.522 6.7 38.766 38.766 0 0 0 2.702 6.366H27.29a.498.498 0 0 0-.5.5v7.485a3.307 3.307 0 0 0-2.816 3.265 3.315 3.315 0 1 0 6.632 0 3.307 3.307 0 0 0-2.817-3.265v-6.985h5.183a.5.5 0 0 0 .354-.147c.193.34.383.691.579 1.013l.033.057c.252.414.506.818.76 1.203 3.227 4.888 6.453 7.388 6.482 7.411l.01.008A5.84 5.84 0 0 0 50 80.124a5.838 5.838 0 0 0 8.81 2.353l.01-.008c.03-.023 3.255-2.523 6.483-7.411.254-.385.506-.789.759-1.203l.033-.057a38.814 38.814 0 0 0 5.568-17.778l.017-.273a41.19 41.19 0 0 0 .078-2.408c0-.746-.028-1.51-.068-2.283l.01-.049-.019-.09c-.02-.352-.035-.699-.063-1.055l-.003-.027c-.359-2.612-1.497-6.932-4.305-10.651a17.103 17.103 0 0 0-3.335-3.367c-.169-.129-.354-.246-.529-.369a2.973 2.973 0 0 1-.042-.03l.042.029-.091-.074-.037-.025-.01-.006-.053-.033-.057-.033.052.037c-.093-.059-.19-.105-.287-.152l.101.039.135.076c-.109-.072-.21-.152-.322-.225-2.544-1.617-5.775-2.67-9.83-2.666-1.015 0-1.912.395-2.542 1.041-.199.203-.36.436-.503.682a3.404 3.404 0 0 0-.503-.682c-.63-.646-1.526-1.041-2.542-1.041-2.545-.002-4.765.412-6.695 1.12v-6.247h15.475c.242 1.593 1.604 2.816 3.266 2.816s3.023-1.223 3.266-2.816h2.734l.015-.003a3.307 3.307 0 0 0 3.267 2.819 3.315 3.315 0 1 0 0-6.632 3.309 3.309 0 0 0-3.267 2.819l-.015-.003h-2.734a3.313 3.313 0 0 0-3.268-2.817zM50 15.097a2.32 2.32 0 0 1 2.316 2.316A2.318 2.318 0 0 1 50 19.729a2.319 2.319 0 0 1-2.316-2.316A2.32 2.32 0 0 1 50 15.097zM29.606 83.183a2.319 2.319 0 0 1-2.316 2.316 2.319 2.319 0 0 1-2.316-2.316 2.318 2.318 0 0 1 2.313-2.315l.003.001.003-.001a2.317 2.317 0 0 1 2.313 2.315zm10.248-48.439c-.08.15-.146.309-.199.473a3.005 3.005 0 0 0-.428-.188c.206-.097.415-.193.627-.285zM29.38 49.958c.043-.32.105-.678.178-1.051.057-.289.123-.592.197-.909.09-.178.201-.35.35-.498a1.91 1.91 0 0 1 1.355-.562c.433.002.856.154 1.21.444l-.163.133a2.914 2.914 0 0 0 0 4.124.502.502 0 0 0 .709-.708 1.91 1.91 0 0 1 0-2.709 1.912 1.912 0 0 1 1.354-.563c.482.002.957.182 1.33.542l.021.025a.5.5 0 0 0 .707 0l.002-.002.002-.002a.502.502 0 0 0 0-.708l-.025-.021a1.918 1.918 0 0 1-.541-1.33 1.93 1.93 0 0 1 .281-.988 1.834 1.834 0 0 1 1.16-.859l.246-.045.229-.023c.412.002.814.139 1.156.398l.199.164a.5.5 0 0 0 .707-.707l-.262-.215a2.883 2.883 0 0 0-.446-3.528.5.5 0 0 0-.707.707 1.905 1.905 0 0 1 .28 2.344 2.894 2.894 0 0 0-.928-.162 2.895 2.895 0 0 0-1.863.691l-.197.162c-.182.18-.322.383-.447.596a2.915 2.915 0 0 0-.408 1.465c0 .184.02.369.053.551a2.864 2.864 0 0 0-1.559.135l-.037-.056a2.91 2.91 0 0 0-2.062-.854c-.42-.002-.832.117-1.221.303.145-.455.305-.916.486-1.391a2.895 2.895 0 0 0 3.762-.295c.57-.568.855-1.316.855-2.062a2.91 2.91 0 0 0-.854-2.061.5.5 0 0 0-.707.707c.375.375.561.863.561 1.354 0 .492-.186.98-.562 1.355a1.901 1.901 0 0 1-1.354.561c-.477 0-.943-.176-1.314-.525.604-1.377 1.381-2.785 2.377-4.1a17.039 17.039 0 0 1 1.896-2.111l-.01.107c0 .604.197 1.205.57 1.715a2.92 2.92 0 0 0-.514 1.645c0 .744.287 1.494.855 2.062a.5.5 0 0 0 .707-.707 1.91 1.91 0 0 1 0-2.71 1.904 1.904 0 0 1 1.355-.561l.139.014a2.9 2.9 0 0 0 1.936.75 2.91 2.91 0 0 0 1.008-.186c-.092.287-.15.584-.15.883 0 .604.197 1.205.57 1.715a2.92 2.92 0 0 0-.514 1.645c0 .621.211 1.24.609 1.762a2.902 2.902 0 0 0-.365 1.17 2.888 2.888 0 0 0-1.742-.594 2.884 2.884 0 0 0-1.41.377.494.494 0 0 0-.65.037.498.498 0 0 0-.092.572l.092.135c.172.172.299.369.391.579.109.246.17.51.17.777 0 .492-.188.979-.562 1.355a1.91 1.91 0 0 1-2.681.024l-.021-.029a.5.5 0 0 0-.707 0l-.002.002-.004.004a.5.5 0 0 0 0 .707l.027.023a1.909 1.909 0 0 1-.023 2.682 1.903 1.903 0 0 1-2.671.03l.023-.232a2.912 2.912 0 0 0-1.43-2.499l-.209-.102a2.795 2.795 0 0 0-.736-.264c.011-.202.017-.401.035-.604zm15.821-5.534a2.881 2.881 0 0 0-.727-.104 2.894 2.894 0 0 0-1.864.693 1.918 1.918 0 0 1-.271-.969 1.919 1.919 0 0 1 1.917-1.916c.464 0 .921.172 1.286.506a2.911 2.911 0 0 0-.377 1.41c.001.128.021.253.036.38zm-.025-3.135c-.299-.1-.609-.16-.919-.16a2.891 2.891 0 0 0-1.691.551 1.903 1.903 0 0 1 .279-2.349 1.906 1.906 0 0 1 1.354-.562c.466.002.923.174 1.288.508a2.913 2.913 0 0 0-.379 1.41c-.001.202.025.403.068.602zm-2.501 11.163a.499.499 0 1 0 1 0c0-.795-.523-1.461-1.242-1.692.016-.096.039-.188.066-.279.045-.105.076-.217.109-.326a2.512 2.512 0 0 1 2.165-1.49c.623.59 1.422.895 2.222.893a3.22 3.22 0 0 0 2.289-.947l.716-.609.716.607a3.22 3.22 0 0 0 2.289.947c.8.002 1.6-.303 2.222-.893a2.513 2.513 0 0 1 2.165 1.49c.033.109.063.221.11.326.026.092.05.184.066.279a1.78 1.78 0 0 0-1.243 1.692.5.5 0 1 0 1 0 .785.785 0 0 1 1.568 0 .5.5 0 1 0 1 0c0-.689-.396-1.279-.968-1.579l-.12-.221a1.868 1.868 0 0 1-.38-.555c-.038-.119-.072-.24-.123-.354a1.986 1.986 0 0 1-.059-.447c.001-.49.187-.979.562-1.354a1.894 1.894 0 0 1 2.167-.373 2.914 2.914 0 0 0-.314 1.29c0 .744.286 1.494.855 2.062.198.2.425.35.66.481a2.907 2.907 0 0 0-2.515 2.875 1.918 1.918 0 0 1-1.916 1.916 1.918 1.918 0 0 1-1.917-1.916l-.009-.047.009-.047a3.165 3.165 0 0 0-3.165-3.166c-.836 0-1.59.33-2.156.857h-.011l-.47.662-.519-.662h-.011a3.158 3.158 0 0 0-5.322 2.309l.01.047-.01.047a1.919 1.919 0 0 1-1.916 1.916 1.92 1.92 0 0 1-1.918-1.916 2.907 2.907 0 0 0-2.514-2.875 2.88 2.88 0 0 0 .66-.481 2.915 2.915 0 0 0 .855-2.062c0-.443-.113-.883-.314-1.29.258-.121.533-.188.814-.188.492 0 .979.186 1.354.561.375.375.561.864.561 1.354 0 .15-.023.301-.059.447-.051.113-.084.234-.123.354a1.877 1.877 0 0 1-.379.555l-.121.221a1.78 1.78 0 0 0-.967 1.579.499.499 0 1 0 1 0c0-.432.352-.783.783-.783a.79.79 0 0 1 .788.785zm11.781-9.817a1.904 1.904 0 0 1 2.642.055c.375.375.562.863.562 1.355 0 .338-.095.67-.271.969a2.893 2.893 0 0 0-1.865-.693c-.244 0-.487.041-.726.104.016-.127.036-.252.036-.379a2.902 2.902 0 0 0-.378-1.411zm.058-3.36a1.911 1.911 0 0 1 1.287-.508 1.92 1.92 0 0 1 1.917 1.917 1.922 1.922 0 0 1-.283.994 2.9 2.9 0 0 0-1.69-.551c-.312 0-.62.061-.92.16.043-.199.067-.4.067-.604a2.913 2.913 0 0 0-.378-1.408zm7.411 27.747c.244.243.525.424.821.564a3.018 3.018 0 0 0-1.985 2.85l.001.016-.23.123c-.376.376-.863.562-1.355.562s-.979-.186-1.354-.562a1.909 1.909 0 0 1-.279-2.349 2.912 2.912 0 0 0 1.69.551 2.91 2.91 0 0 0 2.062-.854.5.5 0 0 0-.707-.708 1.912 1.912 0 0 1-2.71 0 1.908 1.908 0 0 1-.011-2.696l.021-.014c.269-.268.469-.579.611-.909l.005.006a2.91 2.91 0 0 0 2.62.799 2.915 2.915 0 0 0 .8 2.621zm-23.221.902a2.91 2.91 0 0 0 2.062.854 2.9 2.9 0 0 0 1.689-.551 1.902 1.902 0 0 1-.278 2.349c-.377.376-.863.562-1.355.562s-.98-.186-1.355-.562l-.23-.123.002-.016a3.039 3.039 0 0 0-1.985-2.85c.295-.141.576-.321.82-.564a2.907 2.907 0 0 0 .801-2.62 2.91 2.91 0 0 0 2.619-.799l.006-.006c.141.33.342.642.611.909l.02.014a1.908 1.908 0 0 1-.011 2.696 1.91 1.91 0 0 1-2.709 0 .5.5 0 0 0-.707.707zm-2.685-16.187l-.135.072-.008-.086.143.014zm-6.776 1.602c0-.578.014-1.168.039-1.762a1.916 1.916 0 0 1 1.436 1.848 1.915 1.915 0 0 1-1.426 1.844 42.086 42.086 0 0 1-.049-1.93zm.604 6.897c.43.25.922.403 1.455.403a2.918 2.918 0 0 0 2.918-2.915.5.5 0 1 0-1 0 1.92 1.92 0 0 1-1.918 1.915 1.913 1.913 0 0 1-1.717-1.083 39.237 39.237 0 0 1-.229-2.272 2.904 2.904 0 0 0 2.051-1.576c.35.23.74.371 1.141.436-.285.451-.457.98-.457 1.553a.5.5 0 0 0 1 0 1.92 1.92 0 0 1 1.918-1.916 1.919 1.919 0 0 1 1.916 1.916.499.499 0 1 0 1 0c0-1.42-1.018-2.6-2.361-2.859a1.917 1.917 0 0 1 1.859-1.475 1.918 1.918 0 0 1 1.916 1.916 2.902 2.902 0 0 0 1.096 2.26l.055.082c.375.375.561.863.561 1.355 0 .491-.186.979-.562 1.354a1.901 1.901 0 0 1-2.614.079 2.896 2.896 0 0 0-.805-1.538.5.5 0 0 0-.707.706c.375.375.561.861.561 1.354s-.186.98-.561 1.356a1.914 1.914 0 0 1-1.355.562 1.912 1.912 0 0 1-1.209-.441 2.818 2.818 0 0 0-.432-.57.5.5 0 0 0-.707.707l.158.193a.482.482 0 0 0 .127.257l.068.056c.133.268.207.556.207.85 0 .492-.188.979-.562 1.355a1.91 1.91 0 0 1-1.714.526 37.517 37.517 0 0 1-1.097-4.546zm6.109 14.876c.137.02.271.039.408.039.207 0 .412-.04.615-.086a2.761 2.761 0 0 0-.072.601c0 .358.072.697.191 1.016a43.455 43.455 0 0 1-1.142-1.57zm13.539 2.664a4.836 4.836 0 0 1-3.852 4.737l-.033-.008a1.918 1.918 0 0 1-1.915-1.916 1.92 1.92 0 0 1 1.915-1.916.499.499 0 1 0 0-1 1.918 1.918 0 0 1-1.915-1.917 1.92 1.92 0 0 1 1.915-1.916.499.499 0 1 0 0-1c-.654 0-1.251.224-1.737.586a2.383 2.383 0 0 0-.613-1.1.5.5 0 0 0-.707.707c.268.27.402.619.402.974s-.133.702-.402.972-.619.402-.975.403a1.377 1.377 0 0 1-.973-.402.5.5 0 0 0-.707.707c.346.345.771.561 1.217.648l.205.047a1.795 1.795 0 0 1 1.791 1.791 1.794 1.794 0 0 1-1.791 1.791.5.5 0 0 0 0 1 2.77 2.77 0 0 0 1.375-.375c0 .699.256 1.334.668 1.836a4.79 4.79 0 0 1-1.576-.752l-.023-.02-.102-.082a18.955 18.955 0 0 1-.391-.334c-.34-.299-.83-.75-1.418-1.35a33.534 33.534 0 0 1-1.594-1.768 2.89 2.89 0 0 0 1.564.463.501.501 0 0 0 0-1.001 1.918 1.918 0 0 1-1.916-1.917 1.918 1.918 0 0 1 1.916-1.916.5.5 0 0 0 0-1c-.73 0-1.389.279-1.9.724l-.205.117c-.375.375-.861.561-1.354.561a1.911 1.911 0 0 1-1.586-.842l-.047-.079a1.907 1.907 0 0 1 .276-2.35.5.5 0 0 0-.707-.708 2.89 2.89 0 0 0-.678 1.097 37.8 37.8 0 0 1-2.35-5.458l.029.004c.436 0 .867-.109 1.268-.303a.484.484 0 0 0 .404-.137c.352-.35.807-.523 1.268-.523.459 0 .916.174 1.266.523a.5.5 0 0 0 .707-.707 2.782 2.782 0 0 0-1.973-.816l-.197.019c.111-.315.176-.644.176-.972l-.018-.178c.264.076.533.127.805.127.744 0 1.494-.286 2.062-.854.402-.403.656-.898.773-1.417.408.201.848.315 1.291.314a2.9 2.9 0 0 0 1.746-.596c.309.359.469.797.471 1.244 0 .108-.014.215-.031.322l-.014.072a1.91 1.91 0 0 1-3.227.962.5.5 0 0 0-.707 0l-.002.002-.002.001a.5.5 0 0 0 0 .707c.375.375.561.862.561 1.354s-.186.98-.561 1.356c-.375.375-.863.56-1.355.56s-.979-.185-1.355-.56l-.148-.1a2.447 2.447 0 0 0-.266-.324.5.5 0 0 0-.707.707c.32.318.479.733.479 1.153s-.158.835-.479 1.155a.5.5 0 0 0 .707.707c.176-.175.309-.373.426-.578l.072-.049c.4-.401.922-.6 1.449-.601a2.03 2.03 0 0 1 1.447.601 2.04 2.04 0 0 1 0 2.898.5.5 0 0 0 .707.707c.318-.317.545-.688.693-1.084a2.91 2.91 0 0 0 1.785.628 2.91 2.91 0 0 0 2.062-.854 2.88 2.88 0 0 0 .568-.83 2.896 2.896 0 0 0 2.153.971h.002a1.918 1.918 0 0 1 1.916 1.917 1.918 1.918 0 0 1-1.916 1.916.5.5 0 1 0 0 1 1.92 1.92 0 0 1 1.916 1.918 1.92 1.92 0 0 1-1.916 1.916.499.499 0 1 0 0 .998 2.917 2.917 0 0 0 1.633-5.331 2.918 2.918 0 0 0-1.629-5.335h-.002a1.914 1.914 0 1 1-.037-3.828l.037.004c.275 0 .5-.225.5-.5l-.002-.006v-.002a.5.5 0 0 0-.5-.5l-.035.004a1.917 1.917 0 0 1-1.88-1.913c0-1.058.858-1.916 1.917-1.917a.5.5 0 0 0 .498-.5l-.016-.082a.494.494 0 0 0-.484-.418l-.104.012-.215-.055a1.534 1.534 0 0 1-1.532-1.531 1.533 1.533 0 0 1 1.532-1.53.5.5 0 0 0 0-1 2.53 2.53 0 0 0-2.532 2.53c0 .896.469 1.68 1.172 2.129a2.883 2.883 0 0 0-1.232 2.33 1.903 1.903 0 0 1-.441-1.205c0-.107.014-.215.031-.322l.014-.072c.029-.17.049-.34.049-.512 0-.393-.084-.783-.244-1.151a2.873 2.873 0 0 0-.533-.815 2.929 2.929 0 0 0 .477-1.597c0-.275-.053-.548-.131-.814.113.013.223.033.338.033a2.916 2.916 0 0 0 2.915-2.916l-.008-.047.008-.047a2.169 2.169 0 0 1 2.166-2.166 2.165 2.165 0 0 1 2.157 2.055v2.049a2.796 2.796 0 0 0-2.576-1.719.5.5 0 0 0 0 1 1.795 1.795 0 0 1 1.791 1.791 1.795 1.795 0 0 1-1.791 1.791.5.5 0 0 0 0 1 2.793 2.793 0 0 0 2.576-1.719v5.614a3.165 3.165 0 0 0-2.278-.972v-.001h-.004v.002a.499.499 0 0 0-.008.998h.008c1.203.002 2.18.98 2.182 2.184a2.188 2.188 0 0 1-2.184 2.185v.001a.499.499 0 1 0-.189.96l.207.054h.014a2.23 2.23 0 0 1 2.227 2.228v.001l.025.126v6.132zm-5.861-11.399c.029-.171.049-.343.049-.516v-.007c.094.084.186.169.291.241a2.858 2.858 0 0 0-.34.282zm5.859 2.834a3.242 3.242 0 0 0-.576-.438c.21-.134.405-.29.578-.469v.01l.511-.512.508.509c.171.176.362.33.569.462-.19.116-.366.251-.528.402l-.549.55-.513-.514zm13.408 7.471c.118-.318.192-.657.192-1.016 0-.208-.029-.406-.073-.601.203.046.408.086.616.086.136 0 .271-.02.406-.039a39.09 39.09 0 0 1-1.141 1.57zm3.478-5.413a2.898 2.898 0 0 0-.68-1.097.5.5 0 0 0-.707.708c.375.376.561.863.562 1.355a1.929 1.929 0 0 1-.284.995l-.047.079a1.905 1.905 0 0 1-1.585.842c-.492 0-.979-.186-1.354-.561l-.205-.117a2.889 2.889 0 0 0-1.899-.724.5.5 0 0 0 0 1 1.919 1.919 0 0 1 1.916 1.916 1.919 1.919 0 0 1-1.916 1.917.5.5 0 0 0 0 1.001c.577 0 1.111-.174 1.564-.463a33.896 33.896 0 0 1-1.596 1.768c-.588.6-1.076 1.051-1.416 1.35-.17.148-.303.262-.393.334l-.101.082-.023.02a4.805 4.805 0 0 1-1.575.752 2.89 2.89 0 0 0 .668-1.836 2.76 2.76 0 0 0 1.374.375.5.5 0 1 0 0-1 1.794 1.794 0 0 1-1.791-1.791 1.795 1.795 0 0 1 1.791-1.791l.205-.047a2.365 2.365 0 0 0 1.216-.648.5.5 0 0 0-.707-.707 1.378 1.378 0 0 1-2.349-.973c.001-.354.134-.704.403-.974a.501.501 0 0 0-.708-.707 2.357 2.357 0 0 0-.614 1.1 2.897 2.897 0 0 0-1.736-.586.5.5 0 0 0 0 1 1.92 1.92 0 0 1 1.916 1.916 1.918 1.918 0 0 1-1.916 1.917.5.5 0 0 0 0 1 1.92 1.92 0 0 1 1.916 1.916 1.918 1.918 0 0 1-1.916 1.916l-.032.008a4.843 4.843 0 0 1-3.853-4.737v-6.131l.025-.126v-.001a2.232 2.232 0 0 1 2.227-2.228h.014l.207-.054a.499.499 0 0 0-.189-.96v-.001a2.188 2.188 0 0 1-2.184-2.185 2.189 2.189 0 0 1 2.182-2.184h.009a.499.499 0 0 0-.009-.998v-.002h-.004v.001c-.895.001-1.7.375-2.277.972v-5.614a2.793 2.793 0 0 0 2.575 1.719.5.5 0 0 0 0-1 1.795 1.795 0 0 1-1.791-1.791 1.795 1.795 0 0 1 1.791-1.791.5.5 0 1 0 0-1 2.796 2.796 0 0 0-2.575 1.719V54.073a2.164 2.164 0 0 1 2.156-2.055 2.168 2.168 0 0 1 2.165 2.166l.01.047-.01.047a2.917 2.917 0 0 0 2.917 2.916c.115 0 .225-.021.336-.033-.077.267-.13.539-.13.814 0 .554.16 1.112.478 1.597a2.88 2.88 0 0 0-.728 2.478l.013.072c.018.107.03.215.03.322 0 .432-.151.854-.439 1.205a2.888 2.888 0 0 0-1.233-2.33 2.522 2.522 0 0 0 1.172-2.129 2.531 2.531 0 0 0-2.531-2.53.5.5 0 1 0 0 1c.845.001 1.53.685 1.531 1.53a1.533 1.533 0 0 1-1.531 1.531l-.216.055-.104-.012a.495.495 0 0 0-.484.418l-.017.082a.5.5 0 0 0 .5.5 1.917 1.917 0 0 1 1.916 1.917 1.917 1.917 0 0 1-1.88 1.913l-.036-.004a.5.5 0 0 0-.5.5l.001.002-.005.008a.5.5 0 0 0 .5.5l.037-.004a1.914 1.914 0 0 1-.037 3.828h-.001a2.918 2.918 0 0 0-1.629 5.335 2.916 2.916 0 0 0 1.633 5.331.5.5 0 1 0 0-.998 1.92 1.92 0 0 1-1.916-1.916 1.92 1.92 0 0 1 1.916-1.918.5.5 0 0 0 0-1h-.001a1.919 1.919 0 0 1-1.916-1.916 1.919 1.919 0 0 1 1.916-1.917h.001a2.897 2.897 0 0 0 2.154-.971c.141.3.323.584.569.83a2.91 2.91 0 0 0 2.062.854c.632 0 1.261-.219 1.786-.628.147.396.374.767.691 1.084a.5.5 0 0 0 .707-.707c-.4-.401-.6-.923-.6-1.449 0-.527.199-1.049.6-1.449.401-.402.923-.6 1.448-.601a2.039 2.039 0 0 1 1.449.601l.073.049c.115.205.25.403.424.578a.5.5 0 0 0 .707-.707 1.63 1.63 0 0 1 0-2.308.5.5 0 0 0-.707-.707 2.79 2.79 0 0 0-.266.324l-.148.1c-.375.375-.862.56-1.354.56s-.979-.185-1.355-.56a1.914 1.914 0 0 1 0-2.71.5.5 0 0 0 0-.707l-.002-.001-.001-.002a.5.5 0 0 0-.707 0 1.912 1.912 0 0 1-3.228-.962l-.013-.072a1.938 1.938 0 0 1-.03-.322c0-.447.161-.885.471-1.244.517.39 1.13.597 1.746.596a2.91 2.91 0 0 0 1.29-.314 2.891 2.891 0 0 0 2.836 2.271c.271 0 .539-.051.803-.127l-.017.178c0 .328.065.656.177.972l-.197-.019a2.789 2.789 0 0 0-1.975.816.5.5 0 0 0 .707.707c.352-.35.807-.523 1.268-.523.459 0 .915.174 1.266.523a.494.494 0 0 0 .406.137c.4.193.831.303 1.266.303l.029-.004a38.176 38.176 0 0 1-2.348 5.455zm-10.012-4.892a2.766 2.766 0 0 0-.341-.281c.104-.072.197-.157.292-.241l-.001.007c0 .172.02.344.05.515zm14.047-7.82a1.912 1.912 0 0 1-1.717 1.083 1.919 1.919 0 0 1-1.917-1.915.5.5 0 0 0-1 0 2.918 2.918 0 0 0 2.917 2.915c.533 0 1.026-.153 1.456-.403a37.563 37.563 0 0 1-1.097 4.543 1.912 1.912 0 0 1-1.714-.526 1.912 1.912 0 0 1-.562-1.355c.001-.294.075-.582.208-.85l.067-.056a.498.498 0 0 0 .128-.257l.158-.193a.5.5 0 0 0-.707-.707 2.943 2.943 0 0 0-.434.57c-.352.289-.775.44-1.207.441a1.91 1.91 0 0 1-1.355-.562c-.376-.376-.562-.864-.562-1.356s.186-.979.561-1.354a.5.5 0 1 0-.707-.706 2.895 2.895 0 0 0-.804 1.538 1.905 1.905 0 0 1-2.615-.079 1.91 1.91 0 0 1 0-2.709l.055-.082a2.894 2.894 0 0 0 1.094-2.26 1.918 1.918 0 0 1 1.917-1.916 1.917 1.917 0 0 1 1.859 1.475 2.915 2.915 0 0 0-2.361 2.859.5.5 0 1 0 1 0 1.918 1.918 0 0 1 1.917-1.916 1.918 1.918 0 0 1 1.916 1.916.5.5 0 0 0 1 0c0-.572-.171-1.102-.456-1.553.399-.064.79-.205 1.141-.436a2.902 2.902 0 0 0 2.051 1.576 39.157 39.157 0 0 1-.23 2.275zm-6.433-6.82l.143-.014-.008.086-.135-.072zm6.776 1.602c0 .654-.02 1.297-.05 1.93a1.914 1.914 0 0 1-1.425-1.844 1.913 1.913 0 0 1 1.436-1.848c.025.594.039 1.184.039 1.762zm-6.191-12.198a2.908 2.908 0 0 0-.513-1.645 2.91 2.91 0 0 0 .57-1.715l-.011-.107a17.137 17.137 0 0 1 1.898 2.111 20.29 20.29 0 0 1 2.375 4.1c-.37.35-.838.525-1.313.525-.492 0-.979-.186-1.354-.561s-.562-.863-.562-1.355c0-.49.186-.979.561-1.354a.5.5 0 0 0-.707-.707 2.91 2.91 0 0 0-.854 2.061 2.907 2.907 0 0 0 .854 2.062 2.907 2.907 0 0 0 2.062.854 2.88 2.88 0 0 0 1.7-.559c.183.475.343.936.486 1.391-.389-.186-.8-.305-1.22-.303a2.9 2.9 0 0 0-2.062.854l-.036.056a2.92 2.92 0 0 0-1.012-.188c-.184 0-.367.018-.549.053.035-.182.053-.367.053-.551a2.895 2.895 0 0 0-.408-1.465 2.831 2.831 0 0 0-.445-.596l-.199-.162a2.887 2.887 0 0 0-1.863-.691 2.93 2.93 0 0 0-.927.162 1.91 1.91 0 0 1-.282-.99c.001-.49.187-.979.562-1.354a.5.5 0 0 0-.707-.707 2.91 2.91 0 0 0-.854 2.061c0 .508.144 1.014.409 1.467l-.262.215a.5.5 0 0 0 .707.707l.199-.164a1.92 1.92 0 0 1 1.155-.398l.23.023.246.045a1.9 1.9 0 0 1 .879.494c.112.111.201.236.279.365a1.897 1.897 0 0 1-.258 2.318l-.026.021a.502.502 0 0 0 0 .708l.003.002.002.002a.5.5 0 0 0 .707 0l.021-.025a1.91 1.91 0 0 1 1.328-.542 1.917 1.917 0 0 1 1.355 3.272.5.5 0 1 0 .707.708 2.913 2.913 0 0 0 0-4.124l-.163-.133c.353-.29.777-.442 1.211-.444.492.002.979.188 1.354.562a1.9 1.9 0 0 1 .351.498 22.735 22.735 0 0 1 .375 1.96c.017.203.023.402.036.604a2.773 2.773 0 0 0-.736.264l-.208.102a2.907 2.907 0 0 0-1.43 2.499l.023.232a1.903 1.903 0 0 1-2.671-.03 1.914 1.914 0 0 1-.024-2.682l.028-.023a.5.5 0 0 0 0-.707l-.004-.004-.001-.002a.5.5 0 0 0-.707 0l-.023.029a1.911 1.911 0 0 1-2.68-.024 1.906 1.906 0 0 1-.562-1.355c.001-.268.061-.531.17-.777.093-.209.22-.407.392-.579l.09-.135a.496.496 0 0 0-.09-.572.493.493 0 0 0-.65-.037 2.89 2.89 0 0 0-1.41-.377 2.89 2.89 0 0 0-1.744.594 2.885 2.885 0 0 0-.364-1.17 2.909 2.909 0 0 0 .608-1.762 2.908 2.908 0 0 0-.513-1.645 2.91 2.91 0 0 0 .57-1.715c0-.299-.059-.596-.15-.883.325.119.666.186 1.007.186a2.904 2.904 0 0 0 1.937-.75l.14-.014c.492 0 .979.186 1.354.561s.562.863.562 1.355-.187.98-.562 1.355a.5.5 0 0 0 .707.707 2.909 2.909 0 0 0 .853-2.062zm-3.794-6.112a2.991 2.991 0 0 0-.428.188 2.938 2.938 0 0 0-.199-.473c.214.092.422.188.627.285zm-3.19-.838a1.92 1.92 0 0 1 1.917 1.918.5.5 0 0 0 .5.5c.174 0 .32-.096.409-.23.368-.34.83-.514 1.299-.516a1.93 1.93 0 0 1 1.013.295l.067.043a1.91 1.91 0 0 1 .837 1.58 1.922 1.922 0 0 1-.283.994 2.9 2.9 0 0 0-1.69-.551 2.903 2.903 0 0 0-1.937.75l-.14.014c-.492 0-.979-.186-1.354-.561a1.902 1.902 0 0 1-.562-1.355c.001-.492.187-.979.562-1.354a.5.5 0 0 0-.707-.707 2.907 2.907 0 0 0-.854 2.061c0 .299.059.596.15.883a2.933 2.933 0 0 0-1.007-.186 2.9 2.9 0 0 0-1.912.73 2.89 2.89 0 0 0-1.565-.697 1.915 1.915 0 0 1-.07-.486c0-.492.186-.98.561-1.355a1.907 1.907 0 0 1 1.355-.561c.191 0 .381.037.564.094a2.941 2.941 0 0 0-.067.615.5.5 0 0 0 1 0l.005-.051a1.916 1.916 0 0 1 1.909-1.867zm-7.076 5.215v-3.483c0-.713.267-1.344.712-1.799.447-.455 1.069-.738 1.827-.74 1.081.002 2.091.086 3.045.23-.396.238-.73.562-.975.953a2.937 2.937 0 0 0-.946-.168 2.913 2.913 0 0 0-2.864 3.455c.062.33.188.646.364.941a1.97 1.97 0 0 1 .307-.029c.342.002.68.098.981.277.132.08.259.17.373.285a1.902 1.902 0 0 1 .279 2.349 2.898 2.898 0 0 0-1.69-.551 2.893 2.893 0 0 0-1.412.379v-2.099zM50 43.459l.539-.754.023-.016c.376-.375.863-.561 1.355-.561s.979.186 1.355.561a1.91 1.91 0 0 1 0 2.71.5.5 0 0 0 .707.707l.18-.221.009-.006c.376-.375.863-.561 1.355-.561s.979.186 1.355.561a1.91 1.91 0 0 1 .239 2.42 3.482 3.482 0 0 0-2.024-.651.495.495 0 0 0-.356.152l-.15.1c-.438.438-1.008.655-1.582.655s-1.144-.217-1.582-.655a2.229 2.229 0 0 1-.655-1.582c0-.574.218-1.145.655-1.582a.501.501 0 0 0 .001-.707.502.502 0 0 0-.708 0l-.21.258h-.011l-.495.727-.495-.725h-.011l-.21-.258a.502.502 0 0 0-.708 0 .501.501 0 0 0 .001.707c.438.438.655 1.008.655 1.582 0 .574-.217 1.145-.655 1.582-.438.438-1.008.655-1.582.655s-1.144-.217-1.583-.655l-.148-.1a.496.496 0 0 0-.357-.152c-.755 0-1.45.244-2.024.651a1.914 1.914 0 0 1 .239-2.42 1.905 1.905 0 0 1 1.354-.561c.492 0 .98.186 1.355.561l.01.006.18.221a.5.5 0 0 0 .707-.707c-.375-.375-.561-.863-.561-1.355s.186-.98.561-1.355c.376-.375.863-.561 1.355-.561s.979.186 1.355.561l.023.016.539.752zm-3.045-10.074c.758.002 1.381.285 1.827.74.445.455.712 1.086.712 1.799v5.585a2.894 2.894 0 0 0-1.413-.379 2.886 2.886 0 0 0-1.69.551 1.923 1.923 0 0 1-.284-.994c.002-.492.188-.98.562-1.355.114-.115.242-.205.373-.285.303-.18.64-.275.982-.277.103 0 .205.014.307.029a2.85 2.85 0 0 0 .416-1.48c0-.746-.286-1.494-.854-2.062s-1.317-.855-2.062-.854c-.32 0-.641.062-.947.168a2.92 2.92 0 0 0-.974-.953 20.165 20.165 0 0 1 3.045-.233zm-6.454 2.724a1.92 1.92 0 0 1 1.916-1.918 1.923 1.923 0 0 1 1.598.861c.191.289.305.635.314 1.006l.006.051a.5.5 0 0 0 .999 0c0-.213-.025-.418-.068-.615.186-.057.373-.094.566-.094.492 0 .979.186 1.354.561.375.375.561.863.562 1.355 0 .164-.029.326-.07.486a2.89 2.89 0 0 0-1.566.697 2.898 2.898 0 0 0-1.913-.73c-.34 0-.68.066-1.006.186.092-.287.15-.584.15-.883 0-.744-.285-1.494-.854-2.061a.5.5 0 0 0-.707.707c.375.375.561.861.561 1.354s-.188.98-.562 1.355-.861.561-1.355.561l-.139-.014a2.9 2.9 0 0 0-1.936-.75 2.891 2.891 0 0 0-1.691.551 1.903 1.903 0 0 1 .552-2.574l.068-.043a1.927 1.927 0 0 1 1.012-.295c.471.002.932.176 1.299.516.09.135.236.23.41.23a.5.5 0 0 0 .5-.5zm18.5-7.035a2.319 2.319 0 0 1-2.316-2.316 2.32 2.32 0 0 1 2.316-2.316 2.32 2.32 0 0 1 2.316 2.316 2.32 2.32 0 0 1-2.316 2.316zm9.281-4.633a2.32 2.32 0 0 1 2.316 2.316 2.318 2.318 0 0 1-2.316 2.316 2.319 2.319 0 0 1-2.316-2.316 2.32 2.32 0 0 1 2.316-2.316z"/></svg>