<svg xmlns="http://www.w3.org/2000/svg" viewBox="0 0 100 100" width="100" height="100"><path d="M441.3 154.8c4.6-2.5 7.5-7.2 7.5-12.4V16.1c0-7.8-6.3-14.1-14.1-14.1H147.9c-3.7 0-7.3 1.5-10 4.1L67.4 76.7c-2.6 2.6-4.1 6.2-4.1 10v129.5c0 4.8 2.4 9.3 6.5 11.9l15.5 9.9v103.1L69.7 351c-4 2.6-6.5 7.1-6.5 11.9v133c0 7.8 6.3 14.1 14.1 14.1h357.3c7.8 0 14.1-6.3 14.1-14.1V227.4c0-5.2-2.9-10-7.5-12.4l-18.9-10.1V165l19-10.2zm-20.8-20.9L401.6 144c-4.6 2.5-7.5 7.2-7.5 12.4v56.8c0 5.2 2.9 10 7.5 12.4l18.9 10.1v246h-329V370.6l15.5-9.9c4-2.6 6.5-7.1 6.5-11.9V230.3c0-4.8-2.4-9.3-6.5-11.9l-15.5-9.9v-116l62.3-62.3h266.8v103.7z"/><path d="M142.1 262v166.4c0 7.8 6.3 14.1 14.1 14.1h199.6c7.8 0 14.1-6.3 14.1-14.1V262c0-7.8-6.3-14.1-14.1-14.1H156.2c-7.8 0-14.1 6.3-14.1 14.1zm28.2 14.1h171.3v138.2H170.3V276.1zM373.5 126.5c7.8 0 14.1-6.3 14.1-14.1V65.5c0-7.8-6.3-14.1-14.1-14.1s-14.1 6.3-14.1 14.1v46.9c0 7.8 6.3 14.1 14.1 14.1zM314.8 126.5c7.8 0 14.1-6.3 14.1-14.1V65.5c0-7.8-6.3-14.1-14.1-14.1s-14.1 6.3-14.1 14.1v46.9c-.1 7.8 6.3 14.1 14.1 14.1zM256 126.5c7.8 0 14.1-6.3 14.1-14.1V65.5c0-7.8-6.3-14.1-14.1-14.1s-14.1 6.3-14.1 14.1v46.9c0 7.8 6.3 14.1 14.1 14.1zM197.2 126.5c7.8 0 14.1-6.3 14.1-14.1V65.5c0-7.8-6.3-14.1-14.1-14.1s-14.1 6.3-14.1 14.1v46.9c0 7.8 6.4 14.1 14.1 14.1zM152.6 140.6V93.7c0-7.8-6.3-14.1-14.1-14.1s-14.1 6.3-14.1 14.1v46.9c0 7.8 6.3 14.1 14.1 14.1s14.1-6.3 14.1-14.1z"/></svg>