<svg xmlns="http://www.w3.org/2000/svg" data-name="Layer 1" viewBox="0 0 100 100" width="100" height="100"><path d="M88.61 18.18c-3.36-9.25-16.82-8.2-19.55-8s-10.09.63-13.88-.84a16.85 16.85 0 0 0-7.78-.84c3.15-1.26 9.67-.84 14.3 0s10.51-.63 14.09-.42a41 41 0 0 1 7.36 1.26s-.42-5-2.52-6.94S73 .52 69.89.1c-2.3-.31-8 .17-10.86.45 3.59 0 8.74 1.81 9.81 2.7 1.26 1.05 6.52-.21 7.36.63s-4.21 2.73-10.09 0-13.25-1.47-17.45-.84-9.25 3.36-9.25 6.1a8.56 8.56 0 0 0 1.68 4.84c13.25-.85 21.24 3.36 23.13 3.76s7.57-2.73 8 .21-11.56 1.26-17-.84-17-1.47-17-1.47-11.56 1.68-13 7.57.84 9.67.84 9.67a56.77 56.77 0 0 1 6.52.84c11.14 3.57 11.14 11.56 11.14 12.83s2.52 2.31 2.52 2.31a34.83 34.83 0 0 1 7.57 3.15c-6.2 1.49-12.51-1.87-12.3-6.27s-4-7.57-9.25-9.88-10.72-.02-13.26 1.45-10.09 2.73-10.09 2.73a7.83 7.83 0 0 0-3.15 1.26c-.84.84-2.94 1.68-4.84 2.31s-.42 3.15.21 3.78a7.13 7.13 0 0 0 4.22 2.35c2.1.21 11.77.84 14.09-.21s4-2.31 5.89-1.26A3.37 3.37 0 0 1 27.22 51s1.89-5.68 6.31-7.15c0 0-7.15 6.1-5.26 13.88 0 0 .21 3.57 5.68 7.57s17.45 5.89 27.75 2.31 13.88-15.77 9.67-24c-3.88-7.58-17.1-14.79-28.71-16.34a3.49 3.49 0 0 1-2.9-4.43 2.1 2.1 0 0 1 .49-.88c1.26-1.26 1.05 2.94 2.31 3.36 0 0 22.5 3.78 28.17 14.51A48.72 48.72 0 0 0 81 39.55a10.43 10.43 0 0 0 8.65-8.63 25.38 25.38 0 0 0-1.04-12.74zM10.19 44.59a1 1 0 1 1 1-1 1 1 0 0 1-1 1z"/></svg>