<svg xmlns="http://www.w3.org/2000/svg" viewBox="0 0 300 300" width="100" height="100"><path d="M290.8 130.1c-2.6-3.8-6.7-6.2-11.1-6.4-3.5-.2-7 1-10.2 3.4-2.5-8.7-8.8-9.4-11.7-9.2-4.5.3-8.9 2.8-11.9 6.7-2.6 3.4-5.2 9.5-3.2 18.8-.1 1-.5 1.9-.9 2.5l-12.5 9.7c-1.1-1.7-2.2-3.3-3.4-4.8-3.5-4.6-10.1-12-18-19 3.9-5.8 6.7-11.7 7.8-16.7 1.4-6.7 1.7-13.4.8-20.1 4-.5 8.4-.6 12.4-.1 1 .1 1.9-.6 2-1.6.1-1-.6-1.9-1.6-2-4.3-.5-9.1-.4-13.4.1-.3-1.4-.6-2.8-.9-4.1 4-1.2 8.3-2 12.1-2 1 0 1.8-.8 1.7-1.8 0-1-.8-1.8-1.8-1.7-4.1.1-8.8.9-13 2.2-.9-2.8-2-5.6-3.3-8.3 1.5-3.8 1.8-8.1.4-12.1-1.5-4.1-4.5-7.4-8.4-9.2-2.4-1.1-5.1-1.6-7.7-1.4-7.5-18.1-24.4-44.8-39.3-48.4-.4-.1-.8-.1-1.2 0-8.3 1.8-8.5 15.7-8.9 33.4v2.1c-7.8 2.5-17.6 6.7-22.4 8.9l-2.4 1.1c-3.8 1.6-6.8 2.9-9.4 4.2-9.1-9.9-27.4-24.4-33.8-22.6-1.6.3-3 1.1-4.1 2.5-5.2 6.7-3 26.6.8 54 1.1 7.7 2.1 15 2.6 20.7l-5.5 3.9c-6 4.2-11.7 8.2-14.2 10C24.8 146.9.7 199.4 18.5 242c10.2 25 39.9 49.2 73.7 50.7 8.7 1.9 19.3 2.9 30.6 2.9 32.6 0 71.8-8.4 93.3-28.4 13.3-12.3 21.9-26 25.6-40.6 3.3-12.9 3-27.7-.2-41.6 5.3-6 10.8-12 16.4-17.4.5.1 1 .3 1.5.5 9.2 2.7 24.6 7.3 30.4-5.1 1.7-3.5 1.3-7.8-1.1-11.1-.2-.3-.5-.6-.7-.9 2.4-1.3 3.9-3.1 4.7-4.7 2.6-5.4.9-12-1.9-16.2zm-94.9-71.8c1.6 0 3.1.3 4.5 1 2.6 1.2 4.6 3.4 5.6 6.1 2.1 5.9-1.1 12.7-7.2 15.2-3 1.2-6.1 1.1-8.9-.1-2.6-1.2-4.6-3.4-5.6-6.1-2.1-5.9 1.1-12.7 7.2-15.2 1.5-.6 3-.9 4.4-.9zm40.4 166.9c-3.4 13.6-11.5 26.4-24 38-25.8 24-78.5 30.4-112 25.5-6.6.3-14.3-.7-23-3.6-.2-.1-.4-.1-.6-.2-3-.8-5.9-1.7-8.7-2.9-1.3-.5-2.6-1-3.7-1.6-19.2-8.7-34.4-24.4-41-40.5-16.8-40.2 6.2-89.9 37-112.9 2.4-1.8 8.1-5.8 14.1-9.9l7.4-5.2c1.2-.8 1.5-2.5.7-3.7-.1-.2-.2-.3-.4-.5-.5-5.7-1.5-12.8-2.5-20.3-2.6-18.8-6.2-44.6-1.9-50 .4-.5.6-.5.8-.5.2 0 .5-.1.7-.2 3.3.3 18.6 9.9 29.5 22.5.8.9 2.1 1.2 3.2.7 3.1-1.5 6.5-3 11-4.9l2.5-1.1c4.9-2.1 14.7-6.4 22.3-8.8h.3c1.4-.2 3.3-.7 5.5-1.3 2.4-.6 5.1-1.3 7.1-1.6 1.5-.2 2.5-1.5 2.3-3-.2-1.5-1.5-2.5-3-2.3-2.4.3-5.3 1-7.8 1.7-.4.1-.8.2-1.1.3v-.8c.2-11.7.5-26.2 4.2-28.1 12.1 3.7 27.4 27.3 34.6 44.2h-.1c-8.7 3.5-13.3 13.3-10.2 21.9 1.5 4.1 4.5 7.4 8.4 9.2 2.1 1 4.4 1.5 6.7 1.5 2.1 0 4.3-.4 6.3-1.2 2.5-1 4.7-2.5 6.4-4.4.7 1.6 1.2 3.2 1.7 4.8-.2.1-.3.1-.5.2-.9.4-1.3 1.5-.9 2.4.3.6.9 1 1.6 1 .2 0 .5-.1.7-.2.3 1.1.5 2.2.7 3.2-.3.1-.6.1-.8.2-.9.3-1.5 1.3-1.2 2.2.2.8.9 1.3 1.7 1.3.2 0 .3 0 .5-.1.1 0 .3-.1.4-.1.7 5.9.5 11.9-.7 17.9-.9 4.2-3.4 9.3-6.7 14.4-1.9-1.5-3.8-3-5.8-4.4-11.4-8-24-13.3-34.2-8.9-.4.2-.8.4-1.3.6-5.3 2.7-7 6.5-7.5 9.3-.7 4 .6 8.4 3.6 11.6 3.6 4 9.3 6.1 14.9 8.2 2 .7 4 1.5 5.8 2.3 1.5.7 3 1.4 4.3 2.2 3.3 2.1 6.4 4.6 9.3 7.4-2.4 11.5-5.8 24.7-8.7 28.1-.4.2-.9.4-1.3.6-13 5.9-25.6 12.5-37.7 19.9 1.4 1.2 2.7 2.5 3.9 3.9 10.3-6.2 21-12 32-17.1v.1c3.9-1.9 7.8-3.6 11.8-5.3.9-.4 1.7-.7 2.6-1.1 2.3-.9 4.6-1.9 6.9-2.8.2-.1.3-.2.5-.3.1 0 .1-.1.2-.1l5.3-4.1c3.8 8.5 6.1 17.8 6.3 27.2l-1.5 1.5c-6.3 6-12.7 11.7-19.1 17.4-1.6 1.4-3.2 2.8-4.7 4.2-.8.7-1.5 1.4-2.3 2-1.5 1.3-3 2.6-4.4 3.9-.5.4-.9.8-1.4 1.2-.7.7-1.5 1.3-2.2 2-1.6 1.4-3.1 2.8-4.7 4.2-.3.3-.6.5-.9.8l-6 5.4c-.2.2-.4.3-.6.5-2.1 1.9-4.2 3.9-6.3 5.9l-9.6 9.8c-8.9 1.4-19.6 2.2-29.6 2 1.4 1.7 2.2 3.5 2.4 5.4 16.6 0 34.3-2.5 43.2-5.7 34-12.2 52.9-32.8 53-58.1.2-25.2-13-50.1-33.6-63.3-3.3-2.1-7.3-3.6-11.1-5.1-1.7-.6-3.3-1.3-5-2-.1-.1-.3-.1-.4-.2-.1 0-.1-.1-.2-.1-2.3-1-4.4-2.1-6-3.5l-.1-.1c-.4-.3-.7-.6-1.1-1l-.1-.1c-1.4-1.6-2.3-3.6-2.3-5.7v-.3-.5c.2-1.9 1.3-3.8 3.5-5.2 0 0 .1 0 .1-.1.3-.2.7-.4 1.1-.6.5-.2 1-.5 1.5-.6.2-.1.5-.2.7-.2.3-.1.5-.2.8-.2.4-.1.7-.2 1.1-.2.1 0 .2 0 .4-.1 16.9-2.5 42.4 22.2 52.3 35.1 14.5 18.8 20.5 48 14.7 71.1zm-36.1-47.1c-3.2 1.2-6.4 2.5-9.5 3.9 2.8-7.8 5.1-15.3 5.8-21.8 3.7 4.1 6.9 8.6 9.5 13.4l-5.8 4.5zm14.2 35.4c-1.5 11.3-7.3 21.4-17.2 30-.6-1.7-1.1-3.2-1.2-4.6-.2-2.7-.5-5.4-.9-8 6.4-5.7 12.9-11.4 19.3-17.4zM192.8 247c-3.8 2.8-8 5.4-12.7 7.8l-2.1-3.3c-.8-1.2-1.5-2.4-2.2-3.6 4.7-4.3 9.5-8.5 14.5-12.8.2 1.4.3 2.8.4 4.2.1 2.6 1.1 5.2 2.1 7.7zm-17.6 10.2c-3.2 1.4-6.5 2.8-10 4-1.5.5-3.3 1-5.2 1.5 3.8-3.8 7.7-7.5 11.7-11.1.6.9 1.2 1.9 1.8 2.8.6 1 1.2 1.9 1.7 2.8zm111.7-112.3c-1 .9-2.4 1.7-4.2 2-.2 0-.4.1-.6.1h-.3c-.7.1-1.4.2-2.1.2h-.3-.1c-1.1.2-1.8.9-2.1 1.7v.2c-.1.6-.1 1.2.1 1.7v.2c.4.8 1.1 1.4 2.3 1.5h1c1.4.1 2.8 1 3.7 2.3.1.1.1.1.1.2.1.1.2.2.2.4.5.8.7 1.8.7 2.8v.1c0 .2 0 .4-.1.6 0 .2-.1.3-.1.5 0 .1 0 .2-.1.2-.1.2-.2.5-.3.7-.1.3-.3.6-.5.9 0 .1-.1.1-.1.2-.1.2-.2.3-.3.5-1.1 1.5-2.4 2.4-4.1 3-2.6.9-6 .7-10-.1-3.4-.7-7.4-1.7-11.7-2.9-.2 0-.3-.1-.5-.1-.9-.2-1.8 0-2.5.6l-.1.1c-.9.9-1.8 1.7-2.7 2.6l-.6.6-2.1 2.1-1.6 1.6-1.1 1.1c-.6.6-1.1 1.2-1.7 1.8-.3.3-.6.7-1 1-.4.4-.8.8-1.1 1.2-1.2 1.3-2.4 2.6-3.6 4-1.9-6.5-4.5-12.7-7.6-18.4l13.3-10.3c.2-.1.3-.3.4-.4.3-.4.6-.7.8-1.1l.1-.1c.2-.4.4-.9.6-1.3 0-.1 0-.1.1-.2.2-.5.3-1 .4-1.5v-.1c.1-.6.2-1.1.3-1.7 0-.3 0-.6-.1-.8-.1-.3-.1-.5-.2-.7 0-.1-.1-.3-.1-.4-.1-.3-.1-.7-.2-1v-.1c-.2-1.6-.3-3.1-.2-4.4v-.1c0-.6.1-1.1.2-1.6l.3-1.5v-.2c.1-.4.2-.9.4-1.3 0-.1 0-.1.1-.2.1-.4.3-.8.5-1.2.2-.4.4-.8.6-1.1.6-1 1.3-1.9 2.1-2.6l.3-.3c.2-.1.3-.3.5-.4.2-.1.3-.3.5-.4.1-.1.3-.2.5-.3.2-.1.3-.2.5-.3.2-.1.3-.2.5-.3.2-.1.3-.2.5-.2.2-.1.4-.2.5-.2.2-.1.3-.1.5-.2s.3-.1.5-.2.4-.1.6-.1c.1 0 .3-.1.4-.1.3-.1.7-.1 1-.1h.1c.6 0 1.1 0 1.7.1.2 0 .3.1.5.1.1 0 .1 0 .2.1.1 0 .2.1.3.1.1.1.3.1.4.2 0 0 .1 0 .1.1 1.3.9 2.5 2.5 3.1 5.3 0 .1 0 .2.1.3 0 .2.1.4.1.7.1.3.1.6.2.9v.1c.1.4.1.9.2 1.4.1.9.5 1.5 1.1 2 .1 0 .1.1.2.1.3.2.7.3 1.1.3H267.7c.7 0 1.5-.3 2-1l.1-.1c.3-.3.6-.7.9-1l.3-.3c.3-.3.5-.5.8-.7.2-.2.5-.4.7-.6.1-.1.3-.2.4-.3 1.6-1.2 3.1-1.8 4.6-2.1h.3c.2 0 .4-.1.7-.1h1.1c.3 0 .5 0 .8.1h.2c.2 0 .4.1.6.2.1 0 .3.1.4.1.2.1.3.1.4.2l.6.3c.1 0 .2.1.3.1.2.1.5.3.7.4.1 0 .1.1.2.1.2.1.4.3.6.5.1.1.2.1.3.2.1.1.3.2.4.4.2.1.3.3.4.5l.2.2c.2.2.4.5.6.8 2.8 4.4 3.5 9.3.6 12.1z"/><path d="M135.6 114.4c5.1-.8 9.7-3.3 12.9-7.2 3.2-3.9 4.6-8.7 3.9-13.5-1.5-9.8-11.4-16.4-22.1-14.8-5.1.8-9.7 3.3-12.9 7.2-3.2 3.9-4.6 8.7-3.9 13.5 1.3 8.8 9.5 15 18.9 15 1 0 2.1-.1 3.2-.2zm-16.8-15.6c-.5-3.3.5-6.6 2.7-9.3 2.3-2.8 5.7-4.7 9.5-5.3 7.8-1.2 15 3.4 16 10.3.5 3.3-.5 6.6-2.7 9.3-2.3 2.8-5.7 4.7-9.5 5.3-7.8 1.2-15-3.4-16-10.3zM167.5 39.4c1.8-.9 10.4.9 11.2-.7.3-.5.1-1.4-.4-2.3-3.1-6.8-7.9-12.3-13.8-16.7-1.2-.9-2.4.1-2.3 1.7.7 6.7 2.5 10.9 4.7 16.5.3.5.4 1 .6 1.5zM164.1 96.3c.4.2.8.3 1.2.3 1 0 1.9-.5 2.4-1.5.9-1.8 2.9-3.5 4.9-4.1 1.5-.4 2.8-.3 4 .3 1.3.7 2.9.3 3.6-1 .6-1 .4-2.1-.2-3-.2-.3-.5-.5-.8-.7-2.5-1.4-5.3-1.7-8.2-.8-3.5 1.1-6.6 3.7-8.1 6.8-.3.6-.3 1.2-.2 1.7.1.9.6 1.6 1.4 2zM175 99.3c-.4 0-.8 0-1.2.2-2.7 1.3-5.2 7.4-3.2 10.3 1.7 2.5 5.7 2.3 7.4-.2 2-2.7.7-9.9-3-10.3z"/><ellipse cx="131" cy="94.7" rx="6.3" ry="6.3"/><ellipse cx="191.5" cy="71" rx="6" ry="6"/><path d="M88.3 88.3c.5.2.9.4 1.4.6.8-4 12.6-10.1 13.1-14.8.5-4.8-9.3-15-13.6-17.7-10.3-6.6-4.5 16.8-4.1 19.4.7 4.4 2.3 8.5 3.2 12.5zM54.5 196.8c-17.5-2.9-29.1-5.1-29.8-1-.7 4.1 9.8 12.9 27.3 15.9 17.5 2.9 35.3-1.1 36-5.2.7-4.2-16-6.8-33.5-9.7zM62.6 168c-16.5-2.8-27.5-1.4-28.1 2.5-.7 3.9 9.3 8.7 25.8 11.5 16.5 2.8 33.4 2.4 34-1.5.6-3.8-15.2-9.7-31.7-12.5zM78.1 142.4c-14.6-2.5-27.4 1.9-27.9 5.3-.6 3.4 11.3 4.7 25.8 7.1 14.6 2.5 26.4 5.2 27 1.8.6-3.4-10.3-11.7-24.9-14.2zM119.2 76.2c.3.5.9.8 1.5.8.4 0 .7-.1 1-.3.8-.6 1-1.7.4-2.5-1.2-1.7-2.5-3.7-3.2-5.9-.3-.9-1.3-1.4-2.3-1.1-.9.3-1.4 1.3-1.1 2.3.9 2.5 2.4 4.8 3.7 6.7zM123.1 69.7c.5 1.6 1 3.3 1.8 4.6.3.5.9.8 1.5.8.3 0 .7-.1 1-.3.8-.6 1-1.7.5-2.5s-.9-2.2-1.4-3.6c-.4-1.3-.8-2.7-1.4-3.8-.5-.9-1.5-1.2-2.4-.8-.9.4-1.2 1.5-.8 2.4.5.9.8 2.1 1.2 3.2zM176.5 47.6c-.5-.8-1.7-1-2.5-.5-.8.6-1 1.7-.5 2.5 1.2 1.7 2.2 3.4 3.3 5.1.3.6.9.9 1.5.9.3 0 .6-.1.9-.2.9-.5 1.1-1.6.6-2.4-.9-1.9-2-3.6-3.3-5.4zM178.9 46.6c.5.8.8 1.7 1.1 2.6.4 1.3.9 2.6 1.8 3.8.3.5.9.7 1.4.7.4 0 .7-.1 1-.3.8-.6 1-1.7.4-2.5s-1-1.8-1.3-2.9c-.4-1.1-.8-2.2-1.4-3.3-.5-.8-1.6-1.1-2.4-.6-.8.5-1.1 1.6-.6 2.5zM139.5 123.9c.7-.7.6-1.9-.1-2.5-.7-.7-1.9-.6-2.5.1l-2.3 2.6c-2.5 2.8-5.2 5.6-7.5 8.7-.6.8-.4 1.9.3 2.5.3.2.7.4 1.1.4.5 0 1.1-.2 1.4-.7 2.3-3 4.7-5.7 7.3-8.5l2.3-2.6zM145.2 125.2c-.8-.6-1.9-.4-2.5.4-.8 1.1-1.6 2.1-2.5 3.1-2.5 3.1-5.1 6.3-6.6 10.4-.3.9.1 1.9 1 2.3.2.1.4.1.6.1.7 0 1.4-.4 1.7-1.2 1.3-3.6 3.6-6.4 6-9.4.9-1 1.7-2.1 2.5-3.2.7-.8.6-1.9-.2-2.5z"/></svg>