<svg xmlns="http://www.w3.org/2000/svg" viewBox="0 0 100 100" width="100" height="100"><path d="M27.41 23.615a.983.983 0 0 1 .21-.315l.005-.008 3.066-3.064a1 1 0 0 1 1.414 1.415L30.748 23h6.25a1 1 0 1 1 0 2h-6.25l1.357 1.357a1 1 0 1 1-1.414 1.414l-3.066-3.063-.005-.008a.995.995 0 0 1-.21-1.085zm14.924 15.552a1 1 0 0 1-1 1H22.656c-.422 1.255-1.595 2.167-2.99 2.167s-2.568-.912-2.99-2.167H6.666a1 1 0 1 1 0-2h10.01a3.158 3.158 0 0 1 1.99-1.99v-6.86C14.205 29.166 10 28.01 10 25.625V9.375c0-2.562 4.854-3.708 9.666-3.708s9.666 1.146 9.666 3.708v5.563a9.602 9.602 0 0 1 3.334-.605c5.33 0 9.666 4.336 9.666 9.667 0 5.33-4.336 9.667-9.666 9.667-3.535 0-6.625-1.914-8.31-4.754-1.13.217-2.377.35-3.69.396v6.869a3.158 3.158 0 0 1 1.99 1.989h18.678a1 1 0 0 1 1 1zM12 20.182c.193.499 2.733 1.736 7.666 1.736 1.271 0 2.509-.095 3.633-.266a9.64 9.64 0 0 1 1.857-3.727c-1.628.387-3.56.575-5.49.575-2.9 0-5.807-.42-7.666-1.312v2.994zm0-5.417c.193.498 2.733 1.735 7.666 1.735 4.935 0 7.476-1.237 7.666-1.735v-2.993c-1.86.892-4.767 1.312-7.666 1.312s-5.807-.42-7.666-1.312v2.993zm20.666 1.568c-4.228 0-7.667 3.44-7.667 7.667s3.44 7.667 7.667 7.667 7.666-3.44 7.666-7.667-3.438-7.667-7.666-7.667zM12 9.403v.01c.193.434 2.733 1.671 7.666 1.671 4.948 0 7.492-1.246 7.67-1.741-.179-.43-2.723-1.676-7.67-1.676-4.932 0-7.473 1.237-7.666 1.735zm7.666 17.931a24 24 0 0 0 3.832-.291A9.611 9.611 0 0 1 22.999 24c0-.097.012-.191.015-.288a27.157 27.157 0 0 1-3.348.206c-2.9 0-5.807-.42-7.666-1.312V25.6c.193.498 2.733 1.734 7.666 1.734zm1.167 11.833a1.168 1.168 0 0 0-2.334 0 1.168 1.168 0 0 0 2.334 0z"/></svg>