<svg xmlns="http://www.w3.org/2000/svg" data-name="Layer 1" viewBox="0 0 100 125" x="0px" y="0px"><title>Artboard 35</title><path d="M12.69,38.91h10.5v3.44a1.5,1.5,0,0,0,3,0V38.91h10.5a1.5,1.5,0,0,0,1.5-1.5V26.91h3.5a1.5,1.5,0,0,0,0-3h-3.5V13.41a1.5,1.5,0,0,0-1.5-1.5h-24a1.5,1.5,0,0,0-1.5,1.5v24A1.5,1.5,0,0,0,12.69,38.91Zm1.5-24h21v21H25.08a1.35,1.35,0,0,0-.79,0H14.19Z"/><path d="M81.69,11.91h-14a6.51,6.51,0,0,0-6.5,6.5v5.5h-4.5a1.5,1.5,0,0,0,0,3h4.5v5.5a6.51,6.51,0,0,0,6.5,6.5h5.5v4.5a1.5,1.5,0,0,0,3,0v-4.5h5.5a6.51,6.51,0,0,0,6.5-6.5v-14A6.51,6.51,0,0,0,81.69,11.91Zm3.5,20.5a3.5,3.5,0,0,1-3.5,3.5h-14a3.5,3.5,0,0,1-3.5-3.5v-14a3.5,3.5,0,0,1,3.5-3.5h14a3.5,3.5,0,0,1,3.5,3.5Z"/><path d="M76.19,62V58.41a1.5,1.5,0,0,0-3,0V62A13.52,13.52,0,0,0,61.27,73.91H57.36a1.5,1.5,0,0,0,0,3h3.92A13.5,13.5,0,1,0,76.19,62Zm-1.5,23.91a10.5,10.5,0,1,1,10.5-10.5A10.51,10.51,0,0,1,74.69,85.91Z"/><path d="M51.69,26.91a1.5,1.5,0,0,0,0-3h-5a1.5,1.5,0,0,0,0,3Z"/><path d="M24.69,45.85a1.5,1.5,0,0,0-1.5,1.5v5a1.5,1.5,0,0,0,3,0v-5A1.5,1.5,0,0,0,24.69,45.85Z"/><path d="M52.36,73.91h-5a1.5,1.5,0,0,0,0,3h5a1.5,1.5,0,0,0,0-3Z"/><path d="M42.36,73.91H38.22l-5.9-10.22a1.5,1.5,0,0,0-1.3-.75h-5a1.5,1.5,0,0,0,.12-.58v-5a1.5,1.5,0,0,0-3,0v5a1.5,1.5,0,0,0,.12.58h-5a1.5,1.5,0,0,0-1.3.75l-6.34,11a1.5,1.5,0,0,0,0,1.5l6.34,11a1.5,1.5,0,0,0,1.3.75H31a1.5,1.5,0,0,0,1.3-.75l5.9-10.22h4.13a1.5,1.5,0,0,0,0-3Zm-12.2,11H19.22l-5.47-9.47,5.47-9.47H30.16l5.47,9.47Z"/><path d="M74.69,54.91a1.5,1.5,0,0,0,1.5-1.5v-5a1.5,1.5,0,0,0-3,0v5A1.5,1.5,0,0,0,74.69,54.91Z"/><text x="0" y="115" fill="#000000" font-size="5px" font-weight="bold" font-family="'Helvetica Neue', Helvetica, Arial-Unicode, Arial, Sans-serif">Created by Bernar  Novalyi</text><text x="0" y="120" fill="#000000" font-size="5px" font-weight="bold" font-family="'Helvetica Neue', Helvetica, Arial-Unicode, Arial, Sans-serif">from the Noun Project</text></svg>