<svg xmlns="http://www.w3.org/2000/svg" xmlns:xlink="http://www.w3.org/1999/xlink" version="1.1" x="0px" y="0px" viewBox="0 0 96 120" enable-background="new 0 0 96 96" xml:space="preserve"><g><path d="M39.016,0.078H3.07c-1.648,0-2.992,1.344-2.992,2.992v35.946c0,1.648,1.344,2.992,2.992,2.992h35.946   c1.637,0,2.992-1.344,2.992-2.992V3.07C42.008,1.418,40.652,0.078,39.016,0.078z"/><path d="M92.93,0.078H56.984c-1.648,0-2.992,1.344-2.992,2.992v35.946c0,1.648,1.344,2.992,2.992,2.992H92.93   c1.633,0,2.992-1.344,2.992-2.992V3.07C95.922,1.418,94.57,0.078,92.93,0.078z"/><path d="M39.016,53.992H3.07c-1.648,0-2.992,1.344-2.992,2.992V92.93c0,1.648,1.344,2.992,2.992,2.992h35.946   c1.637,0,2.992-1.344,2.992-2.992V56.984C42.008,55.336,40.652,53.992,39.016,53.992z"/><path d="M92.93,53.992H56.984c-1.648,0-2.992,1.344-2.992,2.992V92.93c0,1.648,1.344,2.992,2.992,2.992H92.93   c1.633,0,2.992-1.344,2.992-2.992V56.984C95.922,55.336,94.57,53.992,92.93,53.992z"/></g><text x="0" y="111" fill="#000000" font-size="5px" font-weight="bold" font-family="'Helvetica Neue', Helvetica, Arial-Unicode, Arial, Sans-serif">Created by Thesaurustool</text><text x="0" y="116" fill="#000000" font-size="5px" font-weight="bold" font-family="'Helvetica Neue', Helvetica, Arial-Unicode, Arial, Sans-serif">from the Noun Project</text></svg>