<svg xmlns="http://www.w3.org/2000/svg" xmlns:xlink="http://www.w3.org/1999/xlink" version="1.1" x="0px" y="0px" viewBox="0 0 100 125" style="enable-background:new 0 0 100 100;" xml:space="preserve"><g><path d="M47.7,32.7C47.7,32.7,47.7,32.7,47.7,32.7c1-1,1.6-2.4,1.6-3.9c0-1.5-0.6-2.9-1.6-3.9c-1-1-2.4-1.6-3.9-1.6   c-1.5,0-2.9,0.6-3.9,1.6c-1,1-1.6,2.4-1.6,3.9s0.6,2.9,1.6,3.9c1,1,2.4,1.6,3.9,1.6C45.3,34.3,46.7,33.8,47.7,32.7z M41.3,28.8   c0-0.7,0.3-1.3,0.7-1.8c0.5-0.5,1.1-0.7,1.8-0.7c0.7,0,1.3,0.3,1.8,0.7s0.7,1.1,0.7,1.8s-0.3,1.3-0.7,1.8c0,0,0,0,0,0   c-0.9,0.9-2.6,0.9-3.5,0C41.6,30.1,41.3,29.5,41.3,28.8z"/><path d="M33.6,36.4c-0.8-0.3-1.6,0.1-1.9,0.9L12.8,85.3c-0.2,0.6-0.1,1.2,0.3,1.6c0.3,0.3,0.7,0.4,1.1,0.4c0.2,0,0.4,0,0.5-0.1   l48.1-18.9c0.8-0.3,1.1-1.1,0.9-1.9C58.7,52.3,47.8,41.3,33.6,36.4z M16.9,83.2L34,39.7c12.2,4.7,21.7,14.2,26.4,26.4L16.9,83.2z"/><path d="M49.5,12.2c4.6,9,4.7,19.7,0.2,28.7l2.7,1.3c4.9-9.9,4.8-21.6-0.2-31.4L49.5,12.2z"/><path d="M34.2,32.4c1.5-5.5,0.3-11.4-3.2-15.9l-2.4,1.9c2.9,3.7,3.9,8.7,2.7,13.2L34.2,32.4z"/><path d="M57.8,47.7l1.3,2.7c9-4.5,19.8-4.4,28.7,0.2l1.4-2.7C79.4,42.9,67.7,42.8,57.8,47.7z"/><path d="M67.7,65.9l0.8,2.9c4.6-1.3,9.5-0.3,13.2,2.7l1.9-2.4C79.2,65.6,73.2,64.4,67.7,65.9z"/><path d="M84.3,19.2c-0.2-0.5-0.8-0.9-1.3-0.9l-4,0L76.8,15c-0.3-0.5-0.9-0.7-1.4-0.7c-0.6,0.1-1,0.4-1.2,1l-1.4,3.8l-3.9,1.1   c-0.5,0.2-1,0.6-1.1,1.2c-0.1,0.6,0.1,1.1,0.6,1.5l3.1,2.4l-0.3,4c0,0.6,0.3,1.1,0.8,1.4c0.2,0.1,0.5,0.2,0.7,0.2   c0.3,0,0.6-0.1,0.9-0.3l3.4-2.3l3.7,1.4c0.5,0.2,1.1,0.1,1.5-0.3c0.4-0.4,0.6-1,0.4-1.5L81.5,24l2.6-3.2   C84.4,20.3,84.5,19.7,84.3,19.2z M78.4,24l0.5,1.8l-1.7-0.6c-0.5-0.2-1-0.1-1.4,0.2l-1.4,1l0.1-1.7c0-0.5-0.2-1-0.6-1.3l-1.4-1   l1.8-0.5c0.5-0.1,0.8-0.5,1-0.9l0.6-1.7l0.9,1.4c0.3,0.4,0.7,0.7,1.3,0.7l1.7,0l-1.1,1.4C78.3,23,78.2,23.5,78.4,24z"/><path d="M64.6,41c1.5,0,2.9-0.6,3.9-1.6c0,0,0,0,0,0c1-1,1.6-2.4,1.6-3.9c0-1.5-0.6-2.9-1.6-3.9c-1-1-2.4-1.6-3.9-1.6   c-1.5,0-2.9,0.6-3.9,1.6c-1,1-1.6,2.4-1.6,3.9s0.6,2.9,1.6,3.9C61.8,40.4,63.1,41,64.6,41z M62.9,33.7c0.5-0.5,1.1-0.7,1.8-0.7   c0.7,0,1.3,0.3,1.8,0.7s0.7,1.1,0.7,1.8s-0.3,1.3-0.7,1.8c0,0,0,0,0,0c-0.9,0.9-2.6,0.9-3.5,0c-0.5-0.5-0.7-1.1-0.7-1.8   S62.4,34.2,62.9,33.7z"/><path d="M66.8,51.8c-1,1-1.6,2.4-1.6,3.9c0,1.5,0.6,2.9,1.6,3.9c1,1,2.4,1.6,3.9,1.6c1.5,0,2.9-0.6,3.9-1.6c0,0,0,0,0,0   c1-1,1.6-2.4,1.6-3.9c0-1.5-0.6-2.9-1.6-3.9C72.4,49.7,69,49.7,66.8,51.8z M72.5,57.5C72.5,57.5,72.5,57.5,72.5,57.5   c-0.9,0.9-2.6,0.9-3.5,0c-0.5-0.5-0.7-1.1-0.7-1.8s0.3-1.3,0.7-1.8c0.5-0.5,1.1-0.7,1.8-0.7c0.6,0,1.3,0.2,1.8,0.7   c0.5,0.5,0.7,1.1,0.7,1.8S72.9,57,72.5,57.5z"/><path d="M17.5,39.2c0.3,0.4,0.8,0.7,1.3,0.7c0.1,0,0.1,0,0.2,0c0.6-0.1,1.1-0.4,1.3-1l1.4-3.8l3.9-1.1c0.5-0.2,1-0.6,1.1-1.2   c0.1-0.6-0.1-1.1-0.6-1.5L23,29l0.3-4c0-0.6-0.2-1.1-0.7-1.4c-0.5-0.3-1.1-0.3-1.6,0.1L17.6,26l-3.7-1.4c-0.5-0.2-1.1-0.1-1.5,0.3   c-0.4,0.4-0.6,1-0.4,1.5l1,3.8l-2.6,3.2c-0.4,0.4-0.4,1.1-0.2,1.6c0.2,0.5,0.8,0.9,1.3,0.9l4,0L17.5,39.2z M16,30.2l-0.5-1.8   l1.7,0.6c0.5,0.2,1,0.1,1.4-0.2l1.4-1l-0.1,1.7c0,0.5,0.2,1,0.6,1.3l1.4,1l-1.8,0.5c-0.5,0.1-0.8,0.5-1,0.9l-0.7,1.7l-0.9-1.4   c-0.3-0.4-0.7-0.7-1.2-0.7l-1.7,0l1.1-1.4C16,31.2,16.2,30.7,16,30.2z"/><path d="M61,79.8c-0.5,0.2-0.9,0.7-1,1.3s0.2,1.1,0.7,1.4l3.4,2.1l0.1,3.9c0,0.6,0.4,1.1,0.9,1.3c0.2,0.1,0.4,0.1,0.6,0.1   c0.3,0,0.7-0.1,0.9-0.3l3.2-2.6l4,1c0.5,0.1,1.1,0,1.5-0.5c0.4-0.4,0.5-1,0.3-1.6l-1.5-3.6l2.3-3.3c0.3-0.5,0.4-1.1,0.1-1.6   c-0.3-0.5-0.8-0.8-1.4-0.8L71,77.1L68.5,74c-0.4-0.4-0.9-0.6-1.5-0.5c-0.6,0.1-1,0.5-1.1,1.1l-1,3.8L61,79.8z M66.6,81   c0.5-0.2,0.8-0.5,0.9-1l0.5-1.8l1.1,1.4c0.3,0.4,0.8,0.6,1.3,0.5l1.7-0.1l-1,1.4c-0.3,0.4-0.3,1-0.2,1.4l0.6,1.6l-1.8-0.5   c-0.5-0.1-1,0-1.3,0.3l-1.4,1.2l-0.1-1.7c0-0.5-0.3-1-0.7-1.2l-1.4-0.9L66.6,81z"/></g><text x="0" y="115" fill="#000000" font-size="5px" font-weight="bold" font-family="'Helvetica Neue', Helvetica, Arial-Unicode, Arial, Sans-serif">Created by Surya</text><text x="0" y="120" fill="#000000" font-size="5px" font-weight="bold" font-family="'Helvetica Neue', Helvetica, Arial-Unicode, Arial, Sans-serif">from the Noun Project</text></svg>