<svg xmlns="http://www.w3.org/2000/svg" xmlns:xlink="http://www.w3.org/1999/xlink" version="1.1" x="0px" y="0px" viewBox="0 0 100 125" enable-background="new 0 0 100 100" xml:space="preserve"><path d="M80.375,51.605c-1.975,0-3.82,0.549-5.407,1.489l-6.47-6.47c1.904-1.927,3.083-4.571,3.083-7.487  c0-5.878-4.782-10.66-10.66-10.66c-2.061,0-3.98,0.597-5.612,1.614l-6.466-6.466c1.788-1.907,2.893-4.463,2.893-7.278  c0-5.878-4.782-10.66-10.66-10.66s-10.66,4.782-10.66,10.66c0,2.731,1.041,5.217,2.735,7.105l-6.515,6.515  c-1.588-0.94-3.432-1.489-5.407-1.489c-5.878,0-10.66,4.782-10.66,10.66s4.782,10.66,10.66,10.66s10.66-4.782,10.66-10.66  c0-2.817-1.107-5.376-2.898-7.284l6.465-6.465c1.634,1.019,3.556,1.619,5.62,1.619c1.978,0,3.825-0.551,5.414-1.493l6.512,6.512  c-1.698,1.889-2.741,4.377-2.741,7.111c0,2.817,1.106,5.374,2.897,7.282l-6.675,6.675c-1.588-0.94-3.432-1.489-5.407-1.489  c-5.878,0-10.66,4.782-10.66,10.66c0,1.958,0.54,3.789,1.465,5.368l-6.848,6.848c-1.588-0.94-3.432-1.489-5.407-1.489  c-5.878,0-10.66,4.782-10.66,10.66s4.782,10.66,10.66,10.66s10.66-4.782,10.66-10.66c0-2.818-1.107-5.376-2.898-7.284l6.371-6.371  c1.911,1.81,4.483,2.928,7.317,2.928c2.69,0,5.143-1.009,7.02-2.659l6.101,6.101c-1.792,1.908-2.898,4.467-2.898,7.284  c0,5.878,4.782,10.66,10.66,10.66s10.66-4.782,10.66-10.66s-4.782-10.66-10.66-10.66c-1.975,0-3.819,0.549-5.407,1.489l-6.496-6.496  c1.058-1.655,1.68-3.614,1.68-5.72c0-2.818-1.107-5.376-2.898-7.284l6.675-6.674c1.588,0.941,3.433,1.49,5.409,1.49  c1.874,0,3.634-0.49,5.166-1.343l6.527,6.527c-1.791,1.908-2.898,4.466-2.898,7.284c0,5.878,4.782,10.66,10.66,10.66  s10.66-4.782,10.66-10.66S86.253,51.605,80.375,51.605z M21.228,45.798c-3.673,0-6.66-2.987-6.66-6.66s2.987-6.66,6.66-6.66  s6.66,2.987,6.66,6.66S24.9,45.798,21.228,45.798z M34.414,16.348c0-3.673,2.987-6.66,6.66-6.66s6.66,2.987,6.66,6.66  s-2.987,6.66-6.66,6.66S34.414,20.021,34.414,16.348z M19.625,90.313c-3.673,0-6.66-2.987-6.66-6.66s2.987-6.66,6.66-6.66  s6.66,2.987,6.66,6.66S23.298,90.313,19.625,90.313z M41.074,68.926c-3.673,0-6.66-2.987-6.66-6.66s2.987-6.66,6.66-6.66  s6.66,2.987,6.66,6.66S44.747,68.926,41.074,68.926z M68.617,83.652c0,3.673-2.987,6.66-6.66,6.66s-6.66-2.987-6.66-6.66  s2.987-6.66,6.66-6.66S68.617,79.979,68.617,83.652z M54.26,39.138c0-3.673,2.987-6.66,6.66-6.66s6.66,2.987,6.66,6.66  s-2.987,6.66-6.66,6.66S54.26,42.811,54.26,39.138z M80.375,68.926c-3.673,0-6.66-2.987-6.66-6.66s2.987-6.66,6.66-6.66  s6.66,2.987,6.66,6.66S84.048,68.926,80.375,68.926z"/><text x="0" y="115" fill="#000000" font-size="5px" font-weight="bold" font-family="'Helvetica Neue', Helvetica, Arial-Unicode, Arial, Sans-serif">Created by H Alberto Gongora</text><text x="0" y="120" fill="#000000" font-size="5px" font-weight="bold" font-family="'Helvetica Neue', Helvetica, Arial-Unicode, Arial, Sans-serif">from the Noun Project</text></svg>