<svg xmlns="http://www.w3.org/2000/svg" xmlns:xlink="http://www.w3.org/1999/xlink" version="1.1" x="0px" y="0px" viewBox="0 0 65 81.25" enable-background="new 0 0 65 65" xml:space="preserve"><g><path d="M30.4,45.8L29.3,42c0.4-0.5,0.7-1.2,0.7-1.8c0-1.6-1.3-2.8-2.8-2.8c-1.6,0-2.8,1.3-2.8,2.8c0,0.7,0.2,1.3,0.7,1.8l-1.1,3.9   H30.4z M27.1,38.8c0.7,0,1.3,0.6,1.3,1.3c0,0.4-0.2,0.8-0.5,1l-0.4,0.3l0.8,2.8h-2.5l0.8-2.8l-0.4-0.3c-0.3-0.3-0.5-0.6-0.5-1   C25.8,39.4,26.4,38.8,27.1,38.8z"/><path d="M60.5,4.7h-56c-2.6,0-4.7,2.1-4.7,4.8v46.1c0,2.6,2.1,4.8,4.7,4.8h56c2.6,0,4.8-2.1,4.8-4.8V9.4   C65.3,6.8,63.1,4.7,60.5,4.7z M4.5,6.2h56c1.8,0,3.3,1.5,3.3,3.3v3H1.3v-3C1.3,7.6,2.7,6.2,4.5,6.2z M60.5,58.8h-56   c-1.8,0-3.2-1.5-3.2-3.3V13.9h62.5v41.7C63.8,57.4,62.3,58.8,60.5,58.8z"/><rect x="53.1" y="8.6" width="1.5" height="1.5"/><rect x="56.9" y="8.6" width="1.5" height="1.5"/><rect x="49.3" y="8.6" width="1.5" height="1.5"/><rect x="6.1" y="8.6" width="38.5" height="1.5"/><path d="M4.1,29.9h17.8c0,0.2-0.1,0.3-0.1,0.5v4.1h-4.2V49h18.9V34.6h-4.2v-4.1c0-0.2,0-0.3-0.1-0.5h5V17.1H4.1V29.9z M35.1,47.5   H19.2V36.1h15.9V47.5z M23.3,34.6v-4.1c0-2.1,1.7-3.8,3.8-3.8s3.8,1.7,3.8,3.8v4.1H23.3z M5.6,18.6h30.3v9.8H32   c-0.8-1.9-2.7-3.3-4.9-3.3c-2.2,0-4.1,1.4-4.9,3.3H5.6V18.6z"/><path d="M39.6,29.9h21.4V17.1H39.6V29.9z M41.1,18.6h18.4v9.8H41.1V18.6z"/><path d="M52.4,22.5c0-1.7-1.4-3.2-3.2-3.2c-1.7,0-3.2,1.4-3.2,3.2s1.4,3.2,3.2,3.2c0.6,0,1.2-0.2,1.6-0.5l2.4,2.4l1.1-1.1l-2.4-2.4   C52.2,23.7,52.4,23.1,52.4,22.5z M49.2,24.2c-0.9,0-1.7-0.7-1.7-1.7c0-0.9,0.7-1.7,1.7-1.7c0.9,0,1.7,0.7,1.7,1.7   C50.9,23.4,50.1,24.2,49.2,24.2z"/><path d="M45.7,43.3l3.8,11.9l1.9-5.2l3.4,3.4l1.1-1.1L52.4,49l5.2-1.9L45.7,43.3z M49.6,50.6L48,45.6l4.9,1.6l-2.5,0.9L49.6,50.6z"/><rect x="9.9" y="22.8" transform="matrix(0.4472 -0.8944 0.8944 0.4472 -13.6822 24.9121)" width="6.8" height="1.5"/><rect x="13.6" y="22.8" transform="matrix(0.4472 -0.8944 0.8944 0.4472 -11.6438 28.2103)" width="6.8" height="1.5"/><rect x="7.9" y="21.1" width="1.5" height="1.5"/><rect x="7.9" y="24.3" width="1.5" height="1.5"/></g><text x="0" y="80" fill="#000000" font-size="5px" font-weight="bold" font-family="'Helvetica Neue', Helvetica, Arial-Unicode, Arial, Sans-serif">Created by Creative Stall</text><text x="0" y="85" fill="#000000" font-size="5px" font-weight="bold" font-family="'Helvetica Neue', Helvetica, Arial-Unicode, Arial, Sans-serif">from the Noun Project</text></svg>