<svg xmlns="http://www.w3.org/2000/svg" xmlns:xlink="http://www.w3.org/1999/xlink" version="1.1" x="0px" y="0px" viewBox="0 0 100 125" enable-background="new 0 0 100 100" xml:space="preserve"><g><path d="M59.001,23.441c-1.661,0-3.023,1.224-3.266,2.816H40.26v-8.126h6.506c0.329,1.486,1.648,2.598,3.233,2.598   c1.832,0,3.316-1.484,3.316-3.316c0-1.831-1.484-3.315-3.316-3.316c-1.735,0-3.143,1.337-3.288,3.034H39.76   c-0.132,0-0.26,0.053-0.354,0.146S39.26,17.5,39.26,17.631v9.126v7.063c0,0.03,0.012,0.056,0.017,0.084   c-0.766,0.338-1.485,0.721-2.153,1.146c-0.111,0.072-0.213,0.152-0.32,0.225l0.135-0.076l0.1-0.039   c-0.098,0.047-0.193,0.094-0.287,0.152l0.053-0.037l-0.059,0.033l-0.051,0.033l-0.012,0.006l-0.037,0.025l-0.09,0.074l0.041-0.029   c-0.127,0.092-0.252,0.186-0.365,0.301c0.102-0.102,0.213-0.188,0.324-0.271c-0.176,0.123-0.359,0.24-0.529,0.369   c-1.312,0.996-2.416,2.146-3.336,3.367c-2.807,3.719-3.945,8.039-4.305,10.651l-0.002,0.027c-0.029,0.355-0.045,0.703-0.064,1.055   l-0.018,0.09l0.01,0.049c-0.041,0.773-0.068,1.537-0.068,2.283c0,0.82,0.031,1.619,0.078,2.408c0.004,0.092,0.01,0.182,0.016,0.273   c0.033,0.494,0.072,0.98,0.121,1.461c0.047,0.469,0.1,0.931,0.162,1.386c0.254,1.861,0.627,3.615,1.088,5.262   c0.139,0.488,0.281,0.969,0.434,1.438c0.763,2.367,1.7,4.489,2.702,6.366H27.29c-0.132,0-0.26,0.054-0.354,0.146   s-0.146,0.222-0.146,0.354v7.485c-1.592,0.242-2.815,1.605-2.816,3.265c0,1.832,1.484,3.316,3.316,3.316s3.316-1.484,3.316-3.316   c0-1.66-1.224-3.022-2.817-3.265v-6.985h5.183c0.139,0,0.264-0.057,0.354-0.147c0.193,0.34,0.383,0.691,0.579,1.013l0.033,0.057   c0.252,0.414,0.506,0.818,0.76,1.203c3.227,4.888,6.453,7.388,6.482,7.411l0.01,0.008c0.969,0.715,2.17,1.139,3.464,1.139   c2.391,0,4.442-1.438,5.346-3.492c0.904,2.055,2.955,3.492,5.345,3.492c1.296,0,2.497-0.424,3.465-1.139l0.01-0.008   c0.03-0.023,3.255-2.523,6.483-7.411c0.254-0.385,0.506-0.789,0.759-1.203l0.033-0.057c1.395-2.295,2.735-5.044,3.764-8.231   c0.151-0.469,0.295-0.949,0.433-1.438c0.461-1.646,0.834-3.4,1.088-5.262c0.062-0.455,0.115-0.917,0.162-1.386   c0.049-0.48,0.089-0.967,0.121-1.461c0.006-0.092,0.012-0.182,0.017-0.273c0.046-0.789,0.078-1.588,0.078-2.408   c0-0.746-0.028-1.51-0.068-2.283l0.01-0.049l-0.019-0.09c-0.02-0.352-0.035-0.699-0.063-1.055l-0.003-0.027   c-0.359-2.612-1.497-6.932-4.305-10.651c-0.918-1.221-2.021-2.371-3.335-3.367c-0.169-0.129-0.354-0.246-0.529-0.369   c0.112,0.084,0.224,0.17,0.325,0.271c-0.114-0.115-0.24-0.209-0.367-0.301l0.042,0.029l-0.091-0.074l-0.037-0.025l-0.01-0.006   l-0.053-0.033l-0.057-0.033l0.052,0.037c-0.093-0.059-0.19-0.105-0.287-0.152l0.101,0.039l0.135,0.076   c-0.109-0.072-0.21-0.152-0.322-0.225c-2.544-1.617-5.775-2.67-9.83-2.666c-1.015,0-1.912,0.395-2.542,1.041   c-0.199,0.203-0.36,0.436-0.503,0.682c-0.143-0.246-0.304-0.479-0.503-0.682c-0.63-0.646-1.526-1.041-2.542-1.041   c-2.545-0.002-4.765,0.412-6.695,1.12v-6.247h15.475c0.242,1.593,1.604,2.816,3.266,2.816s3.023-1.223,3.266-2.816h2.734   c0.005,0,0.01-0.003,0.015-0.003c0.242,1.594,1.604,2.819,3.267,2.819c1.832,0,3.316-1.484,3.316-3.316   c0-1.831-1.484-3.315-3.316-3.316c-1.662,0-3.025,1.226-3.267,2.819c-0.005,0-0.01-0.003-0.015-0.003h-2.734   C62.024,24.666,60.662,23.442,59.001,23.441z M50,15.097c1.279,0.002,2.314,1.038,2.316,2.316c-0.002,1.28-1.037,2.314-2.316,2.316   c-1.279-0.002-2.314-1.037-2.316-2.316C47.686,16.135,48.721,15.1,50,15.097z M29.606,83.183c-0.002,1.279-1.037,2.314-2.316,2.316   c-1.279-0.002-2.314-1.037-2.316-2.316c0.002-1.277,1.035-2.312,2.313-2.315c0.001,0,0.002,0.001,0.003,0.001   c0.001,0,0.002-0.001,0.003-0.001C28.571,80.871,29.604,81.905,29.606,83.183z M39.854,34.744c-0.08,0.15-0.146,0.309-0.199,0.473   c-0.139-0.074-0.281-0.137-0.428-0.188C39.433,34.932,39.642,34.836,39.854,34.744z M29.38,49.958   c0.043-0.32,0.105-0.678,0.178-1.051c0.057-0.289,0.123-0.592,0.197-0.909c0.09-0.178,0.201-0.35,0.35-0.498   c0.375-0.375,0.863-0.561,1.355-0.562c0.433,0.002,0.856,0.154,1.21,0.444l-0.163,0.133c-0.568,0.569-0.854,1.317-0.854,2.061   c0,0.746,0.285,1.495,0.854,2.063c0.195,0.195,0.512,0.195,0.709,0c0.195-0.195,0.195-0.512,0-0.708   c-0.375-0.375-0.561-0.863-0.562-1.355c0.002-0.492,0.186-0.979,0.562-1.354c0.375-0.375,0.861-0.561,1.354-0.563   c0.482,0.002,0.957,0.182,1.33,0.542l0.021,0.025c0.195,0.195,0.512,0.195,0.707,0l0.002-0.002l0.002-0.002   c0.195-0.195,0.195-0.512,0-0.708l-0.025-0.021c-0.359-0.373-0.539-0.848-0.541-1.33c0.002-0.344,0.098-0.686,0.281-0.988   c0.078-0.129,0.168-0.254,0.281-0.365c0.252-0.252,0.557-0.412,0.879-0.494l0.246-0.045l0.229-0.023   c0.412,0.002,0.814,0.139,1.156,0.398l0.199,0.164c0.195,0.195,0.512,0.195,0.707,0s0.195-0.512,0-0.707l-0.262-0.215   c0.266-0.453,0.41-0.959,0.408-1.467c0.002-0.744-0.285-1.492-0.854-2.061c-0.195-0.195-0.512-0.195-0.707,0s-0.195,0.512,0,0.707   c0.375,0.375,0.561,0.863,0.561,1.354c0,0.346-0.098,0.688-0.281,0.99c-0.301-0.102-0.613-0.162-0.928-0.162   c-0.662-0.002-1.322,0.238-1.863,0.691l-0.197,0.162c-0.182,0.18-0.322,0.383-0.447,0.596c-0.264,0.453-0.408,0.957-0.408,1.465   c0,0.184,0.02,0.369,0.053,0.551c-0.182-0.035-0.365-0.053-0.549-0.053c-0.342-0.001-0.684,0.066-1.01,0.188l-0.037-0.056   c-0.568-0.568-1.318-0.855-2.062-0.854c-0.42-0.002-0.832,0.117-1.221,0.303c0.145-0.455,0.305-0.916,0.486-1.391   c0.508,0.367,1.104,0.561,1.701,0.559c0.744,0.002,1.494-0.285,2.061-0.854c0.57-0.568,0.855-1.316,0.855-2.062   c0-0.744-0.285-1.492-0.854-2.061c-0.195-0.195-0.512-0.195-0.707,0s-0.195,0.512,0,0.707c0.375,0.375,0.561,0.863,0.561,1.354   c0,0.492-0.186,0.98-0.562,1.355c-0.375,0.375-0.861,0.561-1.354,0.561c-0.477,0-0.943-0.176-1.314-0.525   c0.604-1.377,1.381-2.785,2.377-4.1c0.561-0.74,1.193-1.449,1.896-2.111l-0.01,0.107c0,0.604,0.197,1.205,0.57,1.715   c-0.338,0.494-0.514,1.07-0.514,1.645c0,0.744,0.287,1.494,0.855,2.062c0.195,0.195,0.512,0.195,0.707,0s0.195-0.512,0-0.707   c-0.375-0.375-0.561-0.863-0.562-1.355c0.002-0.492,0.188-0.98,0.562-1.355s0.863-0.561,1.355-0.561l0.139,0.014   c0.551,0.492,1.242,0.752,1.936,0.75c0.342,0,0.684-0.066,1.008-0.186c-0.092,0.287-0.15,0.584-0.15,0.883   c0,0.604,0.197,1.205,0.57,1.715c-0.338,0.494-0.514,1.07-0.514,1.645c0,0.621,0.211,1.24,0.609,1.762   c-0.207,0.365-0.328,0.764-0.365,1.17c-0.516-0.389-1.129-0.596-1.742-0.594c-0.488-0.002-0.971,0.133-1.41,0.377   c-0.197-0.148-0.473-0.141-0.65,0.037c-0.156,0.156-0.182,0.385-0.092,0.572l0.092,0.135c0.172,0.172,0.299,0.369,0.391,0.579   c0.109,0.246,0.17,0.51,0.17,0.777c0,0.492-0.188,0.979-0.562,1.355c-0.375,0.373-0.861,0.561-1.355,0.561   c-0.48,0-0.955-0.18-1.326-0.537l-0.021-0.029c-0.195-0.195-0.512-0.195-0.707,0l-0.002,0.002l-0.004,0.004   c-0.195,0.195-0.195,0.512,0,0.707l0.027,0.023c0.357,0.372,0.539,0.846,0.539,1.327c0,0.492-0.188,0.98-0.562,1.355   s-0.861,0.561-1.355,0.561c-0.477,0-0.947-0.18-1.316-0.531l0.023-0.232c0-1.066-0.578-1.988-1.43-2.499l-0.209-0.102   c-0.23-0.117-0.473-0.213-0.736-0.264C29.356,50.36,29.362,50.161,29.38,49.958z M45.201,44.424   c-0.238-0.062-0.48-0.104-0.727-0.104c-0.663-0.002-1.325,0.24-1.864,0.693c-0.176-0.299-0.27-0.631-0.271-0.969   c0.002-0.492,0.188-0.98,0.562-1.355s0.863-0.561,1.355-0.561c0.464,0,0.921,0.172,1.286,0.506   c-0.242,0.439-0.379,0.924-0.377,1.41C45.166,44.172,45.186,44.297,45.201,44.424z M45.176,41.289   c-0.299-0.1-0.609-0.16-0.919-0.16c-0.594-0.002-1.186,0.189-1.691,0.551c-0.186-0.305-0.283-0.646-0.283-0.994   c0-0.492,0.186-0.98,0.562-1.355c0.375-0.375,0.861-0.561,1.354-0.562c0.466,0.002,0.923,0.174,1.288,0.508   c-0.244,0.439-0.379,0.924-0.379,1.41C45.107,40.889,45.133,41.09,45.176,41.289z M42.675,52.452c0,0.277,0.223,0.5,0.5,0.5   c0.275,0,0.5-0.223,0.5-0.5c0-0.795-0.523-1.461-1.242-1.692c0.016-0.096,0.039-0.188,0.066-0.279   c0.045-0.105,0.076-0.217,0.109-0.326c0.373-0.844,1.197-1.438,2.165-1.49c0.623,0.59,1.422,0.895,2.222,0.893   c0.827,0.002,1.659-0.316,2.289-0.947L50,48.002l0.716,0.607c0.63,0.631,1.461,0.949,2.289,0.947c0.8,0.002,1.6-0.303,2.222-0.893   c0.969,0.053,1.791,0.646,2.165,1.49c0.033,0.109,0.063,0.221,0.11,0.326c0.026,0.092,0.05,0.184,0.066,0.279   c-0.719,0.23-1.242,0.897-1.243,1.692c0,0.277,0.224,0.5,0.5,0.5s0.5-0.223,0.5-0.5c0.001-0.432,0.352-0.783,0.784-0.783   s0.783,0.352,0.784,0.783c0,0.277,0.224,0.5,0.5,0.5s0.5-0.223,0.5-0.5c0-0.689-0.396-1.279-0.968-1.579l-0.12-0.221   c-0.166-0.164-0.288-0.355-0.38-0.555c-0.038-0.119-0.072-0.24-0.123-0.354c-0.034-0.146-0.059-0.297-0.059-0.447   c0.001-0.49,0.187-0.979,0.562-1.354c0.375-0.375,0.862-0.561,1.354-0.561c0.28,0,0.556,0.066,0.813,0.188   c-0.201,0.406-0.314,0.846-0.314,1.29c0,0.744,0.286,1.494,0.855,2.062c0.198,0.2,0.425,0.35,0.66,0.481   c-1.419,0.197-2.514,1.402-2.515,2.875c-0.002,1.059-0.858,1.914-1.916,1.916c-1.059-0.002-1.915-0.857-1.917-1.916l-0.009-0.047   l0.009-0.047c0-1.75-1.417-3.166-3.165-3.166c-0.836,0-1.59,0.33-2.156,0.857h-0.011l-0.47,0.662l-0.519-0.662h-0.011   c-0.567-0.527-1.321-0.857-2.157-0.857c-1.748,0-3.165,1.416-3.165,3.166l0.01,0.047l-0.01,0.047   c-0.002,1.059-0.859,1.914-1.916,1.916c-1.059-0.002-1.916-0.857-1.918-1.916c0-1.473-1.096-2.678-2.514-2.875   c0.236-0.131,0.461-0.281,0.66-0.481c0.568-0.568,0.855-1.318,0.855-2.062c0-0.443-0.113-0.883-0.314-1.29   c0.258-0.121,0.533-0.188,0.814-0.188c0.492,0,0.979,0.186,1.354,0.561c0.375,0.375,0.561,0.864,0.561,1.354   c0,0.15-0.023,0.301-0.059,0.447c-0.051,0.113-0.084,0.234-0.123,0.354c-0.092,0.199-0.213,0.391-0.379,0.555l-0.121,0.221   c-0.572,0.299-0.967,0.889-0.967,1.579c0,0.277,0.223,0.5,0.5,0.5c0.275,0,0.5-0.223,0.5-0.5c0-0.432,0.352-0.783,0.783-0.783   C42.323,51.669,42.673,52.021,42.675,52.452z M54.456,42.635c0.366-0.334,0.823-0.506,1.288-0.506c0.492,0,0.979,0.186,1.354,0.561   s0.562,0.863,0.562,1.355c0,0.338-0.095,0.67-0.271,0.969c-0.539-0.453-1.2-0.695-1.865-0.693c-0.244,0-0.487,0.041-0.726,0.104   c0.016-0.127,0.036-0.252,0.036-0.379C54.835,43.559,54.7,43.074,54.456,42.635z M54.514,39.275   c0.365-0.334,0.822-0.506,1.287-0.508c0.492,0.002,0.979,0.188,1.355,0.562c0.375,0.375,0.561,0.863,0.562,1.355   c-0.001,0.348-0.098,0.689-0.283,0.994c-0.505-0.361-1.098-0.553-1.69-0.551c-0.312,0-0.62,0.061-0.92,0.16   c0.043-0.199,0.067-0.4,0.067-0.604C54.893,40.199,54.757,39.715,54.514,39.275z M61.925,67.022   c0.244,0.243,0.525,0.424,0.821,0.564c-0.398,0.148-0.772,0.374-1.092,0.694c-0.595,0.594-0.894,1.377-0.893,2.156l0.001,0.016   l-0.23,0.123c-0.376,0.376-0.863,0.562-1.355,0.562s-0.979-0.186-1.354-0.562s-0.562-0.863-0.562-1.356   c0-0.347,0.098-0.688,0.283-0.993c0.505,0.361,1.097,0.551,1.69,0.551c0.744,0,1.494-0.285,2.062-0.854   c0.195-0.196,0.195-0.513,0-0.708s-0.512-0.195-0.707,0c-0.376,0.375-0.863,0.561-1.355,0.562   c-0.492-0.001-0.979-0.187-1.355-0.562c-0.375-0.375-0.561-0.862-0.562-1.354c0.001-0.486,0.185-0.968,0.551-1.342l0.021-0.014   c0.269-0.268,0.469-0.579,0.611-0.909l0.005,0.006c0.567,0.568,1.317,0.854,2.062,0.854c0.187,0,0.373-0.018,0.558-0.055   c-0.036,0.185-0.054,0.371-0.054,0.558C61.07,65.705,61.356,66.455,61.925,67.022z M38.704,67.924   c0.568,0.568,1.316,0.854,2.062,0.854c0.592,0,1.186-0.189,1.689-0.551c0.186,0.305,0.283,0.646,0.283,0.993   c0,0.493-0.186,0.98-0.561,1.356c-0.377,0.376-0.863,0.562-1.355,0.562s-0.98-0.186-1.355-0.562l-0.23-0.123l0.002-0.016   c0-0.779-0.299-1.562-0.895-2.156c-0.318-0.32-0.693-0.546-1.09-0.694c0.295-0.141,0.576-0.321,0.82-0.564   c0.568-0.567,0.855-1.317,0.854-2.062c0-0.187-0.018-0.373-0.053-0.558c0.184,0.037,0.371,0.055,0.557,0.055   c0.746,0,1.494-0.286,2.062-0.854l0.006-0.006c0.141,0.33,0.342,0.642,0.611,0.909l0.02,0.014c0.367,0.374,0.551,0.855,0.551,1.342   c0,0.492-0.188,0.979-0.562,1.354s-0.861,0.561-1.354,0.562c-0.492-0.001-0.98-0.187-1.355-0.562c-0.195-0.195-0.512-0.195-0.707,0   S38.509,67.728,38.704,67.924z M36.019,51.737l-0.135,0.072l-0.008-0.086L36.019,51.737z M29.243,53.339   c0-0.578,0.014-1.168,0.039-1.762c0.822,0.215,1.434,0.955,1.436,1.848c-0.002,0.887-0.607,1.625-1.426,1.844   C29.263,54.636,29.243,53.993,29.243,53.339z M29.847,60.236c0.43,0.25,0.922,0.403,1.455,0.403   c1.611-0.001,2.918-1.306,2.918-2.915c0-0.276-0.223-0.5-0.5-0.5c-0.275,0-0.5,0.224-0.5,0.5c-0.002,1.057-0.859,1.913-1.918,1.915   c-0.758-0.001-1.404-0.444-1.717-1.083c-0.098-0.739-0.172-1.498-0.229-2.272c0.906-0.174,1.654-0.771,2.051-1.576   c0.35,0.23,0.74,0.371,1.141,0.436c-0.285,0.451-0.457,0.98-0.457,1.553c0,0.277,0.225,0.5,0.5,0.5c0.277,0,0.5-0.223,0.5-0.5   c0.002-1.059,0.859-1.914,1.918-1.916c1.057,0.002,1.914,0.857,1.916,1.916c0,0.277,0.223,0.5,0.5,0.5c0.275,0,0.5-0.223,0.5-0.5   c0-1.42-1.018-2.6-2.361-2.859c0.201-0.844,0.955-1.473,1.859-1.475c1.059,0.002,1.914,0.857,1.916,1.916   c0.002,0.918,0.434,1.727,1.096,2.26l0.055,0.082c0.375,0.375,0.561,0.863,0.561,1.355c0,0.491-0.186,0.979-0.562,1.354   c-0.375,0.375-0.861,0.561-1.354,0.561c-0.453,0-0.898-0.165-1.26-0.482c-0.104-0.564-0.369-1.105-0.805-1.538   c-0.195-0.195-0.512-0.195-0.707,0c-0.195,0.194-0.195,0.511,0,0.706c0.375,0.375,0.561,0.861,0.561,1.354s-0.186,0.98-0.561,1.356   c-0.377,0.375-0.863,0.561-1.355,0.562c-0.432-0.001-0.855-0.152-1.209-0.441c-0.119-0.202-0.258-0.396-0.432-0.57   c-0.195-0.195-0.512-0.195-0.707,0s-0.195,0.512,0,0.707l0.158,0.193c0.018,0.094,0.055,0.185,0.127,0.257l0.068,0.056   c0.133,0.268,0.207,0.556,0.207,0.85c0,0.492-0.188,0.979-0.562,1.355c-0.375,0.374-0.861,0.56-1.355,0.561   c-0.121,0-0.24-0.012-0.359-0.035C30.503,63.353,30.13,61.839,29.847,60.236z M35.956,75.112c0.137,0.02,0.271,0.039,0.408,0.039   c0.207,0,0.412-0.04,0.615-0.086c-0.043,0.194-0.072,0.393-0.072,0.601c0,0.358,0.072,0.697,0.191,1.016   C36.724,76.19,36.343,75.671,35.956,75.112z M49.495,77.776c0,1.339-0.542,2.544-1.417,3.421c-0.655,0.654-1.495,1.121-2.435,1.316   l-0.033-0.008c-1.057-0.002-1.913-0.857-1.915-1.916c0.002-1.057,0.858-1.914,1.915-1.916c0.277,0,0.5-0.223,0.5-0.5   c0-0.275-0.223-0.5-0.5-0.5c-1.057-0.002-1.913-0.857-1.915-1.917c0.002-1.057,0.858-1.914,1.915-1.916c0.277,0,0.5-0.223,0.5-0.5   c0-0.275-0.223-0.5-0.5-0.5c-0.654,0-1.251,0.224-1.737,0.586c-0.102-0.402-0.301-0.785-0.613-1.1   c-0.195-0.195-0.512-0.195-0.707,0s-0.195,0.512,0,0.707c0.268,0.27,0.402,0.619,0.402,0.974s-0.133,0.702-0.402,0.972   s-0.619,0.402-0.975,0.403c-0.354-0.001-0.703-0.134-0.973-0.402c-0.195-0.195-0.512-0.195-0.707,0s-0.195,0.512,0,0.707   c0.346,0.345,0.771,0.561,1.217,0.648l0.205,0.047c0.988,0.002,1.789,0.803,1.791,1.791c-0.002,0.99-0.803,1.789-1.791,1.791   c-0.275,0-0.5,0.225-0.5,0.5c0,0.277,0.225,0.5,0.5,0.5c0.502,0,0.967-0.143,1.375-0.375c0,0.699,0.256,1.334,0.668,1.836   c-0.574-0.158-1.109-0.408-1.576-0.752l-0.023-0.02l-0.102-0.082c-0.088-0.072-0.221-0.186-0.391-0.334   c-0.34-0.299-0.83-0.75-1.418-1.35c-0.473-0.484-1.018-1.086-1.594-1.768c0.451,0.289,0.986,0.463,1.564,0.463   c0.275,0,0.5-0.225,0.5-0.5c0-0.277-0.225-0.501-0.5-0.501c-1.059-0.002-1.914-0.858-1.916-1.917   c0.002-1.058,0.857-1.914,1.916-1.916c0.275,0,0.5-0.224,0.5-0.5s-0.225-0.5-0.5-0.5c-0.73,0-1.389,0.279-1.9,0.724l-0.205,0.117   c-0.375,0.375-0.861,0.561-1.354,0.561s-0.98-0.186-1.357-0.561c-0.086-0.088-0.162-0.184-0.229-0.281l-0.047-0.079   c-0.188-0.306-0.285-0.647-0.285-0.995c0-0.492,0.186-0.979,0.561-1.355c0.195-0.196,0.195-0.513,0-0.708s-0.512-0.195-0.707,0   c-0.318,0.318-0.537,0.696-0.678,1.097c-0.861-1.634-1.668-3.452-2.35-5.458l0.029,0.004c0.436,0,0.867-0.109,1.268-0.303   c0.145,0.016,0.293-0.025,0.404-0.137c0.352-0.35,0.807-0.523,1.268-0.523c0.459,0,0.916,0.174,1.266,0.523   c0.195,0.195,0.512,0.195,0.707,0s0.195-0.512,0-0.707c-0.543-0.543-1.26-0.817-1.973-0.816l-0.197,0.019   c0.111-0.315,0.176-0.644,0.176-0.972l-0.018-0.178c0.264,0.076,0.533,0.127,0.805,0.127c0.744,0,1.494-0.286,2.062-0.854   c0.402-0.403,0.656-0.898,0.773-1.417c0.408,0.201,0.848,0.315,1.291,0.314c0.615,0.001,1.229-0.206,1.746-0.596   c0.309,0.359,0.469,0.797,0.471,1.244c0,0.108-0.014,0.215-0.031,0.322l-0.014,0.072c-0.072,0.353-0.242,0.688-0.518,0.962   c-0.375,0.375-0.863,0.561-1.355,0.562c-0.492-0.001-0.979-0.187-1.354-0.562c-0.195-0.195-0.512-0.195-0.707,0l-0.002,0.002   l-0.002,0.001c-0.195,0.195-0.195,0.512,0,0.707c0.375,0.375,0.561,0.862,0.561,1.354s-0.186,0.98-0.561,1.356   c-0.375,0.375-0.863,0.56-1.355,0.56s-0.979-0.185-1.355-0.56l-0.148-0.1c-0.08-0.111-0.164-0.224-0.266-0.324   c-0.195-0.195-0.512-0.195-0.707,0s-0.195,0.512,0,0.707c0.32,0.318,0.479,0.733,0.479,1.153s-0.158,0.835-0.479,1.155   c-0.195,0.194-0.195,0.512,0,0.707s0.512,0.195,0.707,0c0.176-0.175,0.309-0.373,0.426-0.578l0.072-0.049   c0.4-0.401,0.922-0.6,1.449-0.601c0.525,0.001,1.047,0.198,1.447,0.601c0.402,0.4,0.6,0.922,0.602,1.449   c-0.002,0.526-0.199,1.048-0.602,1.449c-0.195,0.195-0.195,0.512,0,0.707s0.512,0.195,0.707,0c0.318-0.317,0.545-0.688,0.693-1.084   c0.525,0.409,1.152,0.628,1.785,0.628c0.744,0,1.494-0.285,2.062-0.854c0.246-0.246,0.428-0.53,0.568-0.83   c0.533,0.592,1.296,0.969,2.153,0.971h0.002c1.059,0.002,1.914,0.858,1.916,1.917c-0.002,1.058-0.857,1.914-1.916,1.916   c-0.277,0-0.5,0.224-0.5,0.5s0.223,0.5,0.5,0.5c1.057,0.002,1.914,0.858,1.916,1.918c-0.002,1.057-0.859,1.914-1.916,1.916   c-0.277,0-0.5,0.223-0.5,0.5c0,0.275,0.223,0.498,0.5,0.498c1.609,0,2.915-1.305,2.916-2.914c-0.001-1.007-0.51-1.893-1.283-2.417   c0.773-0.525,1.283-1.411,1.283-2.417c0-1.61-1.304-2.916-2.912-2.918h-0.002c-1.059-0.002-1.915-0.859-1.917-1.917   c0.002-1.045,0.839-1.892,1.88-1.911l0.037,0.004c0.275,0,0.5-0.225,0.5-0.5l-0.002-0.006v-0.002c0-0.276-0.223-0.5-0.5-0.5   l-0.035,0.004c-1.041-0.021-1.878-0.867-1.88-1.913c0-1.058,0.858-1.916,1.917-1.917c0.275,0,0.498-0.224,0.498-0.5l-0.016-0.082   c-0.041-0.235-0.236-0.418-0.484-0.418l-0.104,0.012l-0.215-0.055c-0.846-0.001-1.53-0.686-1.532-1.531   c0.002-0.846,0.687-1.529,1.532-1.53c0.275,0,0.5-0.225,0.5-0.5c0-0.277-0.225-0.5-0.5-0.5c-1.399,0-2.532,1.133-2.532,2.53   c0,0.896,0.469,1.68,1.172,2.129c-0.734,0.521-1.223,1.362-1.232,2.33c-0.289-0.352-0.439-0.773-0.441-1.205   c0-0.107,0.014-0.215,0.031-0.322l0.014-0.072c0.029-0.17,0.049-0.34,0.049-0.512c0-0.393-0.084-0.783-0.244-1.151   c-0.125-0.294-0.307-0.569-0.533-0.815c0.316-0.484,0.477-1.043,0.477-1.597c0-0.275-0.053-0.548-0.131-0.814   c0.113,0.013,0.223,0.033,0.338,0.033c1.609,0,2.915-1.305,2.915-2.916l-0.008-0.047l0.008-0.047   c0.002-1.197,0.971-2.164,2.166-2.166c1.158,0.002,2.097,0.912,2.157,2.055v0.111v0.592v1.346   c-0.421-1.008-1.415-1.717-2.576-1.719c-0.276,0-0.5,0.225-0.5,0.5c0,0.277,0.224,0.5,0.5,0.5c0.988,0.002,1.789,0.803,1.791,1.791   c-0.002,0.988-0.803,1.789-1.791,1.791c-0.276,0-0.5,0.224-0.5,0.5s0.224,0.5,0.5,0.5c1.161-0.001,2.155-0.71,2.576-1.719v0.429   v4.281v0.904c-0.578-0.597-1.383-0.971-2.278-0.972v-0.001h-0.004v0.002c-0.273-0.002-0.498,0.217-0.502,0.492   s0.217,0.503,0.494,0.506h0.008c1.203,0.002,2.18,0.98,2.182,2.184c-0.002,1.206-0.979,2.183-2.184,2.185v0.001   c-0.273,0-0.498,0.219-0.501,0.492c-0.003,0.212,0.128,0.393,0.312,0.468l0.207,0.054h0.014c1.229,0.002,2.225,0.997,2.227,2.228   v0.001l0.025,0.126V77.776z M43.634,66.377c0.029-0.171,0.049-0.343,0.049-0.516v-0.007c0.094,0.084,0.186,0.169,0.291,0.241   C43.853,66.178,43.741,66.276,43.634,66.377z M49.493,69.211c-0.173-0.168-0.369-0.312-0.576-0.438   c0.21-0.134,0.405-0.29,0.578-0.469v0.01l0.511-0.512l0.508,0.509c0.171,0.176,0.362,0.33,0.569,0.462   c-0.19,0.116-0.366,0.251-0.528,0.402l-0.549,0.55L49.493,69.211z M62.901,76.682c0.118-0.318,0.192-0.657,0.192-1.016   c0-0.208-0.029-0.406-0.073-0.601c0.203,0.046,0.408,0.086,0.616,0.086c0.136,0,0.271-0.02,0.406-0.039   C63.658,75.671,63.276,76.19,62.901,76.682z M66.379,71.269c-0.141-0.4-0.361-0.778-0.68-1.097c-0.195-0.195-0.512-0.195-0.707,0   s-0.195,0.512,0,0.708c0.375,0.376,0.561,0.863,0.562,1.355c-0.001,0.348-0.099,0.689-0.284,0.995l-0.047,0.079   c-0.067,0.098-0.143,0.193-0.23,0.281c-0.375,0.375-0.863,0.561-1.355,0.561s-0.979-0.186-1.354-0.561l-0.205-0.117   c-0.512-0.444-1.17-0.724-1.899-0.724c-0.276,0-0.5,0.224-0.5,0.5s0.224,0.5,0.5,0.5c1.058,0.002,1.914,0.858,1.916,1.916   c-0.002,1.059-0.858,1.915-1.916,1.917c-0.276,0-0.5,0.224-0.5,0.501c0,0.275,0.224,0.5,0.5,0.5c0.577,0,1.111-0.174,1.564-0.463   c-0.577,0.682-1.122,1.283-1.596,1.768c-0.588,0.6-1.076,1.051-1.416,1.35c-0.17,0.148-0.303,0.262-0.393,0.334l-0.101,0.082   l-0.023,0.02c-0.468,0.344-1.002,0.594-1.575,0.752c0.411-0.502,0.668-1.137,0.668-1.836c0.407,0.232,0.871,0.375,1.374,0.375   c0.276,0,0.5-0.223,0.5-0.5c0-0.275-0.224-0.5-0.5-0.5c-0.988-0.002-1.789-0.801-1.791-1.791c0.002-0.988,0.803-1.789,1.791-1.791   l0.205-0.047c0.445-0.088,0.872-0.304,1.216-0.648c0.195-0.195,0.195-0.512,0-0.707s-0.512-0.195-0.707,0   c-0.27,0.269-0.618,0.401-0.973,0.402c-0.354-0.001-0.703-0.134-0.974-0.403c-0.269-0.27-0.401-0.617-0.402-0.972   c0.001-0.354,0.134-0.704,0.403-0.974c0.194-0.195,0.194-0.512-0.001-0.707s-0.512-0.195-0.707,0   c-0.313,0.314-0.513,0.697-0.614,1.1c-0.486-0.362-1.083-0.586-1.736-0.586c-0.276,0-0.5,0.225-0.5,0.5c0,0.277,0.224,0.5,0.5,0.5   c1.058,0.002,1.914,0.859,1.916,1.916c-0.002,1.06-0.858,1.915-1.916,1.917c-0.276,0-0.5,0.225-0.5,0.5c0,0.277,0.224,0.5,0.5,0.5   c1.058,0.002,1.914,0.859,1.916,1.916c-0.002,1.059-0.858,1.914-1.916,1.916l-0.032,0.008c-0.94-0.195-1.78-0.662-2.436-1.316   c-0.876-0.877-1.417-2.082-1.417-3.421v-6.131l0.025-0.126v-0.001c0.002-1.23,0.999-2.226,2.227-2.228h0.014l0.207-0.054   c0.185-0.075,0.314-0.256,0.312-0.468c-0.003-0.273-0.228-0.492-0.501-0.492v-0.001c-1.205-0.002-2.182-0.979-2.184-2.185   c0.002-1.203,0.979-2.182,2.182-2.184h0.009c0.276-0.003,0.497-0.23,0.493-0.506c-0.003-0.275-0.228-0.494-0.502-0.492v-0.002   h-0.004v0.001c-0.895,0.001-1.7,0.375-2.277,0.972v-0.904v-4.281v-0.429c0.421,1.009,1.415,1.718,2.575,1.719   c0.276,0,0.5-0.224,0.5-0.5s-0.224-0.5-0.5-0.5c-0.988-0.002-1.789-0.803-1.791-1.791c0.002-0.988,0.803-1.789,1.791-1.791   c0.276,0,0.5-0.223,0.5-0.5c0-0.275-0.224-0.5-0.5-0.5c-1.16,0.002-2.154,0.711-2.575,1.719v-1.346v-0.592v-0.111   c0.06-1.143,0.998-2.053,2.156-2.055c1.195,0.002,2.163,0.969,2.165,2.166l0.01,0.047l-0.01,0.047   c0.001,1.611,1.306,2.916,2.917,2.916c0.115,0,0.225-0.021,0.336-0.033c-0.077,0.267-0.13,0.539-0.13,0.814   c0,0.554,0.16,1.112,0.478,1.597c-0.228,0.246-0.408,0.521-0.535,0.815c-0.158,0.368-0.242,0.759-0.242,1.151   c0,0.172,0.019,0.342,0.049,0.512l0.013,0.072c0.018,0.107,0.03,0.215,0.03,0.322c0,0.432-0.151,0.854-0.439,1.205   c-0.011-0.968-0.499-1.81-1.233-2.33c0.703-0.449,1.172-1.232,1.172-2.129c0-1.397-1.134-2.53-2.531-2.53   c-0.276,0-0.5,0.223-0.5,0.5c0,0.275,0.224,0.5,0.5,0.5c0.845,0.001,1.53,0.685,1.531,1.53c-0.001,0.846-0.687,1.53-1.531,1.531   l-0.216,0.055l-0.104-0.012c-0.247,0-0.443,0.183-0.484,0.418l-0.017,0.082c0,0.276,0.224,0.5,0.5,0.5   c1.058,0.001,1.917,0.859,1.916,1.917c-0.002,1.046-0.839,1.892-1.88,1.913l-0.036-0.004c-0.275,0-0.5,0.224-0.5,0.5l0.001,0.002   L53.889,66.1c0,0.275,0.224,0.5,0.5,0.5l0.037-0.004c1.041,0.02,1.879,0.866,1.88,1.911c-0.002,1.058-0.858,1.915-1.917,1.917   h-0.001c-1.609,0.002-2.913,1.308-2.913,2.918c0,1.006,0.51,1.892,1.284,2.417c-0.774,0.524-1.283,1.41-1.283,2.417   c0,1.609,1.306,2.914,2.916,2.914c0.276,0,0.5-0.223,0.5-0.498c0-0.277-0.224-0.5-0.5-0.5c-1.058-0.002-1.914-0.859-1.916-1.916   c0.002-1.06,0.858-1.916,1.916-1.918c0.276,0,0.5-0.224,0.5-0.5s-0.224-0.5-0.5-0.5h-0.001c-1.058-0.002-1.914-0.858-1.916-1.916   c0.002-1.059,0.858-1.915,1.916-1.917h0.001c0.858-0.002,1.621-0.379,2.154-0.971c0.141,0.3,0.323,0.584,0.569,0.83   c0.567,0.568,1.317,0.854,2.062,0.854c0.632,0,1.261-0.219,1.786-0.628c0.147,0.396,0.374,0.767,0.691,1.084   c0.195,0.195,0.512,0.195,0.707,0s0.195-0.512,0-0.707c-0.4-0.401-0.6-0.923-0.6-1.449c0-0.527,0.199-1.049,0.6-1.449   c0.401-0.402,0.923-0.6,1.448-0.601c0.526,0.001,1.048,0.199,1.449,0.601l0.073,0.049c0.115,0.205,0.25,0.403,0.424,0.578   c0.195,0.195,0.513,0.195,0.707,0c0.195-0.195,0.195-0.513,0-0.707c-0.319-0.32-0.477-0.735-0.478-1.155   c0.001-0.42,0.158-0.835,0.478-1.153c0.195-0.195,0.195-0.512,0-0.707s-0.512-0.195-0.707,0c-0.101,0.101-0.184,0.213-0.266,0.324   l-0.148,0.1c-0.375,0.375-0.862,0.56-1.354,0.56s-0.979-0.185-1.355-0.56c-0.375-0.376-0.561-0.864-0.562-1.356   c0.001-0.492,0.187-0.979,0.562-1.354c0.195-0.195,0.195-0.512,0-0.707l-0.002-0.001l-0.001-0.002   c-0.195-0.195-0.512-0.195-0.707,0c-0.376,0.375-0.863,0.561-1.355,0.562c-0.492-0.001-0.979-0.187-1.354-0.562   c-0.274-0.274-0.445-0.609-0.519-0.962l-0.013-0.072c-0.018-0.107-0.03-0.214-0.03-0.322c0-0.447,0.161-0.885,0.471-1.244   c0.517,0.39,1.13,0.597,1.746,0.596c0.442,0.001,0.883-0.113,1.29-0.314c0.117,0.519,0.371,1.014,0.774,1.417   c0.567,0.568,1.317,0.854,2.062,0.854c0.271,0,0.539-0.051,0.803-0.127l-0.017,0.178c0,0.328,0.065,0.656,0.177,0.972l-0.197-0.019   c-0.713-0.001-1.431,0.273-1.975,0.816c-0.195,0.195-0.195,0.512,0,0.707s0.512,0.195,0.707,0c0.352-0.35,0.807-0.523,1.268-0.523   c0.459,0,0.915,0.174,1.266,0.523c0.111,0.111,0.261,0.152,0.406,0.137c0.4,0.193,0.831,0.303,1.266,0.303l0.029-0.004   C68.045,67.816,67.238,69.635,66.379,71.269z M56.367,66.377c-0.108-0.101-0.219-0.199-0.341-0.281   c0.104-0.072,0.197-0.157,0.292-0.241l-0.001,0.007C56.317,66.034,56.337,66.206,56.367,66.377z M70.414,58.557   c-0.312,0.639-0.959,1.082-1.717,1.083c-1.059-0.002-1.915-0.858-1.917-1.915c0-0.276-0.224-0.5-0.5-0.5s-0.5,0.224-0.5,0.5   c0.001,1.609,1.306,2.914,2.917,2.915c0.533,0,1.026-0.153,1.456-0.403c-0.283,1.603-0.657,3.116-1.097,4.543   c-0.118,0.023-0.238,0.035-0.359,0.035c-0.493-0.001-0.98-0.187-1.355-0.561c-0.375-0.376-0.561-0.863-0.562-1.355   c0.001-0.294,0.075-0.582,0.208-0.85l0.067-0.056c0.072-0.072,0.108-0.163,0.128-0.257l0.158-0.193   c0.195-0.195,0.195-0.512,0-0.707s-0.512-0.195-0.707,0c-0.174,0.174-0.312,0.368-0.434,0.57c-0.352,0.289-0.775,0.44-1.207,0.441   c-0.492-0.001-0.98-0.187-1.355-0.562c-0.376-0.376-0.562-0.864-0.562-1.356s0.186-0.979,0.561-1.354   c0.195-0.195,0.195-0.512,0-0.706c-0.195-0.195-0.512-0.195-0.707,0c-0.435,0.433-0.701,0.974-0.804,1.538   c-0.361,0.317-0.807,0.482-1.26,0.482c-0.492,0-0.979-0.186-1.355-0.561c-0.375-0.375-0.561-0.863-0.562-1.354   c0.001-0.492,0.187-0.98,0.562-1.355l0.055-0.082c0.662-0.533,1.094-1.342,1.094-2.26c0.002-1.059,0.858-1.914,1.917-1.916   c0.905,0.002,1.658,0.631,1.859,1.475c-1.345,0.26-2.36,1.439-2.361,2.859c0,0.277,0.224,0.5,0.5,0.5s0.5-0.223,0.5-0.5   c0.002-1.059,0.858-1.914,1.917-1.916c1.058,0.002,1.914,0.857,1.916,1.916c0,0.277,0.225,0.5,0.5,0.5c0.277,0,0.5-0.223,0.5-0.5   c0-0.572-0.171-1.102-0.456-1.553c0.399-0.064,0.79-0.205,1.141-0.436c0.396,0.805,1.145,1.402,2.051,1.576   C70.587,57.059,70.512,57.817,70.414,58.557z M63.981,51.737l0.143-0.014l-0.008,0.086L63.981,51.737z M70.757,53.339   c0,0.654-0.02,1.297-0.05,1.93c-0.818-0.219-1.424-0.957-1.425-1.844c0.001-0.893,0.612-1.633,1.436-1.848   C70.743,52.171,70.757,52.761,70.757,53.339z M64.566,41.141c0.001-0.574-0.174-1.15-0.513-1.645c0.373-0.51,0.57-1.111,0.57-1.715   l-0.011-0.107c0.703,0.662,1.336,1.371,1.898,2.111c0.994,1.314,1.772,2.723,2.375,4.1c-0.37,0.35-0.838,0.525-1.313,0.525   c-0.492,0-0.979-0.186-1.354-0.561s-0.562-0.863-0.562-1.355c0-0.49,0.186-0.979,0.561-1.354c0.195-0.195,0.195-0.512,0-0.707   s-0.512-0.195-0.707,0c-0.568,0.568-0.854,1.316-0.854,2.061c-0.001,0.746,0.286,1.494,0.854,2.062   c0.567,0.568,1.317,0.855,2.062,0.854c0.598,0.002,1.193-0.191,1.7-0.559c0.183,0.475,0.343,0.936,0.486,1.391   c-0.389-0.186-0.8-0.305-1.22-0.303c-0.745-0.002-1.494,0.285-2.062,0.854l-0.036,0.056c-0.327-0.121-0.669-0.188-1.012-0.188   c-0.184,0-0.367,0.018-0.549,0.053c0.035-0.182,0.053-0.367,0.053-0.551c0.001-0.508-0.143-1.012-0.408-1.465   c-0.123-0.213-0.265-0.416-0.445-0.596l-0.199-0.162c-0.539-0.453-1.199-0.693-1.863-0.691c-0.313,0-0.625,0.061-0.927,0.162   c-0.185-0.303-0.281-0.645-0.282-0.99c0.001-0.49,0.187-0.979,0.562-1.354c0.195-0.195,0.195-0.512,0-0.707s-0.512-0.195-0.707,0   c-0.568,0.568-0.854,1.316-0.854,2.061c0,0.508,0.144,1.014,0.409,1.467l-0.262,0.215c-0.195,0.195-0.195,0.512,0,0.707   s0.512,0.195,0.707,0l0.199-0.164c0.342-0.26,0.745-0.396,1.155-0.398l0.23,0.023l0.246,0.045c0.321,0.082,0.626,0.242,0.879,0.494   c0.112,0.111,0.201,0.236,0.279,0.365c0.185,0.303,0.281,0.645,0.281,0.988c-0.001,0.482-0.181,0.957-0.539,1.33l-0.026,0.021   c-0.195,0.195-0.195,0.512,0,0.708l0.003,0.002l0.002,0.002c0.195,0.195,0.512,0.195,0.707,0l0.021-0.025   c0.372-0.36,0.847-0.54,1.328-0.542c0.492,0.002,0.979,0.188,1.355,0.563c0.375,0.375,0.56,0.861,0.561,1.354   c-0.001,0.492-0.187,0.98-0.561,1.355c-0.195,0.196-0.195,0.512,0,0.708s0.512,0.195,0.707,0c0.568-0.568,0.854-1.317,0.854-2.063   c0.001-0.744-0.285-1.492-0.854-2.061l-0.163-0.133c0.353-0.29,0.777-0.442,1.211-0.444c0.492,0.002,0.979,0.188,1.354,0.562   c0.149,0.148,0.261,0.32,0.351,0.498c0.074,0.317,0.141,0.62,0.196,0.909c0.072,0.373,0.135,0.73,0.179,1.051   c0.017,0.203,0.023,0.402,0.036,0.604c-0.263,0.051-0.505,0.146-0.736,0.264l-0.208,0.102c-0.853,0.51-1.43,1.432-1.43,2.499   l0.023,0.232c-0.37,0.352-0.84,0.531-1.317,0.531c-0.492,0-0.979-0.186-1.354-0.561c-0.376-0.375-0.562-0.863-0.562-1.355   c0.001-0.48,0.181-0.955,0.538-1.327l0.028-0.023c0.195-0.195,0.195-0.512,0-0.707l-0.004-0.004l-0.001-0.002   c-0.195-0.195-0.512-0.195-0.707,0l-0.023,0.029c-0.371,0.357-0.846,0.537-1.326,0.537c-0.492,0-0.979-0.188-1.354-0.561   c-0.376-0.377-0.562-0.863-0.562-1.355c0.001-0.268,0.061-0.531,0.17-0.777c0.093-0.209,0.22-0.407,0.392-0.579l0.09-0.135   c0.092-0.188,0.065-0.416-0.09-0.572c-0.179-0.178-0.455-0.186-0.65-0.037c-0.439-0.244-0.924-0.379-1.41-0.377   c-0.615-0.002-1.228,0.205-1.744,0.594c-0.036-0.406-0.157-0.805-0.364-1.17c0.397-0.521,0.609-1.141,0.608-1.762   c0.001-0.574-0.174-1.15-0.513-1.645c0.373-0.51,0.57-1.111,0.57-1.715c0-0.299-0.059-0.596-0.15-0.883   c0.325,0.119,0.666,0.186,1.007,0.186c0.693,0.002,1.386-0.258,1.937-0.75l0.14-0.014c0.492,0,0.979,0.186,1.354,0.561   s0.562,0.863,0.562,1.355s-0.187,0.98-0.562,1.355c-0.195,0.195-0.195,0.512,0,0.707s0.512,0.195,0.707,0   C64.281,42.635,64.567,41.885,64.566,41.141z M60.772,35.029c-0.146,0.051-0.288,0.113-0.428,0.188   c-0.053-0.164-0.119-0.322-0.199-0.473C60.359,34.836,60.567,34.932,60.772,35.029z M57.582,34.191   c1.059,0.002,1.915,0.859,1.917,1.918c0,0.275,0.224,0.5,0.5,0.5c0.174,0,0.32-0.096,0.409-0.23c0.368-0.34,0.83-0.514,1.299-0.516   c0.354,0.002,0.704,0.102,1.013,0.295l0.067,0.043c0.097,0.064,0.189,0.139,0.275,0.225c0.375,0.375,0.561,0.863,0.562,1.355   c-0.001,0.348-0.098,0.689-0.283,0.994c-0.505-0.361-1.098-0.553-1.69-0.551c-0.694-0.002-1.386,0.258-1.937,0.75l-0.14,0.014   c-0.492,0-0.979-0.186-1.354-0.561c-0.376-0.375-0.562-0.863-0.562-1.355c0.001-0.492,0.187-0.979,0.562-1.354   c0.195-0.195,0.195-0.512,0-0.707s-0.512-0.195-0.707,0c-0.568,0.566-0.854,1.316-0.854,2.061c0,0.299,0.059,0.596,0.15,0.883   c-0.325-0.119-0.665-0.186-1.007-0.186c-0.684-0.002-1.365,0.252-1.912,0.73c-0.455-0.396-1-0.631-1.565-0.697   c-0.042-0.16-0.07-0.322-0.07-0.486c0-0.492,0.186-0.98,0.561-1.355c0.376-0.375,0.863-0.561,1.355-0.561   c0.191,0,0.381,0.037,0.564,0.094c-0.042,0.197-0.067,0.402-0.067,0.615c0,0.275,0.224,0.5,0.5,0.5s0.5-0.225,0.5-0.5l0.005-0.051   c0.011-0.371,0.123-0.717,0.314-1.006C56.329,34.535,56.915,34.193,57.582,34.191z M50.506,39.406v-1.229v-2.254   c0-0.713,0.267-1.344,0.712-1.799c0.447-0.455,1.069-0.738,1.827-0.74c1.081,0.002,2.091,0.086,3.045,0.23   c-0.396,0.238-0.73,0.562-0.975,0.953c-0.308-0.105-0.626-0.168-0.946-0.168c-0.745-0.002-1.494,0.285-2.062,0.854   s-0.854,1.316-0.854,2.062c0,0.18,0.018,0.361,0.052,0.539c0.062,0.33,0.188,0.646,0.364,0.941   c0.102-0.016,0.203-0.029,0.307-0.029c0.342,0.002,0.68,0.098,0.981,0.277c0.132,0.08,0.259,0.17,0.373,0.285   c0.376,0.375,0.562,0.863,0.562,1.355c0,0.348-0.098,0.689-0.283,0.994c-0.505-0.361-1.097-0.553-1.69-0.551   c-0.488-0.002-0.973,0.135-1.412,0.379V39.406z M50,43.459l0.539-0.754l0.023-0.016c0.376-0.375,0.863-0.561,1.355-0.561   s0.979,0.186,1.355,0.561c0.375,0.375,0.561,0.863,0.562,1.355c-0.001,0.492-0.187,0.98-0.562,1.355   c-0.195,0.195-0.195,0.512,0,0.707s0.512,0.195,0.707,0l0.18-0.221l0.009-0.006c0.376-0.375,0.863-0.561,1.355-0.561   s0.979,0.186,1.355,0.561c0.375,0.375,0.561,0.863,0.562,1.355c-0.001,0.373-0.108,0.742-0.323,1.065   c-0.573-0.407-1.269-0.651-2.024-0.651c-0.14,0-0.266,0.059-0.356,0.152l-0.15,0.1c-0.438,0.438-1.008,0.655-1.582,0.655   s-1.144-0.217-1.582-0.655c-0.438-0.438-0.654-1.008-0.655-1.582c0-0.574,0.218-1.145,0.655-1.582   c0.195-0.195,0.195-0.512,0.001-0.707c-0.195-0.195-0.512-0.195-0.708,0l-0.21,0.258h-0.011L50,45.014l-0.495-0.725h-0.011   l-0.21-0.258c-0.196-0.195-0.513-0.195-0.708,0c-0.194,0.195-0.194,0.512,0.001,0.707c0.438,0.438,0.655,1.008,0.655,1.582   c0,0.574-0.217,1.145-0.655,1.582c-0.438,0.438-1.008,0.655-1.582,0.655s-1.144-0.217-1.583-0.655l-0.148-0.1   c-0.092-0.094-0.217-0.152-0.357-0.152c-0.755,0-1.45,0.244-2.024,0.651c-0.215-0.323-0.322-0.692-0.322-1.065   c0-0.492,0.186-0.98,0.561-1.355s0.863-0.561,1.354-0.561c0.492,0,0.98,0.186,1.355,0.561l0.01,0.006l0.18,0.221   c0.195,0.195,0.512,0.195,0.707,0s0.195-0.512,0-0.707c-0.375-0.375-0.561-0.863-0.561-1.355s0.186-0.98,0.561-1.355   c0.376-0.375,0.863-0.561,1.355-0.561s0.979,0.186,1.355,0.561l0.023,0.016L50,43.459z M46.955,33.385   c0.758,0.002,1.381,0.285,1.827,0.74c0.445,0.455,0.712,1.086,0.712,1.799v2.254v1.229v2.102c-0.439-0.244-0.924-0.381-1.413-0.379   c-0.594-0.002-1.186,0.189-1.69,0.551c-0.186-0.305-0.282-0.646-0.284-0.994c0.002-0.492,0.188-0.98,0.562-1.355   c0.114-0.115,0.242-0.205,0.373-0.285c0.303-0.18,0.64-0.275,0.982-0.277c0.103,0,0.205,0.014,0.307,0.029   c0.175-0.295,0.303-0.611,0.363-0.941c0.034-0.178,0.053-0.359,0.053-0.539c0-0.746-0.286-1.494-0.854-2.062   s-1.317-0.855-2.062-0.854c-0.32,0-0.641,0.062-0.947,0.168c-0.244-0.391-0.579-0.715-0.974-0.953   C44.865,33.471,45.873,33.387,46.955,33.385z M40.501,36.109c0.002-1.059,0.859-1.916,1.916-1.918   c0.668,0.002,1.254,0.344,1.598,0.861c0.191,0.289,0.305,0.635,0.314,1.006l0.006,0.051c0,0.275,0.224,0.5,0.499,0.5   c0.277,0,0.5-0.225,0.5-0.5c0-0.213-0.025-0.418-0.068-0.615c0.186-0.057,0.373-0.094,0.566-0.094c0.492,0,0.979,0.186,1.354,0.561   c0.375,0.375,0.561,0.863,0.562,1.355c0,0.164-0.029,0.326-0.07,0.486c-0.566,0.066-1.111,0.301-1.566,0.697   c-0.547-0.479-1.229-0.732-1.913-0.73c-0.34,0-0.68,0.066-1.006,0.186c0.092-0.287,0.15-0.584,0.15-0.883   c0-0.744-0.285-1.494-0.854-2.061c-0.195-0.195-0.512-0.195-0.707,0s-0.195,0.512,0,0.707c0.375,0.375,0.561,0.861,0.561,1.354   s-0.188,0.98-0.562,1.355s-0.861,0.561-1.355,0.561l-0.139-0.014c-0.551-0.492-1.242-0.752-1.936-0.75   c-0.594-0.002-1.186,0.189-1.691,0.551c-0.186-0.305-0.283-0.646-0.283-0.994c0-0.492,0.186-0.98,0.562-1.355   c0.086-0.086,0.178-0.16,0.273-0.225l0.068-0.043c0.309-0.193,0.658-0.293,1.012-0.295c0.471,0.002,0.932,0.176,1.299,0.516   c0.09,0.135,0.236,0.23,0.41,0.23C40.278,36.609,40.501,36.385,40.501,36.109z M59.001,29.074   c-1.279-0.002-2.314-1.037-2.316-2.316c0.002-1.278,1.037-2.313,2.316-2.316c1.279,0.002,2.314,1.038,2.316,2.316   C61.315,28.037,60.28,29.071,59.001,29.074z M68.282,24.441c1.279,0.002,2.314,1.038,2.316,2.316   c-0.002,1.28-1.037,2.314-2.316,2.316c-1.279-0.002-2.314-1.037-2.316-2.316C65.968,25.479,67.003,24.444,68.282,24.441z"/></g><text x="0" y="115" fill="#000000" font-size="5px" font-weight="bold" font-family="'Helvetica Neue', Helvetica, Arial-Unicode, Arial, Sans-serif">Created by Phil Smith</text><text x="0" y="120" fill="#000000" font-size="5px" font-weight="bold" font-family="'Helvetica Neue', Helvetica, Arial-Unicode, Arial, Sans-serif">from the Noun Project</text></svg>