<svg xmlns="http://www.w3.org/2000/svg" xmlns:xlink="http://www.w3.org/1999/xlink" version="1.1" x="0px" y="0px" viewBox="0 0 512 640" enable-background="new 0 0 512 512" xml:space="preserve"><g><path d="M441.3,154.8c4.6-2.5,7.5-7.2,7.5-12.4V16.1c0-7.8-6.3-14.1-14.1-14.1H147.9c-3.7,0-7.3,1.5-10,4.1L67.4,76.7   c-2.6,2.6-4.1,6.2-4.1,10v129.5c0,4.8,2.4,9.3,6.5,11.9l15.5,9.9v103.1L69.7,351c-4,2.6-6.5,7.1-6.5,11.9v133   c0,7.8,6.3,14.1,14.1,14.1h357.3c7.8,0,14.1-6.3,14.1-14.1V227.4c0-5.2-2.9-10-7.5-12.4l-18.9-10.1v-39.9L441.3,154.8z    M420.5,133.9L401.6,144c-4.6,2.5-7.5,7.2-7.5,12.4v56.8c0,5.2,2.9,10,7.5,12.4l18.9,10.1v246H91.5V370.6l15.5-9.9   c4-2.6,6.5-7.1,6.5-11.9V230.3c0-4.8-2.4-9.3-6.5-11.9l-15.5-9.9V92.5l62.3-62.3h266.8V133.9z"/><path d="M142.1,262v166.4c0,7.8,6.3,14.1,14.1,14.1h199.6c7.8,0,14.1-6.3,14.1-14.1V262c0-7.8-6.3-14.1-14.1-14.1H156.2   C148.4,247.9,142.1,254.2,142.1,262z M170.3,276.1h171.3v138.2H170.3V276.1z"/><path d="M373.5,126.5c7.8,0,14.1-6.3,14.1-14.1V65.5c0-7.8-6.3-14.1-14.1-14.1c-7.8,0-14.1,6.3-14.1,14.1v46.9   C359.4,120.2,365.7,126.5,373.5,126.5z"/><path d="M314.8,126.5c7.8,0,14.1-6.3,14.1-14.1V65.5c0-7.8-6.3-14.1-14.1-14.1c-7.8,0-14.1,6.3-14.1,14.1v46.9   C300.6,120.2,307,126.5,314.8,126.5z"/><path d="M256,126.5c7.8,0,14.1-6.3,14.1-14.1V65.5c0-7.8-6.3-14.1-14.1-14.1c-7.8,0-14.1,6.3-14.1,14.1v46.9   C241.9,120.2,248.2,126.5,256,126.5z"/><path d="M197.2,126.5c7.8,0,14.1-6.3,14.1-14.1V65.5c0-7.8-6.3-14.1-14.1-14.1s-14.1,6.3-14.1,14.1v46.9   C183.1,120.2,189.5,126.5,197.2,126.5z"/><path d="M152.6,140.6V93.7c0-7.8-6.3-14.1-14.1-14.1s-14.1,6.3-14.1,14.1v46.9c0,7.8,6.3,14.1,14.1,14.1S152.6,148.4,152.6,140.6z"/></g><text x="0" y="527" fill="#000000" font-size="5px" font-weight="bold" font-family="'Helvetica Neue', Helvetica, Arial-Unicode, Arial, Sans-serif">Created by Icon Fair</text><text x="0" y="532" fill="#000000" font-size="5px" font-weight="bold" font-family="'Helvetica Neue', Helvetica, Arial-Unicode, Arial, Sans-serif">from the Noun Project</text></svg>