<svg xmlns="http://www.w3.org/2000/svg" data-name="Layer 1" viewBox="0 0 90 86.85000000000001" x="0px" y="0px"><title>05</title><path d="M93.61,33.44c-3.36-9.25-16.82-8.2-19.55-8s-10.09.63-13.88-.84a16.85,16.85,0,0,0-7.78-.84c3.15-1.26,9.67-.84,14.3,0s10.51-.63,14.09-.42a41,41,0,0,1,7.36,1.26s-.42-5-2.52-6.94S78,15.78,74.89,15.36c-2.3-.31-8,.17-10.86.45,3.59,0,8.74,1.81,9.81,2.7,1.26,1.05,6.52-.21,7.36.63s-4.21,2.73-10.09,0-13.25-1.47-17.45-.84-9.25,3.36-9.25,6.1a8.56,8.56,0,0,0,1.68,4.84C59.34,28.39,67.33,32.6,69.22,33s7.57-2.73,8,.21-11.56,1.26-17-.84-17-1.47-17-1.47-11.56,1.68-13,7.57.84,9.67.84,9.67a56.77,56.77,0,0,1,6.52.84c11.14,3.57,11.14,11.56,11.14,12.83s2.52,2.31,2.52,2.31a34.83,34.83,0,0,1,7.57,3.15C52.61,68.76,46.3,65.4,46.51,61s-4-7.57-9.25-9.88S26.54,51.1,24,52.57s-10.09,2.73-10.09,2.73a7.83,7.83,0,0,0-3.15,1.26c-.84.84-2.94,1.68-4.84,2.31s-.42,3.15.21,3.78A7.13,7.13,0,0,0,10.35,65c2.1.21,11.77.84,14.09-.21s4-2.31,5.89-1.26a3.37,3.37,0,0,1,1.89,2.73s1.89-5.68,6.31-7.15c0,0-7.15,6.1-5.26,13.88,0,0,.21,3.57,5.68,7.57s17.45,5.89,27.75,2.31,13.88-15.77,9.67-24c-3.88-7.58-17.1-14.79-28.71-16.34a3.49,3.49,0,0,1-2.9-4.43,2.1,2.1,0,0,1,.49-.88c1.26-1.26,1.05,2.94,2.31,3.36,0,0,22.5,3.78,28.17,14.51A48.72,48.72,0,0,0,86,54.81a10.43,10.43,0,0,0,8.65-8.63A25.38,25.38,0,0,0,93.61,33.44ZM15.19,59.85a1,1,0,1,1,1-1A1,1,0,0,1,15.19,59.85Z" transform="translate(-5 -15.26)"/><text x="0" y="84.48" fill="#000000" font-size="5px" font-weight="bold" font-family="'Helvetica Neue', Helvetica, Arial-Unicode, Arial, Sans-serif">Created by parkjisun</text><text x="0" y="89.48" fill="#000000" font-size="5px" font-weight="bold" font-family="'Helvetica Neue', Helvetica, Arial-Unicode, Arial, Sans-serif">from the Noun Project</text></svg>