<svg xmlns="http://www.w3.org/2000/svg" xmlns:xlink="http://www.w3.org/1999/xlink" version="1.1" x="0px" y="0px" viewBox="0 0 300 375" style="enable-background:new 0 0 300 300;" xml:space="preserve"><g><path d="M290.8,130.1c-2.6-3.8-6.7-6.2-11.1-6.4c-3.5-0.2-7,1-10.2,3.4c-2.5-8.7-8.8-9.4-11.7-9.2c-4.5,0.3-8.9,2.8-11.9,6.7   c-2.6,3.4-5.2,9.5-3.2,18.8c-0.1,1-0.5,1.9-0.9,2.5l-12.5,9.7c-1.1-1.7-2.2-3.3-3.4-4.8c-3.5-4.6-10.1-12-18-19   c3.9-5.8,6.7-11.7,7.8-16.7c1.4-6.7,1.7-13.4,0.8-20.1c4-0.5,8.4-0.6,12.4-0.1c1,0.1,1.9-0.6,2-1.6c0.1-1-0.6-1.9-1.6-2   c-4.3-0.5-9.1-0.4-13.4,0.1c-0.3-1.4-0.6-2.8-0.9-4.1c4-1.2,8.3-2,12.1-2c1,0,1.8-0.8,1.7-1.8c0-1-0.8-1.8-1.8-1.7   c-4.1,0.1-8.8,0.9-13,2.2c-0.9-2.8-2-5.6-3.3-8.3c1.5-3.8,1.8-8.1,0.4-12.1c-1.5-4.1-4.5-7.4-8.4-9.2c-2.4-1.1-5.1-1.6-7.7-1.4   c-7.5-18.1-24.4-44.8-39.3-48.4c-0.4-0.1-0.8-0.1-1.2,0c-8.3,1.8-8.5,15.7-8.9,33.4l0,2.1c-7.8,2.5-17.6,6.7-22.4,8.9l-2.4,1.1   c-3.8,1.6-6.8,2.9-9.4,4.2c-9.1-9.9-27.4-24.4-33.8-22.6c-1.6,0.3-3,1.1-4.1,2.5c-5.2,6.7-3,26.6,0.8,54c1.1,7.7,2.1,15,2.6,20.7   l-5.5,3.9c-6,4.2-11.7,8.2-14.2,10c-32.4,24.1-56.5,76.6-38.7,119.2c10.2,25,39.9,49.2,73.7,50.7c8.7,1.9,19.3,2.9,30.6,2.9   c32.6,0,71.8-8.4,93.3-28.4c13.3-12.3,21.9-26,25.6-40.6c3.3-12.9,3-27.7-0.2-41.6c5.3-6,10.8-12,16.4-17.4c0.5,0.1,1,0.3,1.5,0.5   c9.2,2.7,24.6,7.3,30.4-5.1c1.7-3.5,1.3-7.8-1.1-11.1c-0.2-0.3-0.5-0.6-0.7-0.9c2.4-1.3,3.9-3.1,4.7-4.7   C295.3,140.9,293.6,134.3,290.8,130.1z M195.9,58.3c1.6,0,3.1,0.3,4.5,1c2.6,1.2,4.6,3.4,5.6,6.1c2.1,5.9-1.1,12.7-7.2,15.2   c-3,1.2-6.1,1.1-8.9-0.1c-2.6-1.2-4.6-3.4-5.6-6.1c-2.1-5.9,1.1-12.7,7.2-15.2C193,58.6,194.5,58.3,195.9,58.3z M236.3,225.2   c-3.4,13.6-11.5,26.4-24,38c-25.8,24-78.5,30.4-112,25.5c-6.6,0.3-14.3-0.7-23-3.6c-0.2-0.1-0.4-0.1-0.6-0.2   c-3-0.8-5.9-1.7-8.7-2.9c-1.3-0.5-2.6-1-3.7-1.6c-19.2-8.7-34.4-24.4-41-40.5l0,0c-16.8-40.2,6.2-89.9,37-112.9   c2.4-1.8,8.1-5.8,14.1-9.9l7.4-5.2c1.2-0.8,1.5-2.5,0.7-3.7l0,0c-0.1-0.2-0.2-0.3-0.4-0.5c-0.5-5.7-1.5-12.8-2.5-20.3   c-2.6-18.8-6.2-44.6-1.9-50c0.4-0.5,0.6-0.5,0.8-0.5c0.2,0,0.5-0.1,0.7-0.2c3.3,0.3,18.6,9.9,29.5,22.5c0.8,0.9,2.1,1.2,3.2,0.7   c3.1-1.5,6.5-3,11-4.9l2.5-1.1c4.9-2.1,14.7-6.4,22.3-8.8c0,0,0,0,0,0c0.1,0,0.2,0,0.3,0c1.4-0.2,3.3-0.7,5.5-1.3   c2.4-0.6,5.1-1.3,7.1-1.6c1.5-0.2,2.5-1.5,2.3-3c-0.2-1.5-1.5-2.5-3-2.3c-2.4,0.3-5.3,1-7.8,1.7c-0.4,0.1-0.8,0.2-1.1,0.3l0-0.8   c0.2-11.7,0.5-26.2,4.2-28.1c12.1,3.7,27.4,27.3,34.6,44.2c0,0-0.1,0-0.1,0c-8.7,3.5-13.3,13.3-10.2,21.9c1.5,4.1,4.5,7.4,8.4,9.2   c2.1,1,4.4,1.5,6.7,1.5c2.1,0,4.3-0.4,6.3-1.2c2.5-1,4.7-2.5,6.4-4.4c0.7,1.6,1.2,3.2,1.7,4.8c-0.2,0.1-0.3,0.1-0.5,0.2   c-0.9,0.4-1.3,1.5-0.9,2.4c0.3,0.6,0.9,1,1.6,1c0.2,0,0.5-0.1,0.7-0.2c0.3,1.1,0.5,2.2,0.7,3.2c-0.3,0.1-0.6,0.1-0.8,0.2   c-0.9,0.3-1.5,1.3-1.2,2.2c0.2,0.8,0.9,1.3,1.7,1.3c0.2,0,0.3,0,0.5-0.1c0.1,0,0.3-0.1,0.4-0.1c0.7,5.9,0.5,11.9-0.7,17.9   c-0.9,4.2-3.4,9.3-6.7,14.4c-1.9-1.5-3.8-3-5.8-4.4c-11.4-8-24-13.3-34.2-8.9c-0.4,0.2-0.8,0.4-1.3,0.6c-5.3,2.7-7,6.5-7.5,9.3   c-0.7,4,0.6,8.4,3.6,11.6c3.6,4,9.3,6.1,14.9,8.2c2,0.7,4,1.5,5.8,2.3c1.5,0.7,3,1.4,4.3,2.2c3.3,2.1,6.4,4.6,9.3,7.4   c-2.4,11.5-5.8,24.7-8.7,28.1c-0.4,0.2-0.9,0.4-1.3,0.6c-13,5.9-25.6,12.5-37.7,19.9c1.4,1.2,2.7,2.5,3.9,3.9   c10.3-6.2,21-12,32-17.1c0,0,0,0.1,0,0.1c3.9-1.9,7.8-3.6,11.8-5.3c0.9-0.4,1.7-0.7,2.6-1.1c2.3-0.9,4.6-1.9,6.9-2.8   c0.2-0.1,0.3-0.2,0.5-0.3c0.1,0,0.1-0.1,0.2-0.1l5.3-4.1c3.8,8.5,6.1,17.8,6.3,27.2c-0.5,0.5-1,1-1.5,1.5   c-6.3,6-12.7,11.7-19.1,17.4c-1.6,1.4-3.2,2.8-4.7,4.2c0,0,0,0,0,0c-0.8,0.7-1.5,1.4-2.3,2c-1.5,1.3-3,2.6-4.4,3.9   c-0.5,0.4-0.9,0.8-1.4,1.2c-0.7,0.7-1.5,1.3-2.2,2c-1.6,1.4-3.1,2.8-4.7,4.2c-0.3,0.3-0.6,0.5-0.9,0.8c0,0,0,0,0,0   c-2,1.8-4,3.6-6,5.4c-0.2,0.2-0.4,0.3-0.6,0.5c-2.1,1.9-4.2,3.9-6.3,5.9l-9.6,9.8c-8.9,1.4-19.6,2.2-29.6,2   c1.4,1.7,2.2,3.5,2.4,5.4c16.6,0,34.3-2.5,43.2-5.7c34-12.2,52.9-32.8,53-58.1c0.2-25.2-13-50.1-33.6-63.3   c-3.3-2.1-7.3-3.6-11.1-5.1c-1.7-0.6-3.3-1.3-5-2c-0.1-0.1-0.3-0.1-0.4-0.2c-0.1,0-0.1-0.1-0.2-0.1c-2.3-1-4.4-2.1-6-3.5   c0,0-0.1-0.1-0.1-0.1c-0.4-0.3-0.7-0.6-1.1-1c0,0,0,0,0,0c0,0-0.1-0.1-0.1-0.1c-1.4-1.6-2.3-3.6-2.3-5.7c0-0.1,0-0.2,0-0.3   c0-0.2,0-0.3,0-0.5c0.2-1.9,1.3-3.8,3.5-5.2c0,0,0.1,0,0.1-0.1c0.3-0.2,0.7-0.4,1.1-0.6c0,0,0,0,0,0c0.5-0.2,1-0.5,1.5-0.6   c0.2-0.1,0.5-0.2,0.7-0.2c0.3-0.1,0.5-0.2,0.8-0.2c0.4-0.1,0.7-0.2,1.1-0.2c0.1,0,0.2,0,0.4-0.1c16.9-2.5,42.4,22.2,52.3,35.1   C236.1,172.9,242.1,202.1,236.3,225.2z M200.2,178.1c-3.2,1.2-6.4,2.5-9.5,3.9c2.8-7.8,5.1-15.3,5.8-21.8c3.7,4.1,6.9,8.6,9.5,13.4   L200.2,178.1z M214.4,213.5c-1.5,11.3-7.3,21.4-17.2,30c-0.6-1.7-1.1-3.2-1.2-4.6c-0.2-2.7-0.5-5.4-0.9-8   C201.5,225.2,208,219.5,214.4,213.5z M192.8,247c-3.8,2.8-8,5.4-12.7,7.8c-0.7-1.1-1.4-2.2-2.1-3.3c-0.8-1.2-1.5-2.4-2.2-3.6   c4.7-4.3,9.5-8.5,14.5-12.8c0.2,1.4,0.3,2.8,0.4,4.2C190.8,241.9,191.8,244.5,192.8,247z M175.2,257.2c-3.2,1.4-6.5,2.8-10,4   c-1.5,0.5-3.3,1-5.2,1.5c3.8-3.8,7.7-7.5,11.7-11.1c0.6,0.9,1.2,1.9,1.8,2.8C174.1,255.4,174.7,256.3,175.2,257.2z M286.9,144.9   c-1,0.9-2.4,1.7-4.2,2c-0.2,0-0.4,0.1-0.6,0.1c-0.1,0-0.2,0-0.3,0c-0.7,0.1-1.4,0.2-2.1,0.2l-0.3,0c0,0-0.1,0-0.1,0   c-1.1,0.2-1.8,0.9-2.1,1.7c0,0,0,0.1,0,0.1c0,0,0,0.1,0,0.1c-0.1,0.6-0.1,1.2,0.1,1.7c0,0,0,0.1,0,0.1c0,0,0,0,0,0.1   c0.4,0.8,1.1,1.4,2.3,1.5c0,0,0.1,0,0.1,0c0,0,0,0,0,0l0,0l0.2,0c0.2,0,0.4,0,0.7,0c1.4,0.1,2.8,1,3.7,2.3c0.1,0.1,0.1,0.1,0.1,0.2   c0.1,0.1,0.2,0.2,0.2,0.4c0.5,0.8,0.7,1.8,0.7,2.8c0,0,0,0,0,0.1c0,0.2,0,0.4-0.1,0.6c0,0.2-0.1,0.3-0.1,0.5c0,0.1,0,0.2-0.1,0.2   c-0.1,0.2-0.2,0.5-0.3,0.7c-0.1,0.3-0.3,0.6-0.5,0.9c0,0.1-0.1,0.1-0.1,0.2c-0.1,0.2-0.2,0.3-0.3,0.5c-1.1,1.5-2.4,2.4-4.1,3   c-2.6,0.9-6,0.7-10-0.1c-3.4-0.7-7.4-1.7-11.7-2.9c-0.2,0-0.3-0.1-0.5-0.1c-0.9-0.2-1.8,0-2.5,0.6c0,0,0,0-0.1,0.1   c-0.9,0.9-1.8,1.7-2.7,2.6c-0.2,0.2-0.4,0.4-0.6,0.6c-0.7,0.7-1.4,1.4-2.1,2.1c-0.5,0.5-1.1,1.1-1.6,1.6c-0.4,0.4-0.7,0.7-1.1,1.1   c-0.6,0.6-1.1,1.2-1.7,1.8c-0.3,0.3-0.6,0.7-1,1c-0.4,0.4-0.8,0.8-1.1,1.2c-1.2,1.3-2.4,2.6-3.6,4c-1.9-6.5-4.5-12.7-7.6-18.4   l13.3-10.3c0.2-0.1,0.3-0.3,0.4-0.4c0,0,0,0,0,0c0.3-0.4,0.6-0.7,0.8-1.1c0,0,0.1-0.1,0.1-0.1c0.2-0.4,0.4-0.9,0.6-1.3   c0-0.1,0-0.1,0.1-0.2c0.2-0.5,0.3-1,0.4-1.5c0,0,0-0.1,0-0.1c0.1-0.6,0.2-1.1,0.3-1.7c0-0.3,0-0.6-0.1-0.8   c-0.1-0.3-0.1-0.5-0.2-0.7c0-0.1-0.1-0.3-0.1-0.4c-0.1-0.3-0.1-0.7-0.2-1c0,0,0-0.1,0-0.1c-0.2-1.6-0.3-3.1-0.2-4.4   c0,0,0-0.1,0-0.1c0-0.6,0.1-1.1,0.2-1.6c0.1-0.5,0.2-1,0.3-1.5c0-0.1,0-0.1,0-0.2c0.1-0.4,0.2-0.9,0.4-1.3c0-0.1,0-0.1,0.1-0.2   c0.1-0.4,0.3-0.8,0.5-1.2c0,0,0,0,0,0c0.2-0.4,0.4-0.8,0.6-1.1c0.6-1,1.3-1.9,2.1-2.6c0.1-0.1,0.2-0.2,0.3-0.3   c0.2-0.1,0.3-0.3,0.5-0.4c0.2-0.1,0.3-0.3,0.5-0.4c0.1-0.1,0.3-0.2,0.5-0.3c0.2-0.1,0.3-0.2,0.5-0.3c0.2-0.1,0.3-0.2,0.5-0.3   c0.2-0.1,0.3-0.2,0.5-0.2c0.2-0.1,0.4-0.2,0.5-0.2c0.2-0.1,0.3-0.1,0.5-0.2c0.2-0.1,0.3-0.1,0.5-0.2c0.2-0.1,0.4-0.1,0.6-0.1   c0.1,0,0.3-0.1,0.4-0.1c0.3-0.1,0.7-0.1,1-0.1c0,0,0.1,0,0.1,0c0.6,0,1.1,0,1.7,0.1c0,0,0,0,0,0c0.2,0,0.3,0.1,0.5,0.1   c0.1,0,0.1,0,0.2,0.1c0.1,0,0.2,0.1,0.3,0.1c0.1,0.1,0.3,0.1,0.4,0.2c0,0,0.1,0,0.1,0.1c1.3,0.9,2.5,2.5,3.1,5.3   c0,0.1,0,0.2,0.1,0.3c0,0.2,0.1,0.4,0.1,0.7c0.1,0.3,0.1,0.6,0.2,0.9c0,0.1,0,0.1,0,0.1c0.1,0.4,0.1,0.9,0.2,1.4   c0.1,0.9,0.5,1.5,1.1,2c0,0,0,0,0,0c0.1,0,0.1,0.1,0.2,0.1c0.3,0.2,0.7,0.3,1.1,0.3c0.1,0,0.1,0,0.2,0c0,0,0.1,0,0.1,0   c0.7,0,1.5-0.3,2-1c0,0,0.1-0.1,0.1-0.1c0.3-0.3,0.6-0.7,0.9-1c0.1-0.1,0.2-0.2,0.3-0.3c0.3-0.3,0.5-0.5,0.8-0.7   c0.2-0.2,0.5-0.4,0.7-0.6c0.1-0.1,0.3-0.2,0.4-0.3c1.6-1.2,3.1-1.8,4.6-2.1c0.1,0,0.2,0,0.3,0c0.2,0,0.4-0.1,0.7-0.1   c0.3,0,0.6,0,0.9,0c0.1,0,0.1,0,0.2,0c0.3,0,0.5,0,0.8,0.1c0.1,0,0.2,0,0.2,0c0.2,0,0.4,0.1,0.6,0.2c0.1,0,0.3,0.1,0.4,0.1   c0.2,0.1,0.3,0.1,0.4,0.2c0.2,0.1,0.4,0.2,0.6,0.3c0.1,0,0.2,0.1,0.3,0.1c0.2,0.1,0.5,0.3,0.7,0.4c0.1,0,0.1,0.1,0.2,0.1   c0.2,0.1,0.4,0.3,0.6,0.5c0.1,0.1,0.2,0.1,0.3,0.2c0.1,0.1,0.3,0.2,0.4,0.4c0.2,0.1,0.3,0.3,0.4,0.5c0.1,0.1,0.1,0.1,0.2,0.2   c0.2,0.2,0.4,0.5,0.6,0.8c0,0,0,0,0,0c0,0,0,0,0,0C289.1,137.2,289.8,142.1,286.9,144.9z"/><path d="M135.6,114.4c5.1-0.8,9.7-3.3,12.9-7.2c3.2-3.9,4.6-8.7,3.9-13.5c-1.5-9.8-11.4-16.4-22.1-14.8c-5.1,0.8-9.7,3.3-12.9,7.2   c-3.2,3.9-4.6,8.7-3.9,13.5c1.3,8.8,9.5,15,18.9,15C133.4,114.6,134.5,114.5,135.6,114.4z M118.8,98.8c-0.5-3.3,0.5-6.6,2.7-9.3   c2.3-2.8,5.7-4.7,9.5-5.3c7.8-1.2,15,3.4,16,10.3c0.5,3.3-0.5,6.6-2.7,9.3c-2.3,2.8-5.7,4.7-9.5,5.3   C127,110.3,119.8,105.7,118.8,98.8z"/><path d="M167.5,39.4c1.8-0.9,10.4,0.9,11.2-0.7c0.3-0.5,0.1-1.4-0.4-2.3c-3.1-6.8-7.9-12.3-13.8-16.7c-1.2-0.9-2.4,0.1-2.3,1.7   c0.7,6.7,2.5,10.9,4.7,16.5C167.2,38.4,167.3,38.9,167.5,39.4z"/><path d="M164.1,96.3c0.4,0.2,0.8,0.3,1.2,0.3c1,0,1.9-0.5,2.4-1.5c0.9-1.8,2.9-3.5,4.9-4.1c1.5-0.4,2.8-0.3,4,0.3   c1.3,0.7,2.9,0.3,3.6-1c0.6-1,0.4-2.1-0.2-3c-0.2-0.3-0.5-0.5-0.8-0.7c-2.5-1.4-5.3-1.7-8.2-0.8c-3.5,1.1-6.6,3.7-8.1,6.8   c-0.3,0.6-0.3,1.2-0.2,1.7C162.8,95.2,163.3,95.9,164.1,96.3z"/><path d="M175,99.3c-0.4,0-0.8,0-1.2,0.2c-2.7,1.3-5.2,7.4-3.2,10.3c1.7,2.5,5.7,2.3,7.4-0.2C180,106.9,178.7,99.7,175,99.3z"/><ellipse cx="131" cy="94.7" rx="6.3" ry="6.3"/><ellipse cx="191.5" cy="71" rx="6" ry="6"/><path d="M88.3,88.3c0.5,0.2,0.9,0.4,1.4,0.6c0.8-4,12.6-10.1,13.1-14.8c0.5-4.8-9.3-15-13.6-17.7c-10.3-6.6-4.5,16.8-4.1,19.4   C85.8,80.2,87.4,84.3,88.3,88.3z"/><path d="M54.5,196.8c-17.5-2.9-29.1-5.1-29.8-1c-0.7,4.1,9.8,12.9,27.3,15.9c17.5,2.9,35.3-1.1,36-5.2   C88.7,202.3,72,199.7,54.5,196.8z"/><path d="M62.6,168c-16.5-2.8-27.5-1.4-28.1,2.5c-0.7,3.9,9.3,8.7,25.8,11.5c16.5,2.8,33.4,2.4,34-1.5   C94.9,176.7,79.1,170.8,62.6,168z"/><path d="M78.1,142.4c-14.6-2.5-27.4,1.9-27.9,5.3c-0.6,3.4,11.3,4.7,25.8,7.1c14.6,2.5,26.4,5.2,27,1.8   C103.6,153.2,92.7,144.9,78.1,142.4z"/><path d="M119.2,76.2c0.3,0.5,0.9,0.8,1.5,0.8c0.4,0,0.7-0.1,1-0.3c0.8-0.6,1-1.7,0.4-2.5c-1.2-1.7-2.5-3.7-3.2-5.9   c-0.3-0.9-1.3-1.4-2.3-1.1c-0.9,0.3-1.4,1.3-1.1,2.3C116.4,72,117.9,74.3,119.2,76.2z"/><path d="M123.1,69.7c0.5,1.6,1,3.3,1.8,4.6c0.3,0.5,0.9,0.8,1.5,0.8c0.3,0,0.7-0.1,1-0.3c0.8-0.6,1-1.7,0.5-2.5   c-0.5-0.8-0.9-2.2-1.4-3.6c-0.4-1.3-0.8-2.7-1.4-3.8c-0.5-0.9-1.5-1.2-2.4-0.8c-0.9,0.4-1.2,1.5-0.8,2.4   C122.4,67.4,122.7,68.6,123.1,69.7z"/><path d="M176.5,47.6c-0.5-0.8-1.7-1-2.5-0.5c-0.8,0.6-1,1.7-0.5,2.5c1.2,1.7,2.2,3.4,3.3,5.1c0.3,0.6,0.9,0.9,1.5,0.9   c0.3,0,0.6-0.1,0.9-0.2c0.9-0.5,1.1-1.6,0.6-2.4C178.9,51.1,177.8,49.4,176.5,47.6z"/><path d="M178.9,46.6c0.5,0.8,0.8,1.7,1.1,2.6c0.4,1.3,0.9,2.6,1.8,3.8c0.3,0.5,0.9,0.7,1.4,0.7c0.4,0,0.7-0.1,1-0.3   c0.8-0.6,1-1.7,0.4-2.5c-0.6-0.8-1-1.8-1.3-2.9c-0.4-1.1-0.8-2.2-1.4-3.3c-0.5-0.8-1.6-1.1-2.4-0.6   C178.7,44.6,178.4,45.7,178.9,46.6z"/><path d="M139.5,123.9c0.7-0.7,0.6-1.9-0.1-2.5c-0.7-0.7-1.9-0.6-2.5,0.1l-2.3,2.6c-2.5,2.8-5.2,5.6-7.5,8.7   c-0.6,0.8-0.4,1.9,0.3,2.5c0.3,0.2,0.7,0.4,1.1,0.4c0.5,0,1.1-0.2,1.4-0.7c2.3-3,4.7-5.7,7.3-8.5L139.5,123.9z"/><path d="M145.2,125.2c-0.8-0.6-1.9-0.4-2.5,0.4c-0.8,1.1-1.6,2.1-2.5,3.1c-2.5,3.1-5.1,6.3-6.6,10.4c-0.3,0.9,0.1,1.9,1,2.3   c0.2,0.1,0.4,0.1,0.6,0.1c0.7,0,1.4-0.4,1.7-1.2c1.3-3.6,3.6-6.4,6-9.4c0.9-1,1.7-2.1,2.5-3.2C146.1,126.9,146,125.8,145.2,125.2z"/></g><text x="0" y="315" fill="#000000" font-size="5px" font-weight="bold" font-family="'Helvetica Neue', Helvetica, Arial-Unicode, Arial, Sans-serif">Created by Denis Sazhin</text><text x="0" y="320" fill="#000000" font-size="5px" font-weight="bold" font-family="'Helvetica Neue', Helvetica, Arial-Unicode, Arial, Sans-serif">from the Noun Project</text></svg>