<svg xmlns="http://www.w3.org/2000/svg" xmlns:xlink="http://www.w3.org/1999/xlink" version="1.1" x="0px" y="0px" viewBox="0 0 48 60" style="enable-background:new 0 0 48 48;" xml:space="preserve"><path d="M27.4101562,23.6147461c0.0488281-0.1186523,0.1210938-0.2246094,0.2099609-0.3149414  c0.0019531-0.0019531,0.0029297-0.0053711,0.0048828-0.0073242l3.0664062-3.0644531  c0.390625-0.3896484,1.0234375-0.3901367,1.4140625,0.0004883s0.390625,1.0239258,0,1.4145508L30.7480469,23h6.25  c0.5527344,0,1,0.4477539,1,1s-0.4472656,1-1,1h-6.2509766l1.3583984,1.3574219c0.390625,0.3896484,0.390625,1.0234375,0,1.4140625  c-0.1953125,0.1953125-0.4511719,0.2929688-0.7070312,0.2929688s-0.5117188-0.0976562-0.7070312-0.2929688L27.625,24.7075195  c-0.0019531-0.0019531-0.0029297-0.0053711-0.0048828-0.0073242c-0.0888672-0.090332-0.1611328-0.1962891-0.2099609-0.3149414  C27.359375,24.2641602,27.3320312,24.1337891,27.3320312,24S27.359375,23.7358398,27.4101562,23.6147461z M42.3339844,39.1669922  c0,0.5527344-0.4472656,1-1,1H22.6557617c-0.4213867,1.2548828-1.5952148,2.1669922-2.9897461,2.1669922  s-2.5683594-0.9121094-2.9897461-2.1669922H6.6660156c-0.5522461,0-1-0.4472656-1-1s0.4477539-1,1-1h10.0102539  c0.3154297-0.9384766,1.0512695-1.6748047,1.9897461-1.9892578v-6.8613281C14.2045898,29.1669922,10,28.0097656,10,25.6259766V9.375  c0-2.5615234,4.8544922-3.7080078,9.6660156-3.7080078S29.3320312,6.8134766,29.3320312,9.375v5.5629883  c1.0410156-0.3842773,2.1611328-0.6049805,3.3339844-0.6049805c5.3300781,0,9.6660156,4.3364258,9.6660156,9.6669922  c0,5.3300781-4.3359375,9.6669922-9.6660156,9.6669922c-3.5351562,0-6.625-1.9140625-8.3105469-4.7539062  c-1.1303711,0.2167969-2.3764648,0.3505859-3.6894531,0.3955078v6.8691406  c0.9384766,0.3144531,1.6743164,1.0507812,1.9897461,1.9892578h18.6782227  C41.8867188,38.1669922,42.3339844,38.6142578,42.3339844,39.1669922z M12,20.1821289  c0.1928711,0.4985352,2.7329102,1.7358398,7.6660156,1.7358398c1.2709961,0,2.5087891-0.0947266,3.6333008-0.2661133  c0.347168-1.3833008,0.9853516-2.6508789,1.8569336-3.7265625C23.5283203,18.3120117,21.5966797,18.5,19.6660156,18.5  C16.7666016,18.5,13.8588867,18.0800781,12,17.1884766V20.1821289z M12,14.7651367  C12.1928711,15.2631836,14.7329102,16.5,19.6660156,16.5c4.9345703,0,7.4755859-1.2373047,7.6660156-1.7353516v-2.9926758  c-1.859375,0.8920898-4.7666016,1.3120117-7.6660156,1.3120117S13.8588867,12.6640625,12,11.7719727V14.7651367z   M32.6660156,16.3330078c-4.2275391,0-7.6669922,3.4394531-7.6669922,7.6669922s3.4394531,7.6669922,7.6669922,7.6669922  S40.3320312,28.2275391,40.3320312,24S36.8935547,16.3330078,32.6660156,16.3330078z M12,9.4023438v0.0102539  c0.1928711,0.434082,2.7329102,1.6713867,7.6660156,1.6713867c4.9482422,0,7.4921875-1.2456055,7.6699219-1.7412109  c-0.1787109-0.4306641-2.7231445-1.6757812-7.6699219-1.6757812C14.734375,7.6669922,12.1933594,8.9038086,12,9.4023438z   M19.6660156,27.3339844c1.3588867,0,2.6616211-0.0996094,3.831543-0.2910156  C23.1787109,26.0849609,22.9990234,25.0644531,22.9990234,24c0-0.097168,0.0117188-0.1914062,0.0146484-0.2875977  c-1.0615234,0.1328125-2.1948242,0.2055664-3.3476562,0.2055664c-2.8994141,0-5.8071289-0.4199219-7.6660156-1.3120117v2.9936523  C12.1928711,26.0976562,14.7329102,27.3339844,19.6660156,27.3339844z M20.8330078,39.1669922  C20.8330078,38.5234375,20.3095703,38,19.6660156,38s-1.1669922,0.5234375-1.1669922,1.1669922  s0.5234375,1.1669922,1.1669922,1.1669922S20.8330078,39.8105469,20.8330078,39.1669922z"/><text x="0" y="63" fill="#000000" font-size="5px" font-weight="bold" font-family="'Helvetica Neue', Helvetica, Arial-Unicode, Arial, Sans-serif">Created by Knut M. Synstad</text><text x="0" y="68" fill="#000000" font-size="5px" font-weight="bold" font-family="'Helvetica Neue', Helvetica, Arial-Unicode, Arial, Sans-serif">from the Noun Project</text></svg>